<svg width="18" height="18" viewBox="0 0 18 18" fill="none" xmlns="http://www.w3.org/2000/svg">
<path d="M15.75 4.5H2.25C1.425 4.5 0.75 5.175 0.75 6V12C0.75 12.825 1.425 13.5 2.25 13.5H15.75C16.575 13.5 17.25 12.825 17.25 12V6C17.25 5.175 16.575 4.5 15.75 4.5ZM8.25 9.75H6V12H4.5V9.75H2.25V8.25H4.5V6H6V8.25H8.25V9.75ZM11.625 11.25C11.0025 11.25 10.5 10.7475 10.5 10.125C10.5 9.5025 11.0025 9 11.625 9C12.2475 9 12.75 9.5025 12.75 10.125C12.75 10.7475 12.2475 11.25 11.625 11.25ZM14.625 9C14.0025 9 13.5 8.4975 13.5 7.875C13.5 7.2525 14.0025 6.75 14.625 6.75C15.2475 6.75 15.75 7.2525 15.75 7.875C15.75 8.4975 15.2475 9 14.625 9Z" fill="#FA6D73"/>
</svg>
