<svg width="20" height="20" viewBox="0 0 20 20" fill="none" xmlns="http://www.w3.org/2000/svg">
<path d="M19.3556 5H18.3334C18.0668 5 17.3556 5.28889 17.3556 5.53333V14.5556C17.3556 14.8 18.0668 15 18.3334 15H19.3556V17H12.6668V15H14.0001V5.66667H13.7779L10.5556 17.0222H8.06675L4.88898 5.66667H4.66675V15.0222H6.00009V17.0222H0.666753V15.0222H1.40009C1.68898 15.0222 2.00009 14.8222 2.00009 14.5778V5.53333C2.00009 5.28889 1.68898 5 1.40009 5H0.644531V3H7.57786L9.84453 11.0222H9.9112L12.2001 3H19.3779L19.3556 5Z" fill="white"/>
</svg>
