<svg width="16" height="16" viewBox="0 0 16 16" fill="none" xmlns="http://www.w3.org/2000/svg">
<path d="M15.4665 3.36004C14.9154 3.60893 14.3288 3.76893 13.7065 3.84004C14.3465 3.44893 14.8265 2.86227 15.0576 2.15116C14.471 2.50671 13.8132 2.7556 13.1199 2.89782C12.5688 2.29338 11.7688 1.92004 10.8799 1.92004C9.19098 1.92004 7.82209 3.28893 7.82209 4.9956C7.82209 5.22671 7.85765 5.45782 7.91098 5.70671C5.36876 5.56449 3.0932 4.3556 1.58209 2.50671C1.31543 2.95116 1.15543 3.48449 1.15543 4.05338C1.15543 5.10227 1.68876 6.04449 2.50654 6.5956C2.00876 6.57782 1.52876 6.45338 1.11987 6.20449V6.24004C1.11987 7.73338 2.16876 8.96004 3.59098 9.24449C3.34209 9.3156 3.07543 9.35116 2.79098 9.35116C2.59543 9.35116 2.39987 9.33338 2.22209 9.29782C2.6132 10.5245 3.75098 11.3956 5.08431 11.4312C4.03543 12.2489 2.71987 12.7467 1.27987 12.7467C1.03098 12.7467 0.79987 12.7289 0.533203 12.6934C1.88431 13.5645 3.50209 14.0623 5.22654 14.0623C10.8621 14.0623 13.9554 9.40449 13.9554 5.33338L13.9376 4.92449C14.5421 4.53338 15.0576 3.96449 15.4665 3.36004Z" fill="#676E78"/>
</svg>
