<svg width="16" height="16" viewBox="0 0 16 16" fill="none" xmlns="http://www.w3.org/2000/svg">
<path d="M15.4665 3.36001C14.9154 3.6089 14.3288 3.7689 13.7065 3.84001C14.3465 3.4489 14.8265 2.86224 15.0576 2.15112C14.471 2.50668 13.8132 2.75557 13.1199 2.89779C12.5688 2.29335 11.7688 1.92001 10.8799 1.92001C9.19098 1.92001 7.82209 3.2889 7.82209 4.99557C7.82209 5.22668 7.85765 5.45779 7.91098 5.70668C5.36876 5.56446 3.0932 4.35557 1.58209 2.50668C1.31543 2.95112 1.15543 3.48446 1.15543 4.05335C1.15543 5.10224 1.68876 6.04446 2.50654 6.59557C2.00876 6.57779 1.52876 6.45335 1.11987 6.20446V6.24001C1.11987 7.73335 2.16876 8.96001 3.59098 9.24446C3.34209 9.31557 3.07543 9.35112 2.79098 9.35112C2.59543 9.35112 2.39987 9.33335 2.22209 9.29779C2.6132 10.5245 3.75098 11.3956 5.08431 11.4311C4.03543 12.2489 2.71987 12.7467 1.27987 12.7467C1.03098 12.7467 0.79987 12.7289 0.533203 12.6933C1.88431 13.5645 3.50209 14.0622 5.22654 14.0622C10.8621 14.0622 13.9554 9.40446 13.9554 5.33335L13.9376 4.92446C14.5421 4.53335 15.0576 3.96446 15.4665 3.36001Z" fill="#2F363F"/>
</svg>
