<?xml version="1.0" encoding="utf-8"?>
<!-- Generator: Adobe Illustrator 21.0.2, SVG Export Plug-In . SVG Version: 6.00 Build 0)  -->
<svg version="1.1" id="Layer_1" xmlns="http://www.w3.org/2000/svg" xmlns:xlink="http://www.w3.org/1999/xlink" x="0px" y="0px"
	 viewBox="0 0 1200 950" style="enable-background:new 0 0 1200 950;" xml:space="preserve">
<style type="text/css">
	.st0{enable-background:new    ;}
	.st1{fill:#E7F4FA;}
	.st2{fill:#D1E9F5;}
	.st3{fill:#FFFFFF;}
	.st4{fill:#F35B25;}
	.st5{fill:#DE5322;}
	.st6{fill:#B0CC38;}
	.st7{fill:#12A4B3;}
	.st8{fill:#0C3953;}
	.st9{fill:#2CC0C1;}
	.st10{fill:#0D3A56;}
	.st11{fill:#15557D;}
	.st12{fill:#FF7342;}
	.st13{fill:#00ABFF;}
	.st14{fill:#0094CE;}
	.st15{fill:#39C7FF;}
	.st16{fill:#2BCBDA;}
	.st17{fill:#42E2EA;}
	.st18{fill:#EBF2FF;}
	.st19{fill:#A6CFE1;}
	.st20{fill:#00E4FF;}
</style>
<g id="XMLID_155_">
	<g id="XMLID_2919_">
		<g id="XMLID_2877_">
			<g id="XMLID_2888_">
				<g id="XMLID_2894_">
					<g id="XMLID_2895_" class="st0">
						<g id="XMLID_2896_">
							<polygon id="XMLID_2897_" class="st1" points="874.9,567.1 874.9,667.2 703.8,765.9 703.8,665.7 							"/>
						</g>
					</g>
				</g>
				<g id="XMLID_2890_">
					<g id="XMLID_2891_" class="st0">
						<g id="XMLID_2892_">
							<polygon id="XMLID_2893_" class="st2" points="540.3,571.4 540.3,671.6 703.8,765.9 703.8,665.7 							"/>
						</g>
					</g>
				</g>
				<polygon id="XMLID_2889_" class="st3" points="540.3,571.4 711.4,472.8 874.9,567.1 703.8,665.7 				"/>
			</g>
			<g id="XMLID_2878_">
				<g id="XMLID_2884_">
					<g id="XMLID_2885_" class="st0">
						<g id="XMLID_2886_">
							<polygon id="XMLID_2887_" class="st4" points="862.3,472.8 862.3,567.3 704.2,658.6 704.2,564 							"/>
						</g>
					</g>
				</g>
				<g id="XMLID_2880_">
					<g id="XMLID_2881_" class="st0">
						<g id="XMLID_2882_">
							<polygon id="XMLID_2883_" class="st5" points="552.9,476.7 553.1,571.2 704.2,658.6 704.2,564 							"/>
						</g>
					</g>
				</g>
				<polygon id="XMLID_2879_" class="st6" points="552.9,476.7 711.2,385.6 862.3,472.8 704.2,564 				"/>
			</g>
		</g>
		<g id="XMLID_2856_">
			<g id="XMLID_2867_">
				<g id="XMLID_2873_">
					<g id="XMLID_2874_" class="st0">
						<g id="XMLID_2875_">
							<polygon id="XMLID_2876_" class="st1" points="874.9,499.6 874.9,548 703.8,646.6 703.8,598.3 							"/>
						</g>
					</g>
				</g>
				<g id="XMLID_2869_">
					<g id="XMLID_2870_" class="st0">
						<g id="XMLID_2871_">
							<polygon id="XMLID_2872_" class="st2" points="540.3,504 540.3,552.1 703.8,646.6 703.8,598.3 							"/>
						</g>
					</g>
				</g>
				<polygon id="XMLID_2868_" class="st3" points="540.3,504 711.4,405.3 874.9,499.6 703.8,598.3 				"/>
			</g>
			<g id="XMLID_2857_">
				<g id="XMLID_2863_">
					<g id="XMLID_2864_" class="st0">
						<g id="XMLID_2865_">
							<polygon id="XMLID_2866_" class="st4" points="862.3,405.3 862.3,499.6 704.2,590.9 704.2,496.4 							"/>
						</g>
					</g>
				</g>
				<g id="XMLID_2859_">
					<g id="XMLID_2860_" class="st0">
						<g id="XMLID_2861_">
							<polygon id="XMLID_2862_" class="st5" points="552.9,409.2 553.1,503.8 704.2,590.9 704.2,496.4 							"/>
						</g>
					</g>
				</g>
				<polygon id="XMLID_2858_" class="st6" points="552.9,409.2 711.2,318 862.3,405.3 704.2,496.4 				"/>
			</g>
		</g>
		<g id="XMLID_2834_">
			<g id="XMLID_2845_">
				<g id="XMLID_2852_">
					<g id="XMLID_2853_" class="st0">
						<g id="XMLID_2854_">
							<polygon id="XMLID_2855_" class="st1" points="874.9,432 874.9,480.3 703.8,579.2 703.8,530.6 							"/>
						</g>
					</g>
				</g>
				<g id="XMLID_2847_">
					<g id="XMLID_2848_" class="st0">
						<g id="XMLID_2849_">
							<polygon id="XMLID_2851_" class="st2" points="540.3,436.3 540.3,484.7 703.8,579.2 703.8,530.6 							"/>
						</g>
					</g>
				</g>
				<polygon id="XMLID_2846_" class="st3" points="540.3,436.3 711.4,337.7 874.9,432 703.8,530.6 				"/>
			</g>
			<g id="XMLID_2835_">
				<g id="XMLID_2841_">
					<g id="XMLID_2842_" class="st0">
						<g id="XMLID_2843_">
							<polygon id="XMLID_2844_" class="st4" points="862.3,337.7 862.3,432.2 704.2,523.5 704.2,429 							"/>
						</g>
					</g>
				</g>
				<g id="XMLID_2837_">
					<g id="XMLID_2838_" class="st0">
						<g id="XMLID_2839_">
							<polygon id="XMLID_2840_" class="st5" points="552.9,341.6 553.1,436.1 704.2,523.5 704.2,429 							"/>
						</g>
					</g>
				</g>
				<polygon id="XMLID_2836_" class="st6" points="552.9,341.6 711.2,250.5 862.3,337.7 704.2,429 				"/>
			</g>
		</g>
		<g id="XMLID_2790_">
			<g id="XMLID_2824_">
				<g id="XMLID_2830_">
					<g id="XMLID_2831_" class="st0">
						<g id="XMLID_2832_">
							<polygon id="XMLID_2833_" class="st1" points="874.9,364.6 874.9,412.9 703.8,511.6 703.8,463.2 							"/>
						</g>
					</g>
				</g>
				<g id="XMLID_2826_">
					<g id="XMLID_2827_" class="st0">
						<g id="XMLID_2828_">
							<polygon id="XMLID_2829_" class="st2" points="540.3,368.9 540.3,417 703.8,511.6 703.8,463.2 							"/>
						</g>
					</g>
				</g>
				<polygon id="XMLID_2825_" class="st3" points="540.3,368.9 711.4,270.3 874.9,364.6 703.8,463.2 				"/>
			</g>
			<g id="XMLID_2791_">
				<g id="XMLID_2811_">
					<g id="XMLID_2812_" class="st0">
						<g id="XMLID_2813_">
							<polygon id="XMLID_2814_" class="st4" points="862.3,270.3 862.3,364.6 704.2,455.8 704.2,361.3 							"/>
						</g>
					</g>
				</g>
				<g id="XMLID_2793_">
					<g id="XMLID_2795_" class="st0">
						<g id="XMLID_2798_">
							<polygon id="XMLID_2799_" class="st5" points="552.9,274.2 553.1,368.7 704.2,455.8 704.2,361.3 							"/>
						</g>
					</g>
				</g>
				<polygon id="XMLID_2792_" class="st6" points="552.9,274.2 711.2,182.9 862.3,270.3 704.2,361.3 				"/>
			</g>
		</g>
		<g id="XMLID_2720_">
			<g id="XMLID_2743_">
				<g id="XMLID_2782_">
					<g id="XMLID_2783_" class="st0">
						<g id="XMLID_2784_">
							<polygon id="XMLID_2785_" class="st1" points="874.9,243.2 874.9,345.3 703.8,444.1 703.8,341.8 							"/>
						</g>
					</g>
				</g>
				<g id="XMLID_2776_">
					<g id="XMLID_2777_" class="st0">
						<g id="XMLID_2778_">
							<polygon id="XMLID_2779_" class="st2" points="540.3,247.3 540.3,349.6 703.8,444.1 703.8,341.8 							"/>
						</g>
					</g>
				</g>
				<polygon id="XMLID_2775_" class="st3" points="540.3,247.3 711.4,148.6 874.9,243.2 703.8,341.8 				"/>
			</g>
			<g id="XMLID_2722_">
				<polygon id="XMLID_2742_" class="st2" points="711.4,154.5 854.5,236.9 854.5,224.9 711.4,142.3 				"/>
				<polygon id="XMLID_2741_" class="st1" points="711.4,142.3 711.4,154.5 550.7,247.3 550.7,235.1 				"/>
				<g id="XMLID_2736_">
					<g id="XMLID_2737_" class="st0">
						<g id="XMLID_2738_">
							<polygon id="XMLID_2739_" class="st1" points="874.9,224.3 874.9,242.9 704,341.8 704,322.9 							"/>
						</g>
					</g>
				</g>
				<g id="XMLID_2732_">
					<g id="XMLID_2733_" class="st0">
						<g id="XMLID_2734_">
							<polygon id="XMLID_2735_" class="st2" points="540.3,228.6 540.3,247.3 704,341.8 704,322.9 							"/>
						</g>
					</g>
				</g>
				<path id="XMLID_2724_" class="st3" d="M711.4,130l-171.1,98.6L704,322.9l170.8-98.6L711.4,130z M561.1,229.1l150.5-86.7
					l142.9,82.6L704,311.7L561.1,229.1z"/>
				<polygon id="XMLID_2723_" class="st3" points="711.4,154.5 571.5,235.1 704,311.7 844.1,230.8 				"/>
			</g>
		</g>
		<g id="XMLID_2608_">
			<g id="XMLID_2601_">
				<g id="XMLID_589_">
					<g id="XMLID_2618_">
						<g id="XMLID_2647_">
							<polygon id="XMLID_2649_" class="st7" points="862.3,517.6 862.3,544.3 718.5,627.3 718.3,600.7 							"/>
						</g>
						<polygon id="XMLID_2646_" class="st8" points="862.3,544.3 858.8,542.4 858.8,519.6 862.3,517.6 						"/>
						<polygon id="XMLID_2645_" class="st9" points="858.8,542.4 718.3,623.4 718.5,627.3 862.3,544.3 						"/>
					</g>
				</g>
			</g>
			<g id="XMLID_2609_">
				<g id="XMLID_2610_">
					<g id="XMLID_2612_">
						<g id="XMLID_2615_">
							<polygon id="XMLID_2616_" class="st7" points="862.3,450.6 862.3,477.5 718.5,560.6 718.3,533.7 							"/>
						</g>
						<polygon id="XMLID_2614_" class="st8" points="862.3,477.5 858.8,475.6 858.8,452.6 862.3,450.6 						"/>
						<polygon id="XMLID_2613_" class="st9" points="858.8,475.6 718.3,556.7 718.5,560.6 862.3,477.5 						"/>
					</g>
				</g>
			</g>
			<g id="XMLID_2617_">
				<g id="XMLID_2650_">
					<g id="XMLID_2651_">
						<g id="XMLID_2654_">
							<polygon id="XMLID_2655_" class="st7" points="862.3,383.9 862.3,410.5 718.5,493.6 718.3,466.9 							"/>
						</g>
						<polygon id="XMLID_2653_" class="st8" points="862.3,410.5 858.8,408.6 858.8,385.8 862.3,383.9 						"/>
						<polygon id="XMLID_2652_" class="st9" points="858.8,408.6 718.3,489.7 718.5,493.6 862.3,410.5 						"/>
					</g>
				</g>
			</g>
		</g>
		<g id="XMLID_2663_">
			<g id="XMLID_2679_">
				<g id="XMLID_2683_">
					<g id="XMLID_2684_">
						<g id="XMLID_2687_">
							<polygon id="XMLID_2705_" class="st7" points="550.5,519.6 550.5,546.5 690.1,627.1 690.4,600.5 							"/>
						</g>
						<polygon id="XMLID_2686_" class="st8" points="550.5,546.5 553.8,544.5 553.8,521.5 550.5,519.6 						"/>
						<polygon id="XMLID_2685_" class="st9" points="553.8,544.5 690.4,623.2 690.1,627.1 550.5,546.5 						"/>
					</g>
				</g>
			</g>
			<g id="XMLID_2672_">
				<g id="XMLID_2673_">
					<g id="XMLID_2674_">
						<g id="XMLID_2677_">
							<polygon id="XMLID_2678_" class="st7" points="550.5,452.8 550.5,479.5 690.1,560.3 690.4,533.5 							"/>
						</g>
						<polygon id="XMLID_2676_" class="st8" points="550.5,479.5 553.8,477.5 553.8,454.8 550.5,452.8 						"/>
						<polygon id="XMLID_2675_" class="st9" points="553.8,477.5 690.4,556.4 690.1,560.3 550.5,479.5 						"/>
					</g>
				</g>
			</g>
			<g id="XMLID_2664_">
				<g id="XMLID_2665_">
					<g id="XMLID_2666_">
						<g id="XMLID_2670_">
							<polygon id="XMLID_2671_" class="st7" points="550.5,386 550.5,412.7 690.1,493.4 690.4,466.7 							"/>
						</g>
						<polygon id="XMLID_2669_" class="st8" points="550.5,412.7 553.8,410.7 553.8,388 550.5,386 						"/>
						<polygon id="XMLID_2667_" class="st9" points="553.8,410.7 690.4,489.5 690.1,493.4 550.5,412.7 						"/>
					</g>
				</g>
			</g>
		</g>
		<g id="XMLID_2913_">
			<g id="XMLID_2965_">
				<g id="XMLID_2984_">
					<polygon id="XMLID_2986_" class="st7" points="750.6,665.1 750.6,701.9 718.8,720.4 718.5,683.5 					"/>
				</g>
				<polygon id="XMLID_2967_" class="st8" points="750.6,701.9 746.1,699.1 746.1,667.7 750.6,665.1 				"/>
				<polygon id="XMLID_2966_" class="st9" points="746.1,699.1 718.5,714.9 718.8,720.4 750.6,701.9 				"/>
			</g>
			<g id="XMLID_2960_">
				<g id="XMLID_2963_">
					<polygon id="XMLID_2964_" class="st7" points="807.6,632.1 807.6,669 775.6,687.6 775.6,650.8 					"/>
				</g>
				<polygon id="XMLID_2962_" class="st8" points="807.6,669 802.9,666.4 802.9,634.9 807.6,632.1 				"/>
				<polygon id="XMLID_2961_" class="st9" points="802.9,666.4 775.3,682.2 775.6,687.6 807.6,669 				"/>
			</g>
			<g id="XMLID_2914_">
				<g id="XMLID_2917_">
					<polygon id="XMLID_2918_" class="st7" points="862.3,600.7 862.3,637.5 830.2,656 830.2,619.1 					"/>
				</g>
				<polygon id="XMLID_2916_" class="st8" points="862.3,637.5 857.5,634.7 857.5,603.3 862.3,600.7 				"/>
				<polygon id="XMLID_2915_" class="st9" points="857.5,634.7 830,650.5 830.2,656 862.3,637.5 				"/>
			</g>
		</g>
		<g id="XMLID_2988_">
			<g id="XMLID_3003_">
				<g id="XMLID_3006_">
					<polygon id="XMLID_3007_" class="st7" points="660,665.1 660,701.9 692.1,720.4 692.1,683.5 					"/>
				</g>
				<polygon id="XMLID_3005_" class="st8" points="660,701.9 664.8,699.1 664.8,667.7 660,665.1 				"/>
				<polygon id="XMLID_3004_" class="st9" points="664.8,699.1 692.3,714.9 692.1,720.4 660,701.9 				"/>
			</g>
			<g id="XMLID_2996_">
				<g id="XMLID_3001_">
					<polygon id="XMLID_3002_" class="st7" points="603.2,632.1 603.2,669 635.1,687.6 635.3,650.8 					"/>
				</g>
				<polygon id="XMLID_2999_" class="st8" points="603.2,669 607.7,666.4 607.7,634.9 603.2,632.1 				"/>
				<polygon id="XMLID_2997_" class="st9" points="607.7,666.4 635.3,682.2 635.1,687.6 603.2,669 				"/>
			</g>
			<g id="XMLID_2990_">
				<g id="XMLID_2994_">
					<polygon id="XMLID_2995_" class="st7" points="548.6,600.7 548.6,637.5 580.4,656 580.6,619.1 					"/>
				</g>
				<polygon id="XMLID_2993_" class="st8" points="548.6,637.5 553.1,634.7 553.1,603.3 548.6,600.7 				"/>
				<polygon id="XMLID_2992_" class="st9" points="553.1,634.7 580.6,650.5 580.4,656 548.6,637.5 				"/>
			</g>
		</g>
		<g id="XMLID_2706_">
			<g id="XMLID_2901_">
				<g id="XMLID_2907_">
					<g id="XMLID_2910_">
						<polygon id="XMLID_2911_" class="st7" points="779,331 779,367.8 747.2,386.5 746.9,349.6 						"/>
					</g>
					<polygon id="XMLID_2909_" class="st8" points="779,367.8 774.5,365.2 774.5,333.8 779,331 					"/>
					<polygon id="XMLID_2908_" class="st9" points="774.5,365.2 746.9,381 747.2,386.5 779,367.8 					"/>
				</g>
				<g id="XMLID_2902_">
					<g id="XMLID_2905_">
						<polygon id="XMLID_2906_" class="st7" points="833.7,299.5 833.7,336.4 801.8,354.8 801.6,318 						"/>
					</g>
					<polygon id="XMLID_2904_" class="st8" points="833.7,336.4 829.1,333.6 829.1,302.1 833.7,299.5 					"/>
					<polygon id="XMLID_2903_" class="st9" points="829.1,333.6 801.6,349.6 801.8,354.8 833.7,336.4 					"/>
				</g>
			</g>
		</g>
		<g id="XMLID_2707_">
			<g id="XMLID_2708_">
				<g id="XMLID_2721_">
					<g id="XMLID_2900_">
						<polygon id="XMLID_2912_" class="st7" points="633.3,331 633.3,367.8 665.4,386.5 665.4,349.6 						"/>
					</g>
					<polygon id="XMLID_2899_" class="st8" points="633.3,367.8 638.1,365.2 638.1,333.8 633.3,331 					"/>
					<polygon id="XMLID_2898_" class="st9" points="638.1,365.2 665.4,381 665.4,386.5 633.3,367.8 					"/>
				</g>
				<g id="XMLID_2709_">
					<g id="XMLID_2716_">
						<polygon id="XMLID_2719_" class="st7" points="578.7,299.5 578.7,336.4 610.8,354.8 610.8,318 						"/>
					</g>
					<polygon id="XMLID_2715_" class="st8" points="578.7,336.4 583.5,333.6 583.5,302.1 578.7,299.5 					"/>
					<polygon id="XMLID_2714_" class="st9" points="583.5,333.6 610.8,349.6 610.8,354.8 578.7,336.4 					"/>
				</g>
			</g>
		</g>
	</g>
	<g id="XMLID_3553_">
		<g id="XMLID_3617_">
			<g id="XMLID_3618_">
				<g id="XMLID_3619_" class="st0">
					<g id="XMLID_3624_">
						<polygon id="XMLID_3625_" class="st1" points="652.4,220.6 652.4,237.5 628.1,251.8 627.9,234.7 						"/>
					</g>
					<g id="XMLID_3622_">
						<polygon id="XMLID_3623_" class="st2" points="627.9,234.7 628.1,251.8 603.4,237.5 603.4,220.6 						"/>
					</g>
					<g id="XMLID_3620_">
						<polygon id="XMLID_3621_" class="st3" points="652.4,220.6 627.9,234.7 603.4,220.6 627.9,206.3 						"/>
					</g>
				</g>
			</g>
		</g>
		<g id="XMLID_3554_">
			<g id="XMLID_3611_">
				<g id="XMLID_3612_" class="st0">
					<g id="XMLID_3615_">
						<path id="XMLID_3616_" class="st10" d="M630.3,166.4l-0.2,53.1c0,0.2-0.2,0.7-0.7,0.9c-0.9,0.4-2.2,0.4-3,0
							c-0.4-0.2-0.7-0.7-0.7-0.9l0.2-53.1c0,0.4,0.2,0.7,0.7,0.9c0.9,0.4,2.2,0.4,3,0C630.1,167.1,630.3,166.6,630.3,166.4z"/>
					</g>
					<g id="XMLID_3613_">
						<path id="XMLID_3614_" class="st11" d="M629.6,165.3c0.9,0.4,0.9,1.3,0,1.7c-0.9,0.4-2.2,0.4-3,0c-0.9-0.4-0.9-1.3,0-1.7
							C627.5,164.9,628.8,164.9,629.6,165.3z"/>
					</g>
				</g>
			</g>
			<g id="XMLID_3555_">
				<path id="XMLID_3610_" class="st5" d="M638.3,160.3c0,5.6-4.6,10.2-10.2,10.2c-5.6,0-10.2-4.6-10.2-10.2c0-0.9,0-1.7,0.2-2.4
					c1.1-4.6,5.2-7.8,10-7.8c0.9,0,1.5,0,2.2,0.2C634.8,151.2,638.3,155.4,638.3,160.3z"/>
				<path id="XMLID_3609_" class="st4" d="M635.9,158.6c0,5-4.1,8.9-8.9,8.9c-5,0-8.9-4.1-8.9-8.9c0-0.2,0-0.4,0-0.7
					c1.1-4.6,5.2-7.8,10-7.8c0.9,0,1.5,0,2.2,0.2C633.5,151.4,635.9,154.7,635.9,158.6z"/>
				<circle id="XMLID_3556_" class="st12" cx="623.1" cy="157.1" r="2.4"/>
			</g>
		</g>
	</g>
</g>
<g id="XMLID_4585_">
	<g id="XMLID_153_">
		<polygon id="XMLID_154_" class="st2" points="415,445.9 425,440 425,443.9 415,449.6 		"/>
	</g>
	<g id="XMLID_151_">
		<polygon id="XMLID_152_" class="st2" points="395.3,461 395.3,457.1 405,451.5 405,455.2 		"/>
	</g>
	<g id="XMLID_149_">
		<polygon id="XMLID_150_" class="st2" points="375.3,472.5 375.3,468.6 385.3,463 385.3,466.7 		"/>
	</g>
	<g id="XMLID_147_">
		<polygon id="XMLID_148_" class="st2" points="355.6,483.8 355.6,480.1 365.4,474.5 365.4,478.2 		"/>
	</g>
	<g id="XMLID_145_">
		<polygon id="XMLID_146_" class="st2" points="494.4,399.9 504.3,394.3 504.3,398 494.4,403.8 		"/>
	</g>
	<g id="XMLID_143_">
		<polygon id="XMLID_144_" class="st2" points="474.6,415.1 474.6,411.4 484.6,405.5 484.6,409.4 		"/>
	</g>
	<g id="XMLID_141_">
		<polygon id="XMLID_142_" class="st2" points="454.7,426.6 454.7,422.9 464.7,417 464.7,420.9 		"/>
	</g>
	<g id="XMLID_139_">
		<polygon id="XMLID_140_" class="st2" points="435,438.1 435,434.2 444.9,428.5 444.9,432.4 		"/>
	</g>
	<g id="XMLID_137_">
		<polygon id="XMLID_138_" class="st2" points="335.7,495.3 335.7,491.6 345.6,485.8 345.6,489.7 		"/>
	</g>
	<g id="XMLID_135_">
		<polygon id="XMLID_136_" class="st2" points="315.9,506.8 315.9,503.1 325.7,497.3 325.7,501.2 		"/>
	</g>
	<g id="XMLID_133_">
		<polygon id="XMLID_134_" class="st2" points="296,518.3 296,514.4 306,508.7 306,512.6 		"/>
	</g>
	<g id="XMLID_131_">
		<polygon id="XMLID_132_" class="st2" points="276.2,529.8 276.2,525.9 286,520.2 286,523.9 		"/>
	</g>
	<g id="XMLID_129_">
		<polygon id="XMLID_130_" class="st2" points="256.3,541.3 256.3,537.4 266.3,531.7 266.3,535.4 		"/>
	</g>
</g>
<g id="XMLID_3578_">
	<g id="XMLID_3669_">
		<path id="XMLID_3670_" class="st2" d="M631.8,131.9h-4.6v-11.7h4.6V131.9z M631.8,108.7h-4.6V97h4.6V108.7z M631.8,85.3h-4.6V73.6
			h4.6V85.3z M631.8,62.1h-4.6V50.4h4.6V62.1z M631.8,38.7h-4.6V27h4.6V38.7z"/>
	</g>
	<g id="XMLID_3579_">
		<g id="XMLID_3626_">
			<polygon id="XMLID_3627_" class="st2" points="654.6,38.1 654.6,34.2 644.6,28.5 644.6,32.2 			"/>
		</g>
		<g id="XMLID_3590_">
			<polygon id="XMLID_3591_" class="st2" points="674.5,49.3 674.5,45.6 664.6,39.8 664.6,43.7 			"/>
		</g>
		<g id="XMLID_3588_">
			<polygon id="XMLID_3589_" class="st2" points="694.3,60.8 694.3,57.1 684.3,51.3 684.3,55.2 			"/>
		</g>
		<g id="XMLID_3586_">
			<polygon id="XMLID_3587_" class="st2" points="714.2,72.3 714.2,68.6 704.2,62.8 704.2,66.7 			"/>
		</g>
	</g>
	<g id="XMLID_3628_">
		<g id="XMLID_3649_">
			<polygon id="XMLID_3653_" class="st2" points="735.9,84.7 735.9,80.8 726.1,75.1 726.1,78.8 			"/>
		</g>
		<g id="XMLID_3646_">
			<polygon id="XMLID_3647_" class="st2" points="755.8,95.9 755.8,92.3 745.9,86.4 745.9,90.3 			"/>
		</g>
		<g id="XMLID_3644_">
			<polygon id="XMLID_3645_" class="st2" points="775.6,107.4 775.6,103.7 765.8,97.9 765.8,101.8 			"/>
		</g>
		<g id="XMLID_3632_">
			<polygon id="XMLID_3643_" class="st2" points="795.5,118.9 795.5,115 785.5,109.4 785.5,113.3 			"/>
		</g>
	</g>
</g>
<g id="XMLID_3576_">
	<polygon id="XMLID_3577_" class="st13" points="862.7,57.6 862.7,144.9 750.4,210.4 750.4,123 	"/>
</g>
<g id="XMLID_3574_">
	<polygon id="XMLID_3575_" class="st14" points="750.4,123 750.4,210.4 735.2,202 735.2,114.6 	"/>
</g>
<g id="XMLID_3572_">
	<polygon id="XMLID_3573_" class="st15" points="862.7,57.6 750.2,123 735.2,114.6 848,49.1 	"/>
</g>
<polygon id="XMLID_3666_" class="st14" points="750.2,123 813.1,174 862.7,57.6 "/>
<g id="XMLID_218_">
	<polygon id="XMLID_219_" class="st16" points="233.3,388.6 233.3,687.4 213.4,699.1 212.9,400.6 	"/>
</g>
<g id="XMLID_216_">
	<polygon id="XMLID_217_" class="st7" points="212.9,400.6 213.4,699.1 183.9,682.4 183.9,383.9 	"/>
</g>
<g id="XMLID_214_">
	<polygon id="XMLID_215_" class="st17" points="233.3,388.6 212.9,400.6 183.9,383.9 204.5,371.9 	"/>
</g>
<g id="XMLID_208_">
	<polygon id="XMLID_209_" class="st16" points="193.9,455.6 193.9,711.9 173.9,723.6 173.5,467.6 	"/>
</g>
<g id="XMLID_206_">
	<polygon id="XMLID_207_" class="st7" points="173.5,467.6 173.9,723.6 144.4,706.9 144.4,450.6 	"/>
</g>
<g id="XMLID_204_">
	<polygon id="XMLID_205_" class="st17" points="193.9,455.6 173.5,467.6 144.4,450.6 165,438.9 	"/>
</g>
<g id="XMLID_198_">
	<polygon id="XMLID_199_" class="st16" points="147.2,523.3 147.2,736.8 127.1,748.5 126.7,535 	"/>
</g>
<g id="XMLID_196_">
	<polygon id="XMLID_197_" class="st7" points="126.7,535 127.3,748.5 97.8,731.8 97.8,518.3 	"/>
</g>
<g id="XMLID_194_">
	<polygon id="XMLID_195_" class="st17" points="147.2,523.1 126.7,535 97.8,518.3 118.4,506.4 	"/>
</g>
<g id="XMLID_189_">
	<polygon id="XMLID_190_" class="st16" points="107.8,590 107.8,761.3 87.6,773 87.6,601.8 	"/>
</g>
<g id="XMLID_187_">
	<polygon id="XMLID_188_" class="st7" points="87.6,601.8 87.6,773 58.4,756.3 58.4,585.1 	"/>
</g>
<g id="XMLID_185_">
	<polygon id="XMLID_186_" class="st17" points="107.8,589.8 87.2,601.8 58.4,585.1 79,573.1 	"/>
</g>
<g id="XMLID_128_">
	<g id="XMLID_2921_">
		<g id="XMLID_1503_">
			<g id="XMLID_1158_">
				<g id="XMLID_1159_">
					<g id="XMLID_1160_" class="st0">
						<g id="XMLID_1165_">
							<polygon id="XMLID_1166_" class="st1" points="1137,725.8 1137,811 942.9,923.5 942.9,838.3 							"/>
						</g>
						<g id="XMLID_1163_">
							<polygon id="XMLID_1164_" class="st2" points="942.9,838.3 942.9,923.5 788.1,834.2 788.1,749 							"/>
						</g>
						<g id="XMLID_1161_">
							<polygon id="XMLID_1162_" class="st3" points="1137,725.8 942.9,838.3 787.7,749 981.7,636.4 							"/>
						</g>
					</g>
				</g>
			</g>
			<g id="XMLID_1157_">
				<g id="XMLID_565_">
					<g id="XMLID_568_">
						<g id="XMLID_569_" class="st0">
							<g id="XMLID_574_">
								<polygon id="XMLID_575_" class="st1" points="1141.7,704.1 1141.7,722.7 942.9,838.5 942.9,819.6 								"/>
							</g>
							<g id="XMLID_572_">
								<polygon id="XMLID_573_" class="st2" points="942.9,819.6 942.9,838.5 782.9,746.2 782.9,727.5 								"/>
							</g>
							<g id="XMLID_570_">
								<polygon id="XMLID_571_" class="st3" points="1141.7,704.1 942.7,819.6 782.9,727.5 982,611.7 								"/>
							</g>
						</g>
					</g>
				</g>
				<g id="XMLID_555_">
					<polygon id="XMLID_585_" class="st12" points="1122.9,704.1 942.5,808.6 801.8,727.5 982.2,622.8 					"/>
				</g>
				<polygon id="XMLID_586_" class="st5" points="982.2,622.8 982.2,636.2 1111.4,710.8 1122.9,704.1 				"/>
				<polygon id="XMLID_588_" class="st4" points="801.8,727.5 982.2,622.8 982.2,636.2 813.1,733.6 				"/>
			</g>
		</g>
		<g id="XMLID_2920_">
			<g id="XMLID_2943_">
				<g id="XMLID_2945_">
					<polygon id="XMLID_2959_" class="st2" points="982.2,657.3 1000.2,667.7 1000.2,660.7 982.2,650.3 					"/>
					<polygon id="XMLID_2958_" class="st1" points="982.2,650.3 982.2,657.3 958.1,671.1 958.1,664.2 					"/>
					<g id="XMLID_2954_">
						<g id="XMLID_2955_" class="st0">
							<g id="XMLID_2956_">
								<polygon id="XMLID_2957_" class="st1" points="1012.1,660.3 1012.1,671.1 982.2,688.5 982.2,677.6 								"/>
							</g>
						</g>
					</g>
					<g id="XMLID_2950_">
						<g id="XMLID_2951_" class="st0">
							<g id="XMLID_2952_">
								<polygon id="XMLID_2953_" class="st2" points="952.3,660.3 952.3,671.1 982.2,688.5 982.2,677.6 								"/>
							</g>
						</g>
					</g>
					<path id="XMLID_2947_" class="st3" d="M982.2,643.2l-29.9,17.3l29.9,17.3l29.9-17.3L982.2,643.2z M964.2,660.7l18-10.4l18,10.4
						l-18,10.4L964.2,660.7z"/>
					<polygon id="XMLID_2946_" class="st7" points="982.2,657.3 970,664.2 982.2,671.1 994.3,664.2 					"/>
				</g>
			</g>
		</g>
		<g id="XMLID_3008_">
			<g id="XMLID_3017_">
				<g id="XMLID_3027_" class="st0">
					<g id="XMLID_3032_">
						<polygon id="XMLID_3033_" class="st5" points="910.4,891.2 754.3,800.8 777.5,754.2 933.8,844.6 						"/>
					</g>
					<g id="XMLID_3030_">
						<polygon id="XMLID_3031_" class="st12" points="933.8,844.6 777.5,754.2 786.8,749 942.9,839.4 						"/>
					</g>
					<g id="XMLID_3028_">
						<polygon id="XMLID_3029_" class="st4" points="942.9,839.4 942.9,872.3 910.4,891.2 933.8,844.6 						"/>
					</g>
				</g>
				<g id="XMLID_3018_">
					<g id="XMLID_3025_">
						<polygon id="XMLID_3026_" class="st18" points="777.3,814.2 765.8,807.3 789,760.9 800.7,767.6 						"/>
					</g>
					<polygon id="XMLID_3024_" class="st18" points="801.6,828.3 790.1,821.6 813.5,775 825,781.7 					"/>
					<polygon id="XMLID_3023_" class="st18" points="826.1,842.4 814.6,835.7 838,789.1 849.5,795.8 					"/>
					<polygon id="XMLID_3022_" class="st18" points="850.6,856.5 839.1,849.8 862.3,803.2 874,809.9 					"/>
					<polygon id="XMLID_3021_" class="st18" points="875.1,870.6 863.4,863.9 886.8,817.5 898.3,824.2 					"/>
					<g id="XMLID_3019_">
						<polygon id="XMLID_3020_" class="st18" points="899.4,884.7 887.9,878 911.3,831.6 922.8,838.3 						"/>
					</g>
				</g>
			</g>
			<polygon id="XMLID_3016_" class="st3" points="920.4,826.2 911.3,831.6 922.8,838.3 931.9,832.9 			"/>
			<polygon id="XMLID_3015_" class="st3" points="895.9,812.1 886.8,817.5 898.3,824.2 907.6,818.8 			"/>
			<polygon id="XMLID_3014_" class="st3" points="871.6,798 862.3,803.2 874,809.9 883.1,804.7 			"/>
			<polygon id="XMLID_3013_" class="st3" points="847.1,783.9 838,789.1 849.5,795.8 858.6,790.6 			"/>
			<polygon id="XMLID_3012_" class="st3" points="822.6,769.8 813.5,775 825,781.7 834.3,776.3 			"/>
			<polygon id="XMLID_3011_" class="st3" points="798.3,755.5 789,760.9 800.7,767.6 809.8,762.2 			"/>
		</g>
		<g id="XMLID_3009_">
			<g id="XMLID_3043_">
				<g id="XMLID_3046_">
					<polygon id="XMLID_3047_" class="st7" points="1021.4,821.4 1021.4,858.2 973.1,886.2 972.9,849.4 					"/>
				</g>
				<polygon id="XMLID_3045_" class="st8" points="1021.4,858.2 1016.9,855.4 1016.9,824 1021.4,821.4 				"/>
				<polygon id="XMLID_3044_" class="st9" points="1016.9,855.4 972.9,880.8 973.1,886.2 1021.4,858.2 				"/>
			</g>
			<g id="XMLID_3034_">
				<g id="XMLID_3037_">
					<polygon id="XMLID_3048_" class="st7" points="1117.9,765.7 1117.9,802.5 1069.5,830.5 1069.3,793.6 					"/>
				</g>
				<polygon id="XMLID_3036_" class="st8" points="1117.9,802.5 1113.3,799.7 1113.3,768.3 1117.9,765.7 				"/>
				<polygon id="XMLID_3035_" class="st9" points="1113.3,799.7 1069.3,825.1 1069.5,830.5 1117.9,802.5 				"/>
			</g>
			<g id="XMLID_3038_">
				<g id="XMLID_3041_">
					<polygon id="XMLID_3042_" class="st7" points="1062,798 1062,834.8 1029.9,853.3 1029.9,816.4 					"/>
				</g>
				<polygon id="XMLID_3040_" class="st8" points="1062,834.8 1057.2,832.2 1057.2,800.6 1062,798 				"/>
				<polygon id="XMLID_3039_" class="st9" points="1057.2,832.2 1029.7,848.1 1029.9,853.3 1062,834.8 				"/>
			</g>
		</g>
	</g>
	<g id="XMLID_3580_">
		<g id="XMLID_3600_">
			<g id="XMLID_3601_">
				<g id="XMLID_3602_" class="st0">
					<g id="XMLID_3607_">
						<polygon id="XMLID_3608_" class="st1" points="1070.2,696.5 1070.4,713.4 1045.9,727.7 1045.9,710.6 						"/>
					</g>
					<g id="XMLID_3605_">
						<polygon id="XMLID_3606_" class="st2" points="1045.9,710.6 1045.9,727.7 1021.4,713.4 1021.2,696.5 						"/>
					</g>
					<g id="XMLID_3603_">
						<polygon id="XMLID_3604_" class="st3" points="1070.2,696.5 1045.9,710.6 1021.2,696.5 1045.7,682.2 						"/>
					</g>
				</g>
			</g>
		</g>
		<g id="XMLID_3581_">
			<g id="XMLID_3594_">
				<g id="XMLID_3595_" class="st0">
					<g id="XMLID_3598_">
						<path id="XMLID_3599_" class="st10" d="M1048.3,642.3l-0.2,53.1c0,0.2-0.2,0.7-0.7,0.9c-0.9,0.4-2.2,0.4-3,0
							c-0.4-0.2-0.7-0.7-0.7-0.9l0.2-53.1c0,0.4,0.2,0.7,0.7,0.9c0.9,0.4,2.2,0.4,3,0C1048.1,642.7,1048.3,642.5,1048.3,642.3z"/>
					</g>
					<g id="XMLID_3596_">
						<path id="XMLID_3597_" class="st11" d="M1047.6,641.2c0.9,0.4,0.9,1.3,0,1.7s-2.2,0.4-3,0c-0.9-0.4-0.9-1.3,0-1.7
							C1045.3,640.8,1046.8,640.8,1047.6,641.2z"/>
					</g>
				</g>
			</g>
			<g id="XMLID_3584_">
				<path id="XMLID_3593_" class="st5" d="M1056.1,636.2c0,5.6-4.6,10.2-10.2,10.2s-10.2-4.6-10.2-10.2c0-0.9,0-1.7,0.2-2.4
					c1.1-4.6,5.2-7.8,10-7.8c0.9,0,1.5,0,2.2,0.2C1052.9,627.1,1056.1,631.2,1056.1,636.2z"/>
				<path id="XMLID_3592_" class="st4" d="M1053.9,634.5c0,5-4.1,8.9-8.9,8.9c-5,0-8.9-4.1-8.9-8.9c0-0.2,0-0.4,0-0.7
					c1.1-4.6,5.2-7.8,10-7.8c0.9,0,1.5,0,2.2,0.2C1051.6,627.3,1053.9,630.6,1053.9,634.5z"/>
				<circle id="XMLID_3585_" class="st12" cx="1040.9" cy="633" r="2.4"/>
			</g>
		</g>
	</g>
</g>
<g id="XMLID_120_">
	<g id="XMLID_121_">
		<path id="XMLID_122_" class="st2" d="M1049,613.9h-4.6v-11.7h4.6V613.9z M1049,590.5h-4.6v-11.7h4.6V590.5z M1049,567.3h-4.6
			v-11.7h4.6V567.3z M1049,543.9h-4.6v-11.7h4.6V543.9z M1049,520.7h-4.6V509h4.6V520.7z"/>
	</g>
</g>
<g id="XMLID_118_">
	<path id="XMLID_119_" class="st19" d="M1034.6,449.8l8.7-5c-1.7,1.1-3,2.6-4.1,4.6c-0.2,0.7-0.7,1.1-1.3,1.5l-8.7,5
		c0.4-0.2,0.9-0.9,1.3-1.5C1031.4,452.4,1032.9,450.9,1034.6,449.8z"/>
</g>
<g id="XMLID_116_">
	<path id="XMLID_117_" class="st2" d="M1019.7,411.6l8.7-5c-3.5,2-6.5,5.2-8.5,9.5c-0.2,0.7-0.7,1.1-1.3,1.3l-8.7,5
		c0.4-0.2,0.9-0.9,1.3-1.3C1013.2,416.8,1016,413.8,1019.7,411.6z"/>
</g>
<path id="XMLID_115_" class="st2" d="M1057.2,460.2c-2.8-1.5-5.2-1.7-6.9-0.7l-8.7,5c1.7-1.1,4.3-0.9,6.9,0.7
	c5.4,3,9.8,10.6,9.8,16.9c0,3-1.1,5.2-2.8,6.3l8.7-5c1.7-1.1,2.8-3.3,2.8-6.3C1066.9,470.8,1062.6,463.2,1057.2,460.2z"/>
<g id="XMLID_113_">
	<path id="XMLID_114_" class="st20" d="M1048.5,465.2c5.4,3,9.8,10.6,9.8,16.9c0,6.3-4.3,8.7-9.8,5.6s-9.8-10.6-9.8-16.9
		C1038.8,464.7,1043.1,462.1,1048.5,465.2z"/>
</g>
<g id="XMLID_111_">
	<path id="XMLID_112_" class="st20" d="M1048.7,437.2c12.8,7.4,24.3,22.5,29.3,39c1.3,4.3,0,7.6-3.3,7.4c-0.9,0-1.5-0.4-2.4-0.9
		c-2.4-1.3-4.6-4.3-5.6-7.4c-3-10.2-10.2-19.5-18-24.1c-7.8-4.6-15-3.3-18.2,3.3c-1.1,2.2-3.3,2.4-5.6,1.1c-0.9-0.4-1.7-1.1-2.4-2
		c-3-3.3-4.6-8.2-3-11.1C1024.5,431.8,1035.9,429.8,1048.7,437.2z"/>
</g>
<path id="XMLID_110_" class="st2" d="M1086.5,471.2c-5-16.3-16.5-31.7-29.3-39c-8.7-5-16.9-5.6-22.8-2.2l-8.7,5
	c5.9-3.5,14.1-2.8,22.8,2.2c12.8,7.4,24.3,22.5,29.3,39c1.1,3.3,0.4,6.1-1.3,6.9l8.7-5C1086.9,477.1,1087.5,474.5,1086.5,471.2z"/>
<path id="XMLID_109_" class="st2" d="M1106,460.2c-8.5-27.1-27.5-52.7-48.6-64.8c-14.5-8.2-28-9.3-37.7-3.7l-8.7,5
	c9.8-5.6,23.4-4.6,37.7,3.7c21.2,12.1,40.3,37.7,48.6,64.8c1.1,3.3,0.4,6.1-1.3,6.9l8.7-5C1106.4,466.3,1107.1,463.7,1106,460.2z"/>
<g id="XMLID_107_">
	<path id="XMLID_108_" class="st20" d="M1048.7,400.3c21.2,12.1,40.3,37.7,48.6,64.8c1.3,4.3,0,7.6-3.3,7.4c-0.9,0-1.5-0.4-2.4-0.9
		c-2.4-1.3-4.6-4.3-5.6-7.4c-6.5-21-21.2-40.5-37.5-49.9s-31-6.7-37.5,6.7c-1.1,2-3.3,2.4-5.6,1.1c-0.9-0.4-1.7-1.1-2.4-2
		c-3-3.3-4.6-8.2-3-11.1C1008.4,391.7,1027.5,388.2,1048.7,400.3z"/>
</g>
</svg>
