<?xml version="1.0" encoding="utf-8"?>
<!-- Generator: Adobe Illustrator 21.0.2, SVG Export Plug-In . SVG Version: 6.00 Build 0)  -->
<svg version="1.1" id="Layer_1" xmlns="http://www.w3.org/2000/svg" xmlns:xlink="http://www.w3.org/1999/xlink" x="0px" y="0px"
	 viewBox="0 0 112 50" style="enable-background:new 0 0 112 50;" xml:space="preserve">
<style type="text/css">
	.st0{fill:#232021;}
</style>
<g>
	<g>
		<path class="st0" d="M17.3,14.7h1.2l1.1-4.9l3.7-0.5l-1.2,5.4h2.7L24.5,16h-2.8l-2.3,10.7c0,0.2-0.1,0.4-0.2,0.7
			c-0.1,0.3-0.1,0.6-0.1,0.8c0,0.4,0.1,0.8,0.3,1.1c0.2,0.3,0.5,0.5,1.1,0.5c0.6,0,1.3-0.3,2-1c0.7-0.7,1.3-1.6,1.9-2.8h1.3
			c-0.6,1.3-1.2,2.4-1.8,3.2c-0.6,0.8-1.2,1.5-1.8,2c-0.6,0.5-1.1,0.8-1.6,1c-0.5,0.2-1,0.3-1.4,0.3c-0.7,0-1.2-0.1-1.6-0.3
			c-0.4-0.2-0.8-0.5-1-0.9c-0.2-0.4-0.4-0.8-0.5-1.3c-0.1-0.5-0.2-1-0.2-1.5c0-0.4,0-0.9,0.1-1.4c0.1-0.5,0.1-0.9,0.2-1.2L18.3,16
			h-1.2L17.3,14.7z"/>
		<path class="st0" d="M30.4,14.7l-0.6,2.9c0.3-0.4,0.7-0.7,1-1.1c0.4-0.4,0.7-0.7,1.1-1c0.4-0.3,0.8-0.5,1.2-0.7
			c0.4-0.2,0.9-0.3,1.4-0.3c0.7,0,1.2,0.2,1.5,0.5c0.3,0.3,0.5,0.7,0.5,1.2c0,0.4-0.1,0.8-0.2,1.1c-0.2,0.3-0.3,0.5-0.5,0.7
			c-0.2,0.2-0.4,0.3-0.7,0.4c-0.2,0.1-0.4,0.1-0.6,0.1c-0.2,0-0.4,0-0.5-0.1c-0.1-0.1-0.2-0.2-0.3-0.3c-0.1-0.1-0.2-0.2-0.4-0.3
			c-0.1-0.1-0.3-0.1-0.6-0.1c-0.5,0-1.1,0.2-1.6,0.5c-0.6,0.4-1.1,0.8-1.6,1.2l-2.8,13h-3.5l3.7-17.7H30.4z"/>
		<path class="st0" d="M51.8,14.7l-2.6,12c-0.1,0.5-0.2,1-0.2,1.6c0,0.4,0.1,0.8,0.2,1.1c0.1,0.3,0.4,0.5,0.9,0.5
			c0.6,0,1.1-0.3,1.7-1c0.6-0.7,1.1-1.6,1.6-2.8h1.3c-0.6,1.5-1.1,2.7-1.7,3.5c-0.6,0.9-1.1,1.5-1.6,2c-0.5,0.4-1,0.7-1.5,0.9
			c-0.5,0.1-0.9,0.2-1.3,0.2c-0.8,0-1.4-0.3-1.9-0.8c-0.5-0.5-0.8-1.4-0.9-2.6c-0.5,1-1.3,1.8-2.2,2.5c-1,0.7-2,1-3.1,1
			c-0.6,0-1.1-0.1-1.7-0.3c-0.5-0.2-1-0.5-1.4-1c-0.4-0.5-0.8-1-1-1.8c-0.3-0.7-0.4-1.6-0.4-2.6c0-0.8,0.1-1.7,0.3-2.6
			c0.2-0.9,0.4-1.8,0.8-2.8c0.3-0.9,0.8-1.8,1.3-2.6c0.5-0.8,1.1-1.6,1.8-2.2c0.7-0.6,1.4-1.2,2.2-1.6c0.8-0.4,1.7-0.6,2.7-0.6
			c0.6,0,1.1,0.1,1.7,0.4c0.6,0.3,1,0.8,1.2,1.5l0.4-1.7H51.8z M41.9,29.9c0.4,0,0.8-0.1,1.2-0.3c0.4-0.2,0.8-0.5,1.1-0.8
			c0.4-0.3,0.7-0.7,1-1.2c0.3-0.5,0.5-1,0.6-1.5l1.7-8c-0.1-0.4-0.2-0.8-0.5-1.1c-0.3-0.3-0.7-0.5-1.2-0.5c-1,0-1.8,0.4-2.6,1.1
			c-0.8,0.7-1.4,1.6-1.9,2.6c-0.5,1-0.9,2.1-1.2,3.2s-0.4,2.2-0.4,3c0,1.3,0.2,2.3,0.6,2.8C40.7,29.7,41.2,29.9,41.9,29.9z"/>
		<path class="st0" d="M59.7,13.4l-0.6,2.7c0.5-0.5,1.1-0.9,1.8-1.1c0.7-0.3,1.4-0.4,2.2-0.4c0.6,0,1.2,0.1,1.7,0.3
			c0.5,0.2,1,0.6,1.3,1c0.4,0.5,0.7,1.1,0.9,1.8s0.3,1.7,0.3,2.7c0,0.8-0.1,1.6-0.2,2.5c-0.1,0.9-0.3,1.8-0.6,2.7s-0.6,1.8-1,2.6
			c-0.4,0.8-1,1.6-1.6,2.2c-0.6,0.6-1.4,1.2-2.2,1.6c-0.8,0.4-1.8,0.6-2.9,0.6c-0.6,0-1.2-0.2-1.6-0.5c-0.5-0.3-0.9-0.7-1.2-1.3
			l-2,9.5l-3.7,0.9l5.9-27.8H59.7z M61.4,16.9c-0.5,0-1,0.2-1.5,0.5c-0.5,0.3-0.9,0.7-1.3,1.3l-2.3,10.5c0.3,0.4,0.6,0.8,0.9,1
			c0.4,0.2,0.7,0.3,1,0.3c1.1,0,1.9-0.4,2.6-1.1c0.7-0.7,1.3-1.6,1.7-2.6c0.4-1,0.7-2.1,0.9-3.2c0.2-1.1,0.3-2.1,0.3-2.9
			c0-0.7-0.1-1.3-0.2-1.8c-0.1-0.5-0.3-0.8-0.6-1.1c-0.2-0.3-0.5-0.5-0.8-0.6C62,16.9,61.7,16.9,61.4,16.9z"/>
		<path class="st0" d="M74.4,14.7l-2.6,12c-0.1,0.4-0.1,0.8-0.1,1.2c0,0.7,0.2,1.2,0.5,1.5c0.3,0.3,0.7,0.5,1.1,0.5
			c0.3,0,0.6-0.1,1-0.2c0.4-0.2,0.7-0.4,1-0.7c0.3-0.3,0.6-0.7,0.9-1.2c0.3-0.5,0.5-1.1,0.6-1.7l2.4-11.3h3.5l-4.3,20.5
			c-0.3,1.3-0.5,2.3-0.9,3.1c-0.3,0.8-0.7,1.4-1.1,1.8c-0.4,0.4-0.8,0.7-1.3,0.9c-0.5,0.2-1,0.2-1.6,0.2c-1.1,0-2-0.2-2.8-0.7
			c-0.8-0.5-1.1-1.3-1.1-2.5c0-0.6,0.2-1.1,0.5-1.6c0.3-0.5,0.8-1,1.3-1.4c0.5-0.4,1.1-0.8,1.8-1.2s1.3-0.7,2-0.9l0.5-2.2
			c-0.6,0.7-1.2,1.2-1.9,1.5s-1.3,0.5-1.9,0.5c-0.5,0-1-0.1-1.5-0.3c-0.5-0.2-0.9-0.5-1.2-0.9c-0.4-0.4-0.6-0.9-0.8-1.5
			c-0.2-0.6-0.3-1.2-0.3-2c0-0.6,0.1-1.2,0.2-1.8l2.4-11.3H74.4z M72.4,39.4c0.7,0,1.2-0.4,1.5-1.1s0.7-1.7,0.9-3l0.2-1.1
			c-1.3,0.6-2.3,1.2-3,1.9c-0.7,0.7-1,1.3-1,2c0,0.4,0.1,0.7,0.3,1C71.6,39.3,72,39.4,72.4,39.4z M94,29.4c-0.1,0-0.3-0.2-0.3-0.3
			c-0.1-0.2-0.1-0.3-0.1-0.4c0-0.4,0.2-0.8,0.6-1c0.4-0.2,0.8-0.4,1.2-0.4c0.4,0,0.8,0.1,1.1,0.4c0.3,0.3,0.5,0.7,0.5,1.3
			c0,0.4-0.1,0.8-0.4,1.1c-0.2,0.4-0.6,0.7-1,1.1c-0.4,0.3-0.9,0.6-1.5,0.8s-1.2,0.3-1.9,0.3h-8.9l9-15.7h-2.7c-0.5,0-1,0-1.5,0.1
			c-0.4,0.1-0.7,0.2-0.7,0.5c0,0.2,0.1,0.3,0.2,0.5c0.1,0.1,0.2,0.3,0.2,0.5c0,0.3-0.2,0.5-0.5,0.8c-0.4,0.3-0.8,0.4-1.3,0.4
			c-1,0-1.5-0.7-1.5-2.1c0-0.4,0.1-0.7,0.2-1c0.1-0.3,0.4-0.6,0.7-0.8c0.3-0.2,0.7-0.4,1.3-0.5c0.5-0.1,1.2-0.2,2-0.2H97l-8.8,15.2
			c0.1,0,0.4,0,0.8,0s0.8,0,1.2,0.1c0.4,0,0.8,0,1.3,0.1c0.4,0,0.7,0,1,0c0.4,0,0.8-0.1,1.1-0.2C93.7,29.8,93.9,29.6,94,29.4z"/>
	</g>
</g>
</svg>
