<?xml version="1.0" encoding="utf-8"?>
<!-- Generator: Adobe Illustrator 21.0.2, SVG Export Plug-In . SVG Version: 6.00 Build 0)  -->
<svg version="1.1" id="Layer_1" xmlns="http://www.w3.org/2000/svg" xmlns:xlink="http://www.w3.org/1999/xlink" x="0px" y="0px"
	 viewBox="0 0 700 1000" style="enable-background:new 0 0 700 1000;" xml:space="preserve">
<style type="text/css">
	.st0{fill:#00ACFF;}
	.st1{fill:#0073FF;}
	.st2{fill:#00E4FF;}
	.st3{fill:#FFFFFF;}
	.st4{fill:#D1E9F5;}
	.st5{enable-background:new    ;}
	.st6{fill:#B2D235;}
	.st7{fill:#FFF200;}
	.st8{fill:#FFE640;}
	.st9{fill:#FCC20D;}
</style>
<polygon class="st0" points="171.7,40.2 630.7,304.5 630.7,605.1 171.7,340.7 "/>
<path class="st0" d="M177.4,960.3l14.5-8.4c1.4-0.8,2.3-2.3,2.3-3.9V730c0-1.6-0.9-3.1-2.3-3.9L90.2,667.4c-1.4-0.8-3.1-0.8-4.6,0
	l-14.5,8.4l0,0l0,0c-1.4,0.8-2.3,2.3-2.3,3.9v218c0,1.6,0.9,3.1,2.3,3.9l101.7,58.7"/>
<polygon class="st1" points="88,676.5 180.6,730 175.1,733.1 82.6,679.6 "/>
<polygon class="st2" points="170.6,763.9 78,710.5 78,687.5 170.6,741 "/>
<polygon class="st3" points="78,721 170.6,774.4 170.6,915 78,861.5 "/>
<polygon class="st2" points="78,895.1 78,872 170.6,925.5 170.6,948.5 "/>
<polygon class="st1" points="179.7,948.5 179.7,741 185.1,737.8 185.1,945.4 "/>
<path class="st1" d="M114.8,910.5l14.5,8.4c0.7,0.4,1.5,0.6,2.3,0.6c1.6,0,3.1-0.8,3.9-2.3c1.3-2.2,0.5-5-1.7-6.2l-14.5-8.4
	c-2.2-1.3-5-0.5-6.2,1.7C111.8,906.5,112.6,909.3,114.8,910.5z"/>
<polygon class="st2" points="149.7,50.2 608.7,314.5 608.7,615.1 149.7,350.7 "/>
<polygon class="st3" points="167.7,87.9 329.7,181.5 329.7,427.3 167.7,333.8 "/>
<polygon class="st3" points="379.7,211.9 498.7,280.5 498.7,307.3 379.7,238.8 "/>
<polygon class="st3" points="379.7,261.9 572.7,373.5 572.7,387.3 379.7,275.8 "/>
<polygon class="st3" points="379.7,291.9 572.7,403.5 572.7,417.3 379.7,305.8 "/>
<polygon class="st3" points="379.7,321.9 572.7,433.5 572.7,447.3 379.7,335.8 "/>
<polygon class="st3" points="379.7,407.9 496.7,475.5 496.7,523.3 379.7,455.8 "/>
<g>
	<path class="st1" d="M195.4,218.1l5.1,2.4c0.5,3.3,4,7,8.9,9.3c5.6,2.6,9.3,1.8,9.3-2.1s-3.7-8.3-9.2-10.9
		c-3.8-1.8-6.9-2.1-8.6-0.8l-4.9-2.3l2.3-15.1l23.2,10.9v3.2l-19.1-9l-1.2,8.6l0.5,0.2c2-0.7,5-0.1,8.8,1.7
		c7.9,3.7,13.4,10.2,13.4,15.8c0,5.8-5.9,6.9-14.5,2.9C201.5,229.2,195.9,223.2,195.4,218.1z"/>
	<path class="st1" d="M231.4,228.3c0-9.4,5.4-12.3,14.7-8c9.2,4.3,14.7,12.4,14.7,21.8s-5.4,12.3-14.7,7.9
		C236.8,245.8,231.4,237.8,231.4,228.3z M255.6,239.7c0-7.5-3.4-13.4-9.5-16.2c-6.1-2.9-9.5-0.2-9.5,7.3c0,7.6,3.4,13.4,9.5,16.3
		C252.3,249.9,255.6,247.3,255.6,239.7z"/>
	<path class="st1" d="M275.8,248.2c-5.2-2.4-8.9-7-8.9-11s3.7-5.1,8.9-2.7s8.8,7,8.8,11C284.7,249.5,281,250.7,275.8,248.2z
		 M270.1,260.7l15.9-7.4l14.6-6.8l5.2,2.5l-16.1,7.5l-14.3,6.6L270.1,260.7z M280.1,243.3c0-2.7-1.6-5.1-4.2-6.3
		c-2.6-1.2-4.3-0.3-4.3,2.3s1.7,5.1,4.3,6.3C278.4,246.9,280.1,245.9,280.1,243.3z M299.9,275.2c-5.2-2.4-8.9-7-8.9-11
		s3.7-5.1,8.9-2.7s8.8,7,8.8,11C308.7,276.6,305.1,277.7,299.9,275.2z M304.1,270.4c0-2.7-1.6-5.1-4.2-6.3c-2.6-1.2-4.3-0.3-4.3,2.3
		s1.7,5.1,4.3,6.3C302.4,273.9,304.1,273,304.1,270.4z"/>
	<path class="st1" d="M232.8,277.4c0,9.1-7.1,11.5-19,6c-11.9-5.6-19.1-14.8-19.1-23.9s7.3-11.4,19.1-5.9
		C225.6,259.2,232.8,268.3,232.8,277.4z M200.1,262c0,7.1,5.1,14,13.8,18.1c8.5,4,13.7,1.9,13.7-5.2s-5.2-14-13.7-18
		C205.4,252.9,200.1,254.9,200.1,262z"/>
	<path class="st1" d="M241.8,295.9v-28.4l25.2,11.9v3.2l-20-9.4v9.8l18.4,8.6v3.2L247,286v12.3L241.8,295.9z"/>
	<path class="st1" d="M275.6,311.8v-28.4l25.2,11.9v3.2l-20-9.4v9.8l18.4,8.6v3.2l-18.4-8.6v12.3L275.6,311.8z"/>
</g>
<g>
	<g id="XMLID_4603_">
		<polygon id="XMLID_4604_" class="st4" points="262.5,489.9 267.1,487.3 267.1,489 262.5,491.7 		"/>
	</g>
	<g id="XMLID_4601_">
		<polygon id="XMLID_4602_" class="st4" points="253.4,497 253.4,495.2 257.9,492.6 257.9,494.3 		"/>
	</g>
	<g id="XMLID_4599_">
		<polygon id="XMLID_4600_" class="st4" points="244.2,502.2 244.2,500.5 248.8,497.9 248.8,499.6 		"/>
	</g>
	<g id="XMLID_4597_">
		<polygon id="XMLID_4598_" class="st4" points="235.1,507.5 235.1,505.8 239.6,503.1 239.6,504.9 		"/>
	</g>
	<g id="XMLID_4579_">
		<polygon id="XMLID_4580_" class="st4" points="299.1,468.8 303.7,466.1 303.7,467.9 299.1,470.5 		"/>
	</g>
	<g id="XMLID_4537_">
		<polygon id="XMLID_4578_" class="st4" points="290,475.8 290,474.1 294.6,471.4 294.6,473.2 		"/>
	</g>
	<g id="XMLID_4535_">
		<polygon id="XMLID_4536_" class="st4" points="280.8,481.1 280.8,479.3 285.4,476.7 285.4,478.5 		"/>
	</g>
	<g id="XMLID_4533_">
		<polygon id="XMLID_4534_" class="st4" points="271.7,486.4 271.7,484.6 276.3,482 276.3,483.7 		"/>
	</g>
	<g id="XMLID_4595_">
		<polygon id="XMLID_4596_" class="st4" points="225.9,512.8 225.9,511.1 230.5,508.4 230.5,510.2 		"/>
	</g>
	<g id="XMLID_4593_">
		<polygon id="XMLID_4594_" class="st4" points="216.8,518.1 216.8,516.3 221.3,513.7 221.3,515.4 		"/>
	</g>
	<g id="XMLID_4591_">
		<polygon id="XMLID_4592_" class="st4" points="207.6,523.4 207.6,521.6 212.2,519 212.2,520.7 		"/>
	</g>
	<g id="XMLID_4589_">
		<polygon id="XMLID_4590_" class="st4" points="198.5,528.7 198.5,526.9 203,524.3 203,526 		"/>
	</g>
	<g id="XMLID_4586_">
		<polygon id="XMLID_4588_" class="st4" points="189.3,533.9 189.3,532.2 193.9,529.5 193.9,531.3 		"/>
	</g>
</g>
<g id="XMLID_157_">
	<g id="XMLID_171_">
		<g id="XMLID_172_" class="st5">
			<g id="XMLID_178_">
				<path id="XMLID_179_" class="st6" d="M124.4,639.2l12.9,7.5c-0.1-0.1-0.3-0.2-0.4-0.4l-12.9-7.5
					C124.1,639,124.2,639.1,124.4,639.2z"/>
			</g>
			<g id="XMLID_176_">
				<polygon id="XMLID_177_" class="st7" points="130.8,636 117.9,628.5 124,638.8 136.9,646.3 				"/>
			</g>
			<path id="XMLID_175_" class="st8" d="M103.5,569.5l44-25.4c2-1.2,3.8-1.3,5.1-0.5l12.9,7.5c-1.3-0.8-3.1-0.7-5.1,0.5l-44,25.4
				c-4,2.3-7.2,7.9-7.2,12.5l0.1,50.5c0,2.3,0.8,3.9,2.1,4.6l-12.9-7.5c-1.3-0.8-2.1-2.4-2.1-4.6L96.3,582
				C96.3,577.4,99.5,571.8,103.5,569.5z"/>
			<g id="XMLID_173_">
				<path id="XMLID_174_" class="st9" d="M116.4,577c-4,2.3-7.2,7.9-7.2,12.5l0.1,50.5c0,4.6,3.3,6.4,7.2,4.1l14.2-8.2l6.1,10.3
					c0.4,0.6,1.1,0.6,1.7,0.2c0.7-0.4,1.4-1.2,1.7-2.2l6-17.3l14.2-8.2c4-2.3,7.2-7.9,7.2-12.5l-0.1-50.5c0-4.6-3.3-6.4-7.2-4.1
					L116.4,577z"/>
			</g>
		</g>
	</g>
	<g id="XMLID_158_">
		<g id="XMLID_167_" class="st5">
			<path id="XMLID_170_" class="st4" d="M126.1,599.9c-0.8-0.4-1.8-0.4-2.9,0.3c-2.3,1.3-4.1,4.5-4.1,7.1c0,1.3,0.5,2.2,1.2,2.7
				l3,1.8c-0.7-0.4-1.2-1.3-1.2-2.7c0-2.6,1.8-5.8,4.1-7.1c1.1-0.7,2.2-0.7,2.9-0.3L126.1,599.9z"/>
			<g id="XMLID_168_">
				<path id="XMLID_169_" class="st3" d="M126.1,601.9c2.3-1.3,4.1-0.3,4.1,2.4c0,2.6-1.8,5.8-4.1,7.1s-4.1,0.3-4.2-2.4
					C122,606.4,123.9,603.2,126.1,601.9z"/>
			</g>
		</g>
		<g id="XMLID_163_" class="st5">
			<path id="XMLID_166_" class="st4" d="M141.9,590.7c-0.8-0.4-1.8-0.4-2.9,0.3c-2.3,1.3-4.1,4.5-4.1,7.1c0,1.3,0.5,2.2,1.2,2.7
				l3,1.8c-0.7-0.4-1.2-1.3-1.2-2.7c0-2.6,1.8-5.8,4.1-7.1c1.1-0.7,2.2-0.7,2.9-0.3L141.9,590.7z"/>
			<g id="XMLID_164_">
				<path id="XMLID_165_" class="st3" d="M142,592.7c2.3-1.3,4.1-0.3,4.1,2.4c0,2.6-1.8,5.8-4.1,7.1s-4.1,0.3-4.2-2.4
					C137.9,597.3,139.8,594.1,142,592.7z"/>
			</g>
		</g>
		<g id="XMLID_159_" class="st5">
			<path id="XMLID_162_" class="st4" d="M157.8,581.5c-0.8-0.4-1.8-0.4-2.9,0.3c-2.3,1.3-4.1,4.5-4.1,7.1c0,1.3,0.5,2.2,1.2,2.7
				l3,1.8c-0.7-0.4-1.2-1.3-1.2-2.7c0-2.6,1.8-5.8,4.1-7.1c1.1-0.7,2.2-0.7,2.9-0.3L157.8,581.5z"/>
			<g id="XMLID_160_">
				<path id="XMLID_161_" class="st3" d="M157.9,583.6c2.3-1.3,4.1-0.3,4.1,2.4c0,2.6-1.8,5.8-4.1,7.1s-4.1,0.3-4.2-2.4
					C153.8,588.1,155.6,584.9,157.9,583.6z"/>
			</g>
		</g>
	</g>
</g>
<polygon class="st0" points="608.7,615.4 630.7,605.4 608.7,592.4 "/>
<polygon class="st0" points="149.7,50.4 171.7,40.4 171.7,62.9 "/>
</svg>
