<?xml version="1.0" encoding="utf-8"?>
<!-- Generator: Adobe Illustrator 21.0.2, SVG Export Plug-In . SVG Version: 6.00 Build 0)  -->
<svg version="1.1" id="OBJECTS" xmlns="http://www.w3.org/2000/svg" xmlns:xlink="http://www.w3.org/1999/xlink" x="0px" y="0px"
	 viewBox="0 0 800 800" style="enable-background:new 0 0 800 800;" xml:space="preserve">
<style type="text/css">
	.st0{opacity:0.25;}
	.st1{fill:#00192C;}
	.st2{display:none;fill:url(#XMLID_37_);}
	.st3{display:none;}
	.st4{display:inline;fill:url(#XMLID_76_);}
	.st5{display:inline;fill:url(#XMLID_77_);}
	.st6{display:inline;fill:#FFFFFF;}
	.st7{display:none;opacity:0.14;fill:#5383C9;enable-background:new    ;}
	.st8{display:inline;fill:#3F4657;}
	.st9{display:none;fill:#B2EBF2;}
	.st10{display:none;fill:#E0F7FA;}
	.st11{display:none;fill:#90A4AE;}
	.st12{display:none;fill:#00BCD4;}
	.st13{display:none;fill:none;}
	.st14{display:none;fill:#6A818B;}
	.st15{display:none;fill:#78909C;}
	.st16{display:none;fill:#BDBDBD;}
	.st17{display:none;fill:#E0E0E0;}
	.st18{display:none;fill:#F5F5F5;}
	.st19{display:none;fill:#757575;}
	.st20{display:none;fill:#F4511E;}
	.st21{display:none;fill:#E64A19;}
	.st22{display:none;fill:#FF7043;}
	.st23{display:none;fill:#546E7A;}
	.st24{display:none;fill:#1E88E5;}
	.st25{display:none;fill:#1976D2;}
	.st26{display:none;opacity:0.79;fill:#B2EBF2;enable-background:new    ;}
	.st27{display:none;opacity:0.77;}
	.st28{display:inline;fill:#FAFAFA;}
	.st29{display:none;opacity:0.39;}
	.st30{display:inline;}
	.st31{fill:#039BE5;}
	.st32{display:none;fill:#FAFAFA;}
	.st33{display:none;fill:#E53935;}
	.st34{display:none;fill:#EF5350;}
	.st35{display:none;fill:#D32F2F;}
	.st36{display:none;fill:url(#SVGID_1_);}
	.st37{display:none;fill:url(#SVGID_2_);}
	.st38{display:none;opacity:0.5;fill:url(#SVGID_3_);enable-background:new    ;}
	.st39{fill:#D32F2F;}
	.st40{fill:#E0E0E0;}
	.st41{fill:#EF5350;}
	.st42{fill:#FAFAFA;}
	.st43{display:inline;fill:#C62828;}
	.st44{display:none;fill:url(#SVGID_4_);}
	.st45{display:none;fill:url(#SVGID_5_);}
	.st46{display:none;fill:#FAFAFA;enable-background:new    ;}
	.st47{font-family:'ArialMT';}
	.st48{font-size:21.4491px;}
	.st49{display:none;opacity:0.5;fill:url(#SVGID_6_);enable-background:new    ;}
	.st50{enable-background:new    ;}
	.st51{fill:#B2D235;}
	.st52{fill:#86328C;}
	.st53{fill:#9A67C9;}
	.st54{fill:#AB72E0;}
	.st55{fill:#F7941E;}
	.st56{fill:#FFEE79;}
	.st57{fill:#FFCD57;}
	.st58{fill:#CC181F;}
	.st59{fill:#FF1E27;}
	.st60{fill:#F44747;}
	.st61{fill:#FFFAC0;}
	.st62{fill:#FFD663;}
	.st63{display:none;fill:#0084A8;}
	.st64{display:none;fill:none;stroke:#6D6E71;stroke-linecap:round;stroke-linejoin:round;stroke-miterlimit:10;}
	.st65{display:none;fill:url(#SVGID_7_);}
	.st66{display:none;fill:url(#SVGID_8_);}
	.st67{display:none;fill:url(#SVGID_9_);}
	.st68{display:none;fill:url(#SVGID_10_);}
	.st69{display:none;fill:url(#SVGID_11_);}
	.st70{display:none;fill:url(#SVGID_12_);}
	.st71{display:none;fill:url(#SVGID_13_);}
	.st72{display:none;fill:url(#SVGID_14_);}
	.st73{display:none;fill:url(#SVGID_15_);}
	.st74{display:none;fill:url(#SVGID_16_);}
	.st75{display:none;fill:url(#SVGID_17_);}
	.st76{display:inline;fill:#2C919F;}
	.st77{display:inline;fill:#73FFB0;}
	.st78{display:none;opacity:0.31;}
	.st79{display:inline;enable-background:new    ;}
	.st80{fill:#AAB3C2;}
	.st81{display:inline;fill:#8C898C;}
	.st82{display:inline;fill:#D3D1D3;}
	.st83{fill:#B2EBF2;}
	.st84{display:inline;fill:#BFBBBF;}
	.st85{fill:#E0F7FA;}
	.st86{display:inline;fill:#59347F;}
	.st87{display:none;fill:#9A67C9;}
	.st88{display:inline;fill:#AB72E0;}
	.st89{display:none;enable-background:new    ;}
	.st90{clip-path:url(#SVGID_19_);}
	.st91{fill:#1B5593;}
	.st92{display:inline;fill:#1B5593;}
	.st93{display:none;fill:url(#SVGID_20_);}
	.st94{display:inline;fill:url(#SVGID_21_);}
	.st95{clip-path:url(#SVGID_23_);enable-background:new    ;}
	.st96{display:inline;fill:#2D2D2D;}
	.st97{fill:#2C919F;}
	.st98{clip-path:url(#SVGID_26_);}
	.st99{display:none;fill:#2C919F;}
	.st100{fill:#BBCCD4;}
	.st101{fill:#FFFFFF;}
	.st102{fill:#F1F2F2;}
	.st103{fill:#FF7A7E;}
	.st104{fill:#F4575B;}
	.st105{fill:#EB9C4D;}
	.st106{fill:#9C298C;}
	.st107{fill:#6D6E71;}
	.st108{fill:#414042;}
	.st109{fill:#7F55A6;}
</style>
<g class="st0">
	<polygon class="st1" points="181.4,256 90.8,199.7 25.4,241.5 115,294.5 	"/>
	<path class="st1" d="M758.7,676.2c0.2-15.5-10-31.1-30.5-42.9l-17.8,10.3c-40.1-14.8-93.7-12.1-128.6,8.1c-20,11.7-30,26.9-30,42.2
		v-0.1l-0.1,24.3c0,15.4,10.1,30.9,30.5,42.6h0.1c1.2,0.7,2.5,1.4,3.7,2c0.4,0.2,0.9,0.4,1.3,0.6c0.9,0.4,1.7,0.9,2.6,1.3
		c0.5,0.2,1,0.5,1.6,0.7c0.8,0.4,1.6,0.7,2.4,1.1c0.6,0.2,1.1,0.5,1.7,0.7c0.6,0.2,1.1,0.5,1.6,0.7c0.2,0.1,0.4,0.1,0.5,0.2
		c1.8,0.7,3.6,1.4,5.5,2c0.3,0.1,0.6,0.2,0.9,0.3c1.6,0.5,3.2,1,4.9,1.5c0.3,0.1,0.5,0.2,0.8,0.3s0.6,0.2,1,0.3
		c1,0.3,2.1,0.6,3.1,0.8c0.6,0.2,1.3,0.3,1.9,0.5c1.1,0.3,2.3,0.5,3.5,0.8c0.4,0.1,0.9,0.2,1.3,0.3c0.1,0,0.2,0,0.4,0.1
		c1.1,0.2,2.1,0.4,3.2,0.6c0.6,0.1,1.2,0.2,1.8,0.3c1.4,0.2,2.8,0.5,4.2,0.7c0.3,0,0.5,0.1,0.8,0.1c1.6,0.2,3.3,0.4,4.9,0.6
		c0.4,0,0.7,0.1,1.1,0.1c1.3,0.1,2.6,0.3,3.9,0.4h0.1c0.6,0,1.1,0.1,1.7,0.1c1.1,0.1,2.1,0.2,3.2,0.2c0.7,0,1.4,0.1,2.1,0.1
		c1,0,2,0.1,3,0.1c0.1,0,0.2,0,0.2,0c0.6,0,1.1,0,1.7,0c1.1,0,2.1,0,3.2,0c0.7,0,1.4,0,2.1,0c1,0,2,0,3-0.1c0.2,0,0.4,0,0.6,0
		c0.5,0,0.9-0.1,1.4-0.1c1.2,0,2.3-0.1,3.5-0.2c0.7,0,1.4-0.1,2.1-0.1c1.1-0.1,2.2-0.2,3.3-0.3c0.4,0,0.8-0.1,1.2-0.1
		c0.3,0,0.5-0.1,0.8-0.1c1.7-0.2,3.4-0.4,5.1-0.6c0.3,0,0.6-0.1,0.8-0.1c2-0.3,3.9-0.6,5.8-0.9c0.2,0,0.4-0.1,0.5-0.1
		c0.5-0.1,1-0.2,1.5-0.3c0.9-0.2,1.8-0.3,2.7-0.5c0.7-0.2,1.5-0.3,2.2-0.5c0.9-0.2,1.8-0.4,2.6-0.6c0.7-0.2,1.4-0.4,2.2-0.5
		c0.9-0.2,1.7-0.5,2.6-0.7c0.7-0.2,1.4-0.4,2.1-0.6c0.8-0.2,1.7-0.5,2.5-0.8c0.4-0.1,0.7-0.2,1.1-0.3c0.3-0.1,0.5-0.2,0.8-0.3
		c1.5-0.5,3-1,4.5-1.6c0.3-0.1,0.6-0.2,0.9-0.3c1.7-0.7,3.5-1.4,5.2-2.1c0.4-0.2,0.9-0.4,1.3-0.6c1.3-0.6,2.6-1.2,3.8-1.8
		c0.5-0.2,0.9-0.5,1.4-0.7c1.6-0.8,3.2-1.7,4.8-2.6l0.1-18.5h0.1c0.4-0.2,0.8-0.5,1.3-0.7c0.4-0.2,0.8-0.5,1.1-0.7
		c0.6-0.4,1.3-0.8,1.9-1.2c0.6-0.4,1.1-0.7,1.6-1.1c0.6-0.4,1.2-0.8,1.7-1.2s1-0.8,1.5-1.2s1.1-0.8,1.6-1.3c0.5-0.4,1-0.8,1.4-1.2
		c0.5-0.4,1-0.9,1.5-1.3c0.2-0.2,0.4-0.4,0.6-0.5c0.4-0.4,0.8-0.7,1.2-1.1c0.1-0.1,0.3-0.3,0.4-0.4c0.7-0.7,1.5-1.5,2.2-2.2
		c0.2-0.2,0.3-0.4,0.5-0.5c0.6-0.7,1.1-1.3,1.7-2c0.1-0.1,0.2-0.3,0.3-0.4c0.1-0.1,0.1-0.1,0.2-0.2c0.2-0.2,0.4-0.5,0.5-0.7
		c0.5-0.7,1-1.3,1.5-2c0.3-0.4,0.5-0.7,0.7-1.1c0.4-0.6,0.8-1.2,1.1-1.8c0.1-0.2,0.2-0.3,0.3-0.5s0.3-0.5,0.4-0.8
		c0.3-0.5,0.5-1,0.8-1.5c0.2-0.4,0.4-0.9,0.6-1.3c0.2-0.5,0.5-1,0.7-1.6c0.1-0.2,0.2-0.5,0.3-0.7s0.1-0.4,0.2-0.6
		c0.2-0.5,0.3-1,0.5-1.5c0.1-0.5,0.3-0.9,0.4-1.4c0.1-0.5,0.3-1,0.4-1.5c0.1-0.3,0.1-0.5,0.2-0.8c0-0.2,0.1-0.4,0.1-0.6
		c0.1-0.5,0.2-1,0.2-1.5c0.1-0.5,0.1-0.9,0.2-1.4c0.1-0.5,0.1-1,0.1-1.6c0-0.3,0.1-0.6,0.1-0.9c0-0.3,0-0.6,0-0.9l0.1-24.3
		C758.7,676,758.7,676.1,758.7,676.2z M552.7,701.8c0.1,0.2,0.1,0.5,0.2,0.7C552.8,702.3,552.8,702.1,552.7,701.8z M553.1,703.3
		c0.1,0.2,0.1,0.5,0.2,0.7C553.2,703.7,553.1,703.5,553.1,703.3z M554,706.1c0.1,0.2,0.2,0.5,0.3,0.7
		C554.1,706.6,554.1,706.3,554,706.1z M555.1,708.9c0.1,0.2,0.2,0.5,0.3,0.7C555.3,709.4,555.2,709.2,555.1,708.9z M555.8,710.3
		c0.1,0.2,0.2,0.5,0.3,0.7C556,710.8,555.9,710.6,555.8,710.3z M557.3,713.1c0.1,0.2,0.3,0.5,0.4,0.7
		C557.5,713.6,557.4,713.3,557.3,713.1z M560,717.2c0.2,0.2,0.3,0.4,0.5,0.6C560.3,717.6,560.1,717.4,560,717.2z M561,718.6
		c0.2,0.2,0.3,0.4,0.5,0.6C561.3,719,561.1,718.8,561,718.6z M580.3,691.8c0.1,0.2,0.1,0.4,0,0.6C580.3,692.2,580.3,692,580.3,691.8
		z M579.9,735c0.2,0.1,0.4,0.2,0.5,0.3C580.2,735.2,580,735.1,579.9,735z M580.9,688.2c0-0.1,0.1-0.3,0.1-0.5
		C581,687.9,581,688.1,580.9,688.2z M583.3,681.6c-0.1,0.2-0.1,0.3-0.2,0.5C583.2,681.9,583.2,681.8,583.3,681.6z M615,749.1
		c0.3,0.1,0.5,0.1,0.8,0.2C615.6,749.3,615.3,749.2,615,749.1z M624.2,751.1c0.6,0.1,1.2,0.2,1.7,0.3
		C625.3,751.3,624.7,751.2,624.2,751.1z M708.6,706.1c-0.1,0-0.2,0.1-0.3,0.1l-0.1,18.5l-0.3-0.2c-0.2,0.1-0.3,0.2-0.4,0.3
		c-28.9,16.8-75.8,16.8-104.9,0c0,0-0.1,0-0.1-0.1v-0.2c-0.2-0.1-0.3-0.2-0.5-0.3c-9.2-5.3-15.5-11.7-18.9-18.4
		c0.1-0.2,0.2-0.4,0.3-0.6c0.2-0.3,0.3-0.6,0.5-0.9c0.3-0.4,0.5-0.9,0.8-1.3c0.2-0.3,0.3-0.5,0.5-0.8c0.3-0.5,0.7-1,1-1.4
		c0.2-0.2,0.3-0.5,0.5-0.7c0.1-0.1,0.2-0.2,0.2-0.3c0.4-0.5,0.8-1,1.2-1.4c0.1-0.1,0.2-0.3,0.3-0.4c0.5-0.5,1-1.1,1.6-1.6
		c0.1-0.1,0.2-0.2,0.3-0.3c0.4-0.4,0.8-0.8,1.3-1.2c0.3-0.3,0.7-0.6,1.1-0.9c0.3-0.3,0.7-0.6,1-0.9c0.4-0.3,0.8-0.6,1.2-0.9
		c0.4-0.3,0.7-0.6,1.1-0.8c0.4-0.3,0.8-0.6,1.2-0.9c0.4-0.3,0.8-0.5,1.2-0.8s0.9-0.6,1.3-0.8c0.6-0.4,1.1-0.7,1.7-1.1
		c0.1,0,0.2-0.1,0.2-0.1l0.2,0.1c0,0,0,0,0.1,0l0.1-0.1c0.1,0,0.2-0.1,0.2-0.1c1.1-0.6,2.3-1.3,3.4-1.8c0.3-0.2,0.7-0.3,1-0.5
		c0.9-0.4,1.8-0.9,2.7-1.3c0.3-0.1,0.6-0.3,0.9-0.4c1.2-0.5,2.4-1,3.7-1.5c0.2-0.1,0.4-0.2,0.7-0.2c1.1-0.4,2.1-0.8,3.2-1.1
		c0.4-0.1,0.9-0.3,1.3-0.4c0.6-0.2,1.2-0.4,1.8-0.6c0.5-0.1,1-0.3,1.5-0.4c0.6-0.2,1.2-0.3,1.9-0.5c0.5-0.1,1-0.3,1.6-0.4
		c0.6-0.2,1.3-0.3,1.9-0.4c0.5-0.1,1-0.2,1.6-0.3s1.3-0.3,1.9-0.4c0.5-0.1,1-0.2,1.5-0.3c1.4-0.2,2.8-0.5,4.2-0.7
		c0.2,0,0.4,0,0.6-0.1c1.2-0.2,2.5-0.3,3.7-0.4c0.5,0,0.9-0.1,1.4-0.1c0.8-0.1,1.6-0.1,2.4-0.2c0.5,0,1-0.1,1.5-0.1
		c0.8-0.1,1.7-0.1,2.5-0.1c0.5,0,0.9,0,1.4-0.1c0.7,0,1.4,0,2.2,0c0.5,0,1,0,1.5,0c0.8,0,1.5,0,2.3,0c0.5,0,0.9,0,1.4,0
		c0.7,0,1.4,0.1,2.1,0.1c0.5,0,1,0,1.5,0.1c0.8,0,1.5,0.1,2.3,0.2c0.4,0,0.9,0.1,1.3,0.1c0.9,0.1,1.8,0.2,2.7,0.3
		c0.3,0,0.6,0.1,0.8,0.1c1.2,0.1,2.4,0.3,3.5,0.4c0.2,0,0.4,0.1,0.6,0.1c1,0.1,2,0.3,3,0.5c0.4,0.1,0.8,0.2,1.3,0.2
		c0.8,0.1,1.5,0.3,2.3,0.4c0.4,0.1,0.8,0.2,1.2,0.3c0.8,0.2,1.7,0.4,2.5,0.6c0.5,0.1,0.9,0.2,1.4,0.3c0.8,0.2,1.5,0.4,2.3,0.6
		c0.4,0.1,0.8,0.2,1.3,0.4c1.2,0.3,2.3,0.7,3.5,1.1c0.2,0.1,0.4,0.1,0.6,0.2c1.3,0.5,2.6,0.9,3.9,1.4c0.5,0.2,1,0.4,1.6,0.6
		c0.4,0.2,0.8,0.3,1.2,0.5c0.6,0.3,1.2,0.5,1.7,0.8c0.4,0.2,0.7,0.3,1.1,0.5c0.6,0.3,1.2,0.6,1.9,0.9c0.3,0.2,0.6,0.3,0.9,0.5
		c0.9,0.5,1.8,0.9,2.6,1.4c0,0,0,0,0.1,0s0.1,0.1,0.2,0.1c0,0,0.1,0,0.1,0.1l13.6-7.9c2.4,2.6,4.4,5.4,5.8,8.2
		C723.8,694.7,717.6,700.9,708.6,706.1z"/>
	<path class="st1" d="M721.7,391.5L547.8,291.1c-18.3-10.5-47.8-10.6-66,0L112.6,505.7c-18.2,10.5-18.1,27.7,0.2,38.2l173.8,100.4
		c18.3,10.5,47.9,10.5,66,0l369.3-214.6C740.1,419.1,740,402,721.7,391.5z"/>
</g>
<linearGradient id="XMLID_37_" gradientUnits="userSpaceOnUse" x1="106.1" y1="314.3875" x2="767.1" y2="314.3875" gradientTransform="matrix(1 0 0 -1 0 800)">
	<stop  offset="0" style="stop-color:#0049FF"/>
	<stop  offset="1" style="stop-color:#16FFF9"/>
</linearGradient>
<path id="XMLID_507_" class="st2" d="M752.9,372.9l-381,221.4c-19,11.1-50,11.1-69.1,0L120.6,489.1c-9.6-5.6-14.4-12.9-14.4-20.2
	l-0.1,15.8c0,7.3,4.8,14.6,14.4,20.2L302.7,610c19.1,11.1,50.1,11.1,69.1,0l381-221.4c9.5-5.5,14.2-12.7,14.2-19.9l0.1-15.8
	C767.1,360.2,762.4,367.4,752.9,372.9z"/>
<g id="XMLID_485_" class="st3">
	
		<linearGradient id="XMLID_76_" gradientUnits="userSpaceOnUse" x1="106.2123" y1="389.05" x2="767.1254" y2="389.05" gradientTransform="matrix(1 0 0 -1 0 800)">
		<stop  offset="0" style="stop-color:#16FFF9"/>
		<stop  offset="0.1268" style="stop-color:#11D2FA"/>
		<stop  offset="0.2644" style="stop-color:#0CA8FC"/>
		<stop  offset="0.4053" style="stop-color:#0786FD"/>
		<stop  offset="0.5479" style="stop-color:#046BFE"/>
		<stop  offset="0.6928" style="stop-color:#0258FF"/>
		<stop  offset="0.8416" style="stop-color:#004DFF"/>
		<stop  offset="1" style="stop-color:#0049FF"/>
	</linearGradient>
	<path id="XMLID_491_" class="st4" d="M752.7,332.8c19.1,11.1,19.3,29,0.2,40l-381,221.4c-19,11.1-50,11.1-69.1,0L120.6,489.1
		c-19.1-11.1-19.2-29-0.2-40l381-221.4c19-11.1,50-11.1,69.1,0L752.7,332.8z"/>
</g>
<g id="XMLID_498_" class="st3">
	
		<linearGradient id="XMLID_77_" gradientUnits="userSpaceOnUse" x1="119.3123" y1="389.6188" x2="755.7877" y2="389.6188" gradientTransform="matrix(1 0 0 -1 0 800)">
		<stop  offset="0" style="stop-color:#7FFFF9"/>
		<stop  offset="0.1268" style="stop-color:#5FD2FA"/>
		<stop  offset="0.2644" style="stop-color:#42A8FC"/>
		<stop  offset="0.4053" style="stop-color:#2A86FD"/>
		<stop  offset="0.5479" style="stop-color:#186BFE"/>
		<stop  offset="0.6928" style="stop-color:#0B58FF"/>
		<stop  offset="0.8416" style="stop-color:#034DFF"/>
		<stop  offset="1" style="stop-color:#0049FF"/>
	</linearGradient>
	<path id="XMLID_499_" class="st5" d="M742,334.2c18.3,10.5,18.4,27.6,0.2,38.2L373,587c-18.1,10.5-47.7,10.5-66,0L133.1,486.6
		c-18.3-10.5-18.4-27.7-0.2-38.2l369.2-214.6c18.2-10.6,47.7-10.5,66,0L742,334.2z"/>
</g>
<g id="XMLID_500_" class="st3">
	<polygon id="XMLID_503_" class="st6" points="729.8,373.7 391.5,569.9 162,437.4 500.3,241.2 	"/>
</g>
<g id="XMLID_501_" class="st3">
	<path id="XMLID_505_" class="st6" d="M272.4,514.3c4.3,2.5,4.3,6.5,0.1,9l-16.2,9.4c-4.3,2.5-11.2,2.5-15.5,0l-16.3-9.4
		c-4.3-2.5-4.3-6.5-0.1-9l16.2-9.4c4.3-2.5,11.2-2.5,15.5,0L272.4,514.3z"/>
</g>
<polygon class="st7" points="665.8,354.6 672,357.3 604.2,396.3 456.1,312.1 494.7,297.3 658.7,346.7 662.4,350.6 "/>
<g id="XMLID_2274_" class="st3">
	<polygon id="XMLID_2275_" class="st8" points="317.8,487.9 287.6,470.4 518.7,342.7 549.5,360.5 	"/>
</g>
<g id="XMLID_2280_" class="st3">
	<polygon id="XMLID_2281_" class="st8" points="427.2,549.2 391.5,569.9 162,437.4 196.6,417.3 	"/>
</g>
<polygon class="st9" points="604.2,293.4 470.8,216.3 528.9,182.7 662.4,259.8 "/>
<polygon class="st10" points="604.2,293.4 470.8,216.3 470.8,311.1 604.2,388.2 "/>
<polygon class="st11" points="593.9,307.2 593.9,362.5 556.3,340.8 556.3,285.5 "/>
<polygon class="st11" points="518.7,263.7 518.7,319 481,297.3 481,242 "/>
<polygon class="st12" points="662.4,354.6 604.2,388.2 604.2,293.4 662.4,259.8 "/>
<polygon class="st13" points="617.9,356.6 617.9,309.2 648.7,291.4 648.7,338.8 "/>
<polygon class="st14" points="614.5,307.2 614.5,362.5 652.1,340.8 652.1,285.5 "/>
<polygon class="st11" points="648.7,338.8 645.3,336.8 617.9,352.6 617.9,356.6 "/>
<polygon class="st15" points="645.3,336.8 645.3,293.4 648.7,291.4 648.7,338.8 "/>
<polygon class="st13" points="525.5,342.7 525.5,271.6 549.5,285.5 549.5,356.6 "/>
<polygon class="st11" points="522.1,340.8 522.1,265.7 552.9,283.5 552.9,358.5 "/>
<polygon class="st16" points="522.1,340.8 518.7,342.7 518.7,338.8 522.1,336.8 "/>
<polygon class="st17" points="518.7,342.7 467.3,313.1 467.3,309.2 518.7,338.8 "/>
<polygon class="st18" points="467.3,309.2 470.8,307.2 522.1,336.8 518.7,338.8 "/>
<polygon class="st18" points="552.9,354.6 549.5,356.6 604.2,388.2 604.2,384.2 "/>
<polygon class="st17" points="549.5,356.6 549.5,360.5 604.2,392.1 604.2,388.2 "/>
<polygon class="st16" points="604.2,392.1 665.8,356.6 665.8,352.6 604.2,388.2 "/>
<polygon class="st17" points="604.2,384.2 662.4,350.6 665.8,352.6 604.2,388.2 "/>
<polygon class="st19" points="528.9,203 528.9,191.2 541.8,183.7 541.8,195.6 "/>
<polygon class="st16" points="528.9,203 516.1,195.6 516.1,183.7 528.9,191.2 "/>
<polygon class="st17" points="513.5,182.3 513.5,185.2 528.9,194.1 528.9,191.2 "/>
<polygon class="st16" points="544.3,182.3 528.9,191.2 528.9,194.1 544.3,185.2 "/>
<polygon class="st18" points="513.5,182.3 528.9,173.4 544.3,182.3 528.9,191.2 "/>
<polygon class="st20" points="531.5,201.5 534.1,203 534.1,197.1 531.5,195.6 "/>
<polygon class="st21" points="541.8,198.6 534.1,203 534.1,197.1 541.8,192.6 "/>
<polygon class="st22" points="531.5,195.6 539.2,191.2 541.8,192.6 534.1,197.1 "/>
<polygon class="st23" points="525.5,342.7 528.9,340.8 528.9,273.6 525.5,271.6 "/>
<polygon class="st15" points="528.9,340.8 549.5,352.6 549.5,356.6 525.5,342.7 "/>
<polygon class="st24" points="528.9,340.8 549.5,352.6 549.5,285.5 528.9,273.6 "/>
<polygon class="st13" points="590.5,356.6 590.5,309.2 559.7,291.4 559.7,338.8 "/>
<polygon class="st15" points="559.7,338.8 563.1,336.8 590.5,352.6 590.5,356.6 "/>
<polygon class="st23" points="563.1,336.8 563.1,313.1 559.7,311.1 559.7,338.8 "/>
<polygon class="st13" points="515.2,313.1 515.2,265.7 484.4,247.9 484.4,295.3 "/>
<polygon class="st15" points="484.4,295.3 487.9,293.4 515.2,309.2 515.2,313.1 "/>
<polygon class="st23" points="487.9,293.4 487.9,269.6 484.4,267.7 484.4,295.3 "/>
<polygon class="st19" points="528.9,177.8 528.9,186.7 521.2,182.3 "/>
<polygon class="st16" points="536.6,182.3 528.9,177.8 528.9,186.7 "/>
<polygon class="st24" points="494.7,297.3 515.2,309.2 515.2,285.5 "/>
<polygon class="st24" points="617.9,328.9 617.9,352.6 638.4,340.8 "/>
<polygon class="st25" points="638.4,340.8 645.3,336.8 645.3,293.4 617.9,309.2 617.9,328.9 "/>
<polygon class="st25" points="590.5,313.1 588.8,312.1 590.5,311.1 "/>
<polygon class="st25" points="494.7,297.3 487.9,293.4 487.9,269.6 515.2,285.5 "/>
<polygon class="st24" points="563.1,336.8 563.1,313.1 580.2,323 580.2,317.1 588.8,312.1 590.5,313.1 590.5,352.6 "/>
<polygon class="st26" points="617.9,354.6 647,337.8 647,292.4 617.9,309.2 "/>
<g class="st27">
	<polygon class="st28" points="647,297.9 647,308.1 635.2,299.2 642.8,294.8 	"/>
	<polygon class="st28" points="647,311.3 647,316.4 629,302.8 632.8,300.5 	"/>
</g>
<polygon class="st26" points="527.2,341.8 527.2,272.6 549.5,285.5 549.5,354.6 "/>
<polygon class="st26" points="590.5,354.6 561.4,337.8 561.4,292.4 590.5,309.2 "/>
<polygon class="st26" points="515.2,311.1 486.2,294.3 486.2,248.9 515.2,265.7 "/>
<g class="st29">
	<g class="st30">
		<path class="st31" d="M497.3,285v3.6c0.4,1.2,0.6,2.5,0.6,3.6v3.9c0,0.6-0.4,0.9-0.9,0.7l-2.4-1.4v1.9l-0.4-0.3v-1.9l-2.4-1.4
			c-0.5-0.3-0.9-1-0.9-1.6v-3.9c0-1.1,0.2-2.1,0.6-2.9v-3.6c0-0.6-0.1-1.2-0.3-1.9l-0.6-1.8c-0.2-0.7-0.2-1.3,0.2-1.5l0.1-0.1
			c0.1-0.1,0.2-0.1,0.3,0l1.7,1c0.1,0,0.1,0,0.1-0.1V277c0-0.1,0.1-0.2,0.1-0.1l1,0.6v-0.3c-0.3-0.3-0.5-0.8-0.5-1.3
			c0-0.6,0.3-0.8,0.8-0.6c0.4,0.2,0.8,0.9,0.8,1.5c0,0.5-0.2,0.7-0.5,0.7v0.3l1,0.6c0.1,0,0.1,0.2,0.1,0.3v0.3
			c0,0.1,0.1,0.2,0.1,0.3l1.7,1c0.1,0.1,0.2,0.2,0.3,0.4l0.1,0.2c0.3,0.6,0.4,1.3,0.2,1.7l-0.6,1.1
			C497.5,283.9,497.3,284.4,497.3,285z"/>
		<path class="st31" d="M509.8,292.2v3.6c0.4,1.2,0.6,2.5,0.6,3.6v3.9c0,0.6-0.4,0.9-0.9,0.7l-2.4-1.4v1.9l-0.4-0.3v-1.9l-2.4-1.4
			c-0.5-0.3-0.9-1-0.9-1.6v-3.9c0-1.1,0.2-2.1,0.6-2.9v-3.6c0-0.6-0.1-1.2-0.3-1.9l-0.6-1.8c-0.2-0.7-0.2-1.3,0.2-1.5l0.1-0.1
			c0.1-0.1,0.2-0.1,0.3,0l1.7,1c0.1,0,0.1,0,0.1-0.1v-0.3c0-0.1,0.1-0.2,0.1-0.1l1,0.6v-0.3c-0.3-0.3-0.5-0.8-0.5-1.3
			c0-0.6,0.3-0.8,0.8-0.6c0.4,0.2,0.8,0.9,0.8,1.5c0,0.5-0.2,0.7-0.5,0.7v0.3l1,0.6c0.1,0,0.1,0.2,0.1,0.3v0.3
			c0,0.1,0.1,0.2,0.1,0.3l1.7,1c0.1,0.1,0.2,0.2,0.3,0.4l0.1,0.2c0.3,0.6,0.4,1.3,0.2,1.7l-0.6,1.1
			C509.9,291.1,509.8,291.6,509.8,292.2z"/>
	</g>
	<g class="st30">
		<path class="st31" d="M572.7,327v3.6c0.4,1.2,0.6,2.5,0.6,3.6v3.9c0,0.6-0.4,0.9-0.9,0.6l-2.4-1.4v3.4l-0.5-0.3V337l-2.4-1.4
			c-0.5-0.3-0.9-1-0.9-1.6v-3.9c0-1.1,0.2-2.1,0.6-2.9v-3.6c0-0.6-0.1-1.2-0.3-1.9L566,320c-0.2-0.7-0.2-1.3,0.2-1.5l0.1-0.1
			c0.1-0.1,0.2-0.1,0.3,0l1.7,1c0.1,0,0.1,0,0.1-0.1V319c0-0.1,0.1-0.2,0.1-0.1l1,0.6v-0.3c-0.3-0.3-0.5-0.8-0.5-1.3
			c0-0.6,0.3-0.8,0.8-0.6c0.4,0.2,0.8,0.9,0.8,1.5c0,0.5-0.2,0.7-0.5,0.7v0.3l1,0.6c0.1,0,0.1,0.2,0.1,0.3v0.3
			c0,0.1,0.1,0.2,0.1,0.3l1.7,1c0.1,0.1,0.2,0.2,0.3,0.4l0.1,0.3c0.3,0.6,0.4,1.3,0.2,1.7l-0.6,1.1
			C572.8,325.9,572.7,326.4,572.7,327z"/>
		<path class="st31" d="M585.2,334.2v3.6c0.4,1.2,0.6,2.5,0.6,3.6v3.9c0,0.6-0.4,0.9-0.9,0.7l-2.4-1.4v3.4l-0.5-0.3v-3.4l-2.4-1.4
			c-0.5-0.3-0.9-1-0.9-1.6v-3.9c0-1.1,0.2-2.1,0.6-2.9v-3.6c0-0.6-0.1-1.2-0.3-1.9l-0.6-1.8c-0.2-0.7-0.2-1.3,0.2-1.5l0.1-0.1
			c0.1-0.1,0.2-0.1,0.3,0l1.7,1c0.1,0,0.1,0,0.1-0.1v-0.3c0-0.1,0.1-0.2,0.1-0.1l1,0.6v-0.3c-0.3-0.3-0.5-0.8-0.5-1.3
			c0-0.6,0.3-0.8,0.8-0.6c0.4,0.2,0.8,0.9,0.8,1.5c0,0.5-0.2,0.7-0.5,0.7v0.3l1,0.6c0.1,0,0.1,0.2,0.1,0.3v0.3
			c0,0.1,0.1,0.2,0.1,0.3l1.7,1c0.1,0.1,0.2,0.2,0.3,0.4l0.1,0.3c0.3,0.6,0.4,1.3,0.2,1.7l-0.6,1.1
			C585.3,333.1,585.2,333.6,585.2,334.2z"/>
	</g>
</g>
<g class="st27">
	<polygon class="st28" points="515.2,279.6 515.2,289.8 499.3,301.9 491.6,297.5 	"/>
	<polygon class="st28" points="515.2,294.7 515.2,299.8 506.7,306.2 502.9,304 	"/>
	<polygon class="st28" points="506.6,260.7 486.2,276.1 486.2,271 502.7,258.5 	"/>
</g>
<g class="st27">
	<polygon class="st28" points="590.5,320.3 590.5,330.5 572.4,344.2 564.8,339.7 	"/>
	<polygon class="st28" points="590.5,335.3 590.5,340.4 579.9,348.5 576.1,346.3 	"/>
	<polygon class="st28" points="579.7,302.9 561.4,316.8 561.4,311.6 575.9,300.7 	"/>
</g>
<g class="st27">
	<polygon class="st28" points="549.5,287.3 549.5,297.5 527.2,314.3 527.2,304.1 	"/>
	<polygon class="st28" points="549.5,302.3 549.5,307.4 527.2,324.3 527.2,319.2 	"/>
</g>
<polygon class="st32" points="528.9,305.2 532.3,307.2 532.3,319 528.9,317.1 "/>
<polygon class="st33" points="597.5,253.7 484.1,188.2 484.1,219.2 597.5,284.7 "/>
<polygon class="st34" points="484.1,188.2 487,186.5 600.4,252 597.5,253.7 "/>
<polygon class="st35" points="597.5,284.7 600.4,283 600.4,252 597.5,253.7 "/>
<linearGradient id="SVGID_1_" gradientUnits="userSpaceOnUse" x1="484.7956" y1="613.426" x2="599.3266" y2="546.5944" gradientTransform="matrix(1 0 0 -1 0 800)">
	<stop  offset="0" style="stop-color:#FFFFFF"/>
	<stop  offset="1" style="stop-color:#757575"/>
</linearGradient>
<polygon class="st36" points="484.1,188.2 487,186.5 600.4,252 597.5,253.7 "/>
<linearGradient id="SVGID_2_" gradientUnits="userSpaceOnUse" x1="485.6511" y1="609.9843" x2="596.8121" y2="516.389" gradientTransform="matrix(1 0 0 -1 0 800)">
	<stop  offset="0" style="stop-color:#FFFFFF"/>
	<stop  offset="1" style="stop-color:#757575"/>
</linearGradient>
<polygon class="st37" points="597.5,253.7 484.1,188.2 484.1,219.2 597.5,284.7 "/>
<linearGradient id="SVGID_3_" gradientUnits="userSpaceOnUse" x1="522.6542" y1="463.6311" x2="552.0098" y2="514.654" gradientTransform="matrix(1 0 0 -1 0 800)">
	<stop  offset="0" style="stop-color:#FFFFFF;stop-opacity:0"/>
	<stop  offset="1" style="stop-color:#000000"/>
</linearGradient>
<polygon class="st38" points="593.9,309.2 479.3,243 484.4,315.1 595.2,379 "/>
<g class="st3">
	<g class="st30">
		<g>
			<polygon class="st39" points="467.3,257.8 477.6,263.7 477.6,255.8 467.3,249.9 			"/>
			<polygon class="st39" points="487.9,269.6 498.1,275.6 498.1,267.7 487.9,261.7 			"/>
			<polygon class="st39" points="508.4,281.5 518.7,287.4 518.7,279.5 508.4,273.6 			"/>
			<polygon class="st39" points="528.9,293.4 539.2,299.3 539.2,291.4 528.9,285.5 			"/>
			<polygon class="st39" points="549.5,305.2 559.7,311.1 559.7,303.2 549.5,297.3 			"/>
			<polygon class="st39" points="570,317.1 580.2,323 580.2,315.1 570,309.2 			"/>
			<polygon class="st40" points="477.6,263.7 487.9,269.6 487.9,261.7 477.6,255.8 			"/>
			<polygon class="st40" points="498.1,275.6 508.4,281.5 508.4,273.6 498.1,267.7 			"/>
			<polygon class="st40" points="518.7,287.4 528.9,293.4 528.9,285.5 518.7,279.5 			"/>
			<polygon class="st40" points="539.2,299.3 549.5,305.2 549.5,297.3 539.2,291.4 			"/>
			<polygon class="st40" points="559.7,311.1 570,317.1 570,309.2 559.7,303.2 			"/>
			<polygon class="st41" points="467.3,249.9 481,242 491.3,247.9 477.6,255.8 			"/>
			<polygon class="st42" points="477.6,255.8 491.3,247.9 501.6,253.8 487.9,261.7 			"/>
			<polygon class="st42" points="498.1,267.7 511.8,259.8 522.1,265.7 508.4,273.6 			"/>
			<polygon class="st42" points="518.7,279.5 532.3,271.6 542.6,277.5 528.9,285.5 			"/>
			<polygon class="st42" points="559.7,303.2 573.4,295.3 583.7,301.3 570,309.2 			"/>
			<polygon class="st41" points="487.9,261.7 501.6,253.8 511.8,259.8 498.1,267.7 			"/>
			<polygon class="st41" points="508.4,273.6 522.1,265.7 532.3,271.6 518.7,279.5 			"/>
			<polygon class="st41" points="528.9,285.5 542.6,277.5 552.9,283.5 539.2,291.4 			"/>
			<polygon class="st41" points="549.5,297.3 563.1,289.4 573.4,295.3 559.7,303.2 			"/>
			<polygon class="st41" points="570,309.2 583.7,301.3 593.9,307.2 580.2,315.1 			"/>
			<polygon class="st42" points="539.2,291.4 552.9,283.5 563.1,289.4 549.5,297.3 			"/>
		</g>
	</g>
	<polygon class="st43" points="593.9,307.2 593.9,309.2 580.2,317.1 580.2,315.1 	"/>
</g>
<linearGradient id="SVGID_4_" gradientUnits="userSpaceOnUse" x1="478.5021" y1="552.5059" x2="586.2548" y2="488.2737" gradientTransform="matrix(1 0 0 -1 0 800)">
	<stop  offset="0" style="stop-color:#FFFFFF"/>
	<stop  offset="1" style="stop-color:#757575"/>
</linearGradient>
<polygon class="st44" points="481,242 467.3,249.9 580.2,315.1 593.9,307.2 "/>
<linearGradient id="SVGID_5_" gradientUnits="userSpaceOnUse" x1="473.0411" y1="543.778" x2="577.9343" y2="481.2503" gradientTransform="matrix(1 0 0 -1 0 800)">
	<stop  offset="0" style="stop-color:#FFFFFF"/>
	<stop  offset="1" style="stop-color:#757575"/>
</linearGradient>
<polygon class="st45" points="467.3,249.9 467.3,257.8 580.2,323 580.2,315.1 "/>
<text transform="matrix(0.75 0.433 0 1 502.5351 224.7792)" class="st46 st47 st48">MY SHOP</text>
<polygon class="st19" points="518.7,342.7 522.1,340.8 549.5,356.6 549.5,360.5 "/>
<linearGradient id="SVGID_6_" gradientUnits="userSpaceOnUse" x1="520.5516" y1="458.9307" x2="530.6058" y2="452.563" gradientTransform="matrix(1 0 0 -1 0 800)">
	<stop  offset="0" style="stop-color:#000000"/>
	<stop  offset="1" style="stop-color:#FFFFFF"/>
</linearGradient>
<polygon class="st49" points="518.7,342.7 522.1,340.8 549.5,356.6 549.5,360.5 "/>
<polygon class="st7" points="268.8,375.4 304.9,397 411.2,334.8 362.7,304.7 "/>
<g id="XMLID_67_" class="st3">
	<g id="XMLID_88_" class="st30">
		<g id="XMLID_89_" class="st50">
			<g id="XMLID_95_">
				<path id="XMLID_96_" class="st51" d="M743.5,287l-7.6,4.4c0.1,0,0.2-0.1,0.2-0.2l7.6-4.4C743.6,286.9,743.5,286.9,743.5,287z"/>
			</g>
			<g id="XMLID_93_">
				<polygon id="XMLID_94_" class="st52" points="739.6,285.1 747.3,280.6 743.7,286.8 736,291.2 				"/>
			</g>
			<path id="XMLID_92_" class="st53" d="M755.8,245.7l-26.1-15.1c-1.2-0.7-2.3-0.8-3-0.3l-7.6,4.4c0.8-0.5,1.9-0.4,3,0.3l26.1,15.1
				c2.4,1.4,4.3,4.7,4.3,7.4l-0.1,30c0,1.4-0.5,2.3-1.3,2.7l7.6-4.4c0.8-0.4,1.2-1.4,1.3-2.7l0.1-30
				C760.1,250.3,758.2,247,755.8,245.7z"/>
			<g id="XMLID_90_">
				<path id="XMLID_91_" class="st54" d="M748.2,250.1c2.4,1.4,4.3,4.7,4.3,7.4l-0.1,30c0,2.7-1.9,3.8-4.3,2.5l-8.4-4.9l-3.6,6.1
					c-0.2,0.4-0.6,0.4-1,0.1c-0.4-0.2-0.8-0.7-1-1.3l-3.6-10.3l-8.4-4.9c-2.4-1.4-4.3-4.7-4.3-7.4l0.1-30c0-2.7,1.9-3.8,4.3-2.5
					L748.2,250.1z"/>
			</g>
		</g>
	</g>
	<g id="XMLID_68_" class="st30">
		<g id="XMLID_69_" class="st50">
			<path id="XMLID_87_" class="st55" d="M729.4,260.6c-0.7-0.4-1.1-1.1-1.1-2.3v-8.7c0-0.6,0.1-0.9,0.3-1.1l-1.8,1
				c-0.2,0.1-0.3,0.5-0.3,1.1v8.7c0,1.1,0.4,1.8,1.1,2.3c0.3,0.2,0.6,0.2,0.8,0.1l1.8-1C730,260.8,729.7,260.8,729.4,260.6z"/>
			<path id="XMLID_86_" class="st55" d="M740.3,276.2c-0.7-0.4-1.1-1.1-1.1-2.3v-8.7c0-0.6,0.1-0.9,0.3-1.1l-1.8,1
				c-0.2,0.1-0.3,0.5-0.3,1.1v8.7c0,1.1,0.4,1.8,1.1,2.3c0.3,0.2,0.6,0.2,0.8,0.1l1.8-1C740.9,276.5,740.6,276.4,740.3,276.2z"/>
			<path id="XMLID_85_" class="st56" d="M729.4,246.4c-1.1-0.6-1.9-0.7-2.4-0.4l-1.8,1c0.6-0.3,1.4-0.2,2.4,0.4
				c2.2,1.3,3.3,3.4,3.3,6v8.3c0,1.3-0.3,2.2-0.9,2.5l1.8-1c0.6-0.3,0.9-1.2,0.9-2.5v-8.3C732.7,249.8,731.6,247.7,729.4,246.4z"/>
			<g id="XMLID_81_">
				<path id="XMLID_82_" class="st57" d="M730.9,261.8c0,2.6-1.2,3.4-3.4,2.1s-3.3-3.4-3.3-6v-8.3c0-2.6,1.2-3.4,3.4-2.1
					c2.2,1.3,3.3,3.4,3.3,6V261.8z M726.4,259.4c0,1.1,0.4,1.8,1.1,2.3c0.7,0.4,1.1,0.2,1.1-0.9v-8.7c0-1.1-0.4-1.9-1.1-2.3
					c-0.7-0.4-1.1-0.2-1.1,0.9V259.4"/>
			</g>
			<path id="XMLID_80_" class="st56" d="M740.3,262c-1.1-0.6-1.9-0.7-2.4-0.4l-1.8,1c0.6-0.3,1.4-0.2,2.4,0.4c2.2,1.3,3.3,3.4,3.3,6
				v8.3c0,1.3-0.3,2.2-0.9,2.5l1.8-1c0.6-0.3,0.9-1.2,0.9-2.5V268C743.7,265.4,742.5,263.3,740.3,262z"/>
			<g id="XMLID_78_">
				<polygon id="XMLID_79_" class="st55" points="738.4,253.9 740.2,252.8 731.4,273.2 729.6,274.2 				"/>
			</g>
			<g id="XMLID_74_">
				<path id="XMLID_75_" class="st57" d="M738.5,263.1c2.2,1.3,3.3,3.4,3.3,6v8.3c0,2.6-1.2,3.4-3.4,2.1s-3.3-3.4-3.3-6v-8.3
					C735.2,262.6,736.4,261.8,738.5,263.1z M739.6,276.3v-8.7c0-1.1-0.4-1.9-1.1-2.3c-0.7-0.4-1.1-0.2-1.1,0.9v8.7
					c0,1.1,0.4,1.8,1.1,2.3C739.2,277.7,739.6,277.4,739.6,276.3"/>
			</g>
			<g id="XMLID_72_">
				<polygon id="XMLID_73_" class="st57" points="736.3,252.7 738.4,253.9 729.6,274.2 727.5,273 				"/>
			</g>
			<g id="XMLID_70_">
				<polygon id="XMLID_71_" class="st56" points="736.3,252.7 738.1,251.6 740.2,252.8 738.4,253.9 				"/>
			</g>
		</g>
	</g>
</g>
<g id="XMLID_1_" class="st3">
	<g id="XMLID_59_" class="st30">
		<g id="XMLID_60_" class="st50">
			<g id="XMLID_65_">
				<polygon id="XMLID_66_" class="st58" points="638.1,184.2 644.6,180.4 644.5,217.8 638,221.6 				"/>
			</g>
			<g id="XMLID_63_">
				<polygon id="XMLID_64_" class="st59" points="584.4,153.2 590.9,149.4 644.6,180.4 638.1,184.2 				"/>
			</g>
			<g id="XMLID_61_">
				<polygon id="XMLID_62_" class="st60" points="638.1,184.2 638,221.6 584.3,190.6 584.4,153.2 				"/>
			</g>
		</g>
	</g>
	<g id="XMLID_57_" class="st30">
		<polygon id="XMLID_58_" class="st61" points="635.4,185.7 635.3,216.9 587,189 587.1,157.9 		"/>
	</g>
	<g id="XMLID_2_" class="st30">
		<g id="XMLID_48_" class="st50">
			<g id="XMLID_55_">
				<polygon id="XMLID_56_" class="st62" points="591.8,182.3 594.8,180.6 597.4,182.1 594.4,183.8 				"/>
			</g>
			<path id="XMLID_54_" class="st55" d="M598.7,186.2c-0.9-0.5-1.4-1.3-1.4-2.7v-1.4l-3,1.7v1.4c0,1.4,0.5,2.2,1.4,2.7
				c0.4,0.2,0.8,0.3,1,0.2l3-1.7C599.5,186.5,599.2,186.5,598.7,186.2z"/>
			<g id="XMLID_52_">
				<path id="XMLID_53_" class="st55" d="M595,173.3l3-1.7c-0.3,0.2-0.4,0.6-0.4,1.3c0,4.1,5.3,7.9,5.2,13.5c0,1.6-0.4,2.7-1.1,3.1
					l-3,1.7c0.7-0.4,1.1-1.5,1.1-3.1c0-5.6-5.3-9.4-5.2-13.5C594.6,173.9,594.8,173.5,595,173.3z"/>
			</g>
			<path id="XMLID_51_" class="st56" d="M598.9,168.9c-1.3-0.7-2.2-0.9-2.9-0.5l-3,1.7c0.7-0.4,1.6-0.2,2.9,0.5c2.6,1.5,4,4.1,4,7.3
				v0.6l3-1.7v-0.6C602.9,173,601.5,170.4,598.9,168.9z"/>
			<g id="XMLID_49_">
				<path id="XMLID_50_" class="st57" d="M595.9,170.7c2.6,1.5,4,4.1,4,7.3v0.6l-2.6-1.5v-0.8c0-1.4-0.5-2.2-1.3-2.7
					c-0.9-0.5-1.4-0.2-1.4,1.2c0,4.1,5.3,7.9,5.2,13.5c0,3.2-1.4,4.2-4,2.6c-2.6-1.5-4-4.1-4-7.3v-1.2l2.5,1.5v1.4
					c0,1.4,0.5,2.2,1.4,2.7s1.4,0.3,1.4-1.1c0-4.1-5.3-7.9-5.2-13.5C591.9,170.2,593.3,169.1,595.9,170.7z"/>
			</g>
		</g>
		<g id="XMLID_33_" class="st50">
			<g id="XMLID_46_">
				<polygon id="XMLID_47_" class="st55" points="603.7,191.5 606.6,189.8 606.1,193.1 603.2,194.8 				"/>
			</g>
			<g id="XMLID_44_">
				<polygon id="XMLID_45_" class="st62" points="604,189 607,187.3 609.6,188.8 606.6,190.5 				"/>
			</g>
			<g id="XMLID_42_">
				<polygon id="XMLID_43_" class="st55" points="605.3,179.8 608.3,178.1 607,187.3 604,189 				"/>
			</g>
			<g id="XMLID_40_">
				<polygon id="XMLID_41_" class="st56" points="603.5,175.3 606.5,173.5 610.4,175.8 607.5,177.5 				"/>
			</g>
			<g id="XMLID_38_">
				<polygon id="XMLID_39_" class="st55" points="607.5,177.5 610.4,175.8 613.1,197.1 610.2,198.9 				"/>
			</g>
			<g id="XMLID_34_">
				<path id="XMLID_35_" class="st57" d="M607.5,177.5l2.7,21.3l-2.7-1.6l-0.5-3.9l-3.3-1.9l-0.5,3.3l-2.5-1.4l2.8-18.1L607.5,177.5
					z M604,189l2.6,1.5l-1.3-10.7L604,189"/>
			</g>
		</g>
		<g id="XMLID_22_" class="st50">
			<g id="XMLID_31_">
				<polygon id="XMLID_32_" class="st62" points="614.1,198.3 617.1,196.6 621.5,199.2 618.5,200.9 				"/>
			</g>
			<g id="XMLID_29_">
				<polygon id="XMLID_30_" class="st55" points="618.5,200.9 621.5,199.2 621.5,202 618.5,203.7 				"/>
			</g>
			<g id="XMLID_27_">
				<polygon id="XMLID_28_" class="st55" points="614.2,181.4 617.1,179.7 617.1,196.6 614.1,198.3 				"/>
			</g>
			<g id="XMLID_25_">
				<polygon id="XMLID_26_" class="st56" points="611.5,179.8 614.4,178.1 617.1,179.7 614.2,181.4 				"/>
			</g>
			<g id="XMLID_23_">
				<polygon id="XMLID_24_" class="st57" points="614.2,181.4 614.1,198.3 618.5,200.9 618.5,203.7 611.4,199.6 611.5,179.8 				"/>
			</g>
		</g>
		<g id="XMLID_3_" class="st50">
			<g id="XMLID_20_">
				<polygon id="XMLID_21_" class="st55" points="627.1,205.8 630,204.1 630,206.9 627.1,208.6 				"/>
			</g>
			<g id="XMLID_18_">
				<polygon id="XMLID_19_" class="st62" points="622.4,203.1 625.4,201.4 630,204.1 627.1,205.8 				"/>
			</g>
			<g id="XMLID_16_">
				<polygon id="XMLID_17_" class="st55" points="622.4,197.3 625.4,195.6 625.4,201.4 622.4,203.1 				"/>
			</g>
			<g id="XMLID_14_">
				<polygon id="XMLID_15_" class="st62" points="622.4,194.5 625.4,192.8 629.1,194.9 626.2,196.7 				"/>
			</g>
			<g id="XMLID_12_">
				<polygon id="XMLID_13_" class="st55" points="626.2,196.7 629.1,194.9 629.1,197.8 626.1,199.5 				"/>
			</g>
			<g id="XMLID_10_">
				<polygon id="XMLID_11_" class="st55" points="622.5,189 625.4,187.3 625.4,192.8 622.4,194.5 				"/>
			</g>
			<g id="XMLID_8_">
				<polygon id="XMLID_9_" class="st57" points="627.1,188.9 627.1,191.7 622.5,189 622.4,194.5 626.2,196.7 626.1,199.5 
					622.4,197.3 622.4,203.1 627.1,205.8 627.1,208.6 619.7,204.4 619.8,184.6 				"/>
			</g>
			<g id="XMLID_6_">
				<polygon id="XMLID_7_" class="st55" points="627.1,188.9 630.1,187.2 630.1,190 627.1,191.7 				"/>
			</g>
			<g id="XMLID_4_">
				<polygon id="XMLID_5_" class="st56" points="619.8,184.6 622.7,182.9 630.1,187.2 627.1,188.9 				"/>
			</g>
		</g>
	</g>
</g>
<polygon class="st10" points="404,334.8 401.2,337.1 370.9,315.3 369.4,243.9 372.8,239.6 405.1,258 "/>
<polygon class="st9" points="401.2,337.1 368.4,317.9 370.1,241.5 401.9,259.3 "/>
<path class="st63" d="M397.3,287.7l-37,20.7c-1.2,0.7-2.7-0.2-2.7-1.6l0,0c0-0.6,0.3-1.2,0.9-1.6l37-20.7c1.2-0.7,2.7,0.2,2.7,1.6
	l0,0C398.2,286.8,397.9,287.4,397.3,287.7z"/>
<polygon class="st10" points="358.3,362.7 355.5,365.1 325.2,343.3 323.7,269 327.4,267.1 359.2,285.3 "/>
<polygon class="st9" points="355.5,365.1 322.7,345.9 323.7,269 356.1,287.3 "/>
<line class="st64" x1="356.1" y1="287.3" x2="359.2" y2="285.7"/>
<path class="st63" d="M350.8,314.2l-41.7,24.7c-1.2,0.7-2.7-0.1-2.7-1.5l0,0c0-0.6,0.3-1.2,0.9-1.5l41.7-24.7
	c1.2-0.7,2.7,0.1,2.7,1.5l0,0C351.6,313.3,351.3,313.9,350.8,314.2z"/>
<polygon class="st10" points="307.1,391.9 304.2,394.3 274,372.5 272.4,298.2 276.1,296.3 307.9,314.5 "/>
<line class="st64" x1="304.9" y1="316.4" x2="307.9" y2="314.8"/>
<polygon class="st9" points="304.2,394.3 270.6,374.3 271.4,297.7 304.9,316.4 "/>
<polygon class="st10" points="404.9,276.5 304.9,334.8 304.9,316.4 405.1,258 "/>
<polygon class="st12" points="405.1,258 304.9,316.4 271.4,297.7 372.8,239.6 "/>
<path class="st12" d="M395.2,341c-1.4,0.7-3.1,0.5-4.7,0.7c-1.6,0.1-3.4,1-3.6,2.5c-0.1,0.4,0,0.9-0.2,1.3s-0.5,0.6-0.9,0.8
	c-3.3,1.9-8.1,0.5-10.5,3.4c-1.3,1.7-1.6,4.5-3.6,5.1c-0.8,0.2-1.7,0-2.5-0.1c-2.1-0.2-4.4,0.5-6,1.9c-2.8,2.5-2.2-1.2-2.1-3.1
	c0-1.7,0-3.4,0-5.1c0-13.5,0-27,0-40.5l34.2-19.1c0,1.6,0.1,3.9,0.1,5.5C395.6,302.5,396.9,340.1,395.2,341z"/>
<path class="st12" d="M350.8,366.5c-4.8,3.2-6.1,6.1-11.7,5.7c-1.6-0.1-3.4,1-3.6,2.5c-0.1,0.4,0,0.9-0.2,1.3s-0.5,0.6-0.9,0.8
	c-3.3,1.9-8.1,0.5-10.5,3.4c-1.3,1.7-1.6,4.5-3.6,5.1c-0.8,0.2-1.7,0-2.5-0.1c-2.1-0.2-4.4,0.5-6,1.9c-2.8,2.5-2.2-1.2-2.1-3.1
	c0-1.7,0-3.4,0-5.1c0-13.5,0-27,0-40.5l41.1-24.2c0,1.6,0,8.1,0,9.8C350.8,332.3,352.4,365.5,350.8,366.5z"/>
<linearGradient id="SVGID_7_" gradientUnits="userSpaceOnUse" x1="361.1573" y1="476.8804" x2="396.0902" y2="476.8804" gradientTransform="matrix(1 0 0 -1 0 800)">
	<stop  offset="0" style="stop-color:#FFFFFF"/>
	<stop  offset="1" style="stop-color:#757575"/>
</linearGradient>
<path class="st65" d="M395.2,341c-1.4,0.7-3.1,0.5-4.7,0.7c-1.6,0.1-3.4,1-3.6,2.5c-0.1,0.4,0,0.9-0.2,1.3s-0.5,0.6-0.9,0.8
	c-3.3,1.9-8.1,0.5-10.5,3.4c-1.3,1.7-1.6,4.5-3.6,5.1c-0.8,0.2-1.7,0-2.5-0.1c-2.1-0.2-4.4,0.5-6,1.9c-2.8,2.5-2.2-1.2-2.1-3.1
	c0-1.7,0-3.4,0-5.1c0-13.5,0-27,0-40.5l34.2-19.1c0,1.6,0.1,3.9,0.1,5.5C395.6,302.5,396.9,340.1,395.2,341z"/>
<linearGradient id="SVGID_8_" gradientUnits="userSpaceOnUse" x1="309.6362" y1="448.9304" x2="351.4941" y2="448.9304" gradientTransform="matrix(1 0 0 -1 0 800)">
	<stop  offset="0" style="stop-color:#FFFFFF"/>
	<stop  offset="1" style="stop-color:#757575"/>
</linearGradient>
<path class="st66" d="M350.8,366.5c-4.8,3.2-6.1,6.1-11.7,5.7c-1.6-0.1-3.4,1-3.6,2.5c-0.1,0.4,0,0.9-0.2,1.3s-0.5,0.6-0.9,0.8
	c-3.3,1.9-8.1,0.5-10.5,3.4c-1.3,1.7-1.6,4.5-3.6,5.1c-0.8,0.2-1.7,0-2.5-0.1c-2.1-0.2-4.4,0.5-6,1.9c-2.8,2.5-2.2-1.2-2.1-3.1
	c0-1.7,0-3.4,0-5.1c0-13.5,0-27,0-40.5l41.1-24.2c0,1.6,0,8.1,0,9.8C350.8,332.3,352.4,365.5,350.8,366.5z"/>
<linearGradient id="SVGID_9_" gradientUnits="userSpaceOnUse" x1="25.4" y1="589.4" x2="121.5" y2="589.4" gradientTransform="matrix(1 0 0 -1 0 800)">
	<stop  offset="0" style="stop-color:#8D2AFF"/>
	<stop  offset="1" style="stop-color:#16FFF9"/>
</linearGradient>
<polygon class="st67" points="49.3,238.1 25.4,223.9 96.3,183.1 121.5,197.3 "/>
<linearGradient id="SVGID_10_" gradientUnits="userSpaceOnUse" x1="37.35" y1="513.7" x2="37.35" y2="576.1" gradientTransform="matrix(1 0 0 -1 0 800)">
	<stop  offset="0" style="stop-color:#8D2AFF"/>
	<stop  offset="1" style="stop-color:#16FFF9"/>
</linearGradient>
<polygon class="st68" points="49.3,286.3 25.4,272.2 25.4,223.9 49.3,238.1 "/>
<linearGradient id="SVGID_11_" gradientUnits="userSpaceOnUse" x1="49.3" y1="558.2" x2="121.5" y2="558.2" gradientTransform="matrix(1 0 0 -1 0 800)">
	<stop  offset="0" style="stop-color:#8D2AFF"/>
	<stop  offset="1" style="stop-color:#16FFF9"/>
</linearGradient>
<polygon class="st69" points="121.5,197.3 121.5,245.2 49.3,286.3 49.3,238.1 "/>
<linearGradient id="SVGID_12_" gradientUnits="userSpaceOnUse" x1="57.2" y1="625.75" x2="153.3" y2="625.75" gradientTransform="matrix(1 0 0 -1 0 800)">
	<stop  offset="0" style="stop-color:#8D2AFF"/>
	<stop  offset="1" style="stop-color:#16FFF9"/>
</linearGradient>
<polygon class="st70" points="81.2,201.8 57.2,187.5 128.2,146.7 153.3,161 "/>
<linearGradient id="SVGID_13_" gradientUnits="userSpaceOnUse" x1="69.2" y1="495.4" x2="69.2" y2="612.5" gradientTransform="matrix(1 0 0 -1 0 800)">
	<stop  offset="0" style="stop-color:#8D2AFF"/>
	<stop  offset="1" style="stop-color:#16FFF9"/>
</linearGradient>
<polygon class="st71" points="81.2,304.6 57.2,290.6 57.2,187.5 81.2,201.7 "/>
<linearGradient id="SVGID_14_" gradientUnits="userSpaceOnUse" x1="81.2" y1="567.2" x2="153.3" y2="567.2" gradientTransform="matrix(1 0 0 -1 0 800)">
	<stop  offset="0" style="stop-color:#8D2AFF"/>
	<stop  offset="1" style="stop-color:#16FFF9"/>
</linearGradient>
<polygon class="st72" points="153.3,161 148.1,266.6 81.2,304.6 81.2,201.7 "/>
<linearGradient id="SVGID_15_" gradientUnits="userSpaceOnUse" x1="90.8" y1="665.1" x2="186.9" y2="665.1" gradientTransform="matrix(1 0 0 -1 0 800)">
	<stop  offset="0" style="stop-color:#8D2AFF"/>
	<stop  offset="1" style="stop-color:#16FFF9"/>
</linearGradient>
<polygon class="st73" points="114.8,162.4 90.8,148.2 161.8,107.4 186.9,121.6 "/>
<linearGradient id="SVGID_16_" gradientUnits="userSpaceOnUse" x1="102.9" y1="474.8" x2="102.9" y2="651.8" gradientTransform="matrix(1 0 0 -1 0 800)">
	<stop  offset="0" style="stop-color:#8D2AFF"/>
	<stop  offset="1" style="stop-color:#16FFF9"/>
</linearGradient>
<polygon class="st74" points="115,325.2 90.8,311 90.8,148.2 114.8,162.4 "/>
<linearGradient id="SVGID_17_" gradientUnits="userSpaceOnUse" x1="114.8" y1="576.6" x2="186.9" y2="576.6" gradientTransform="matrix(1 0 0 -1 0 800)">
	<stop  offset="0" style="stop-color:#8D2AFF"/>
	<stop  offset="1" style="stop-color:#16FFF9"/>
</linearGradient>
<polygon class="st75" points="186.9,121.6 181.4,286.7 115,325.2 114.8,162.4 "/>
<polygon class="st7" points="657.9,383.2 642.5,392.8 658.7,401.8 673.8,392.4 "/>
<polygon class="st7" points="427,306.8 411.5,316.3 427.8,325.4 442.8,316 "/>
<polygon class="st7" points="261.6,397.4 246.2,407 262.4,416 277.5,406.6 "/>
<g class="st3">
	<polygon class="st76" points="262.1,414.2 275.4,406.4 262.1,362.2 	"/>
	<polygon class="st77" points="248.4,406.9 262.1,362.2 262.1,414.2 	"/>
</g>
<g class="st3">
	<polygon class="st76" points="427.7,323.7 440.9,315.9 427.7,271.7 	"/>
	<polygon class="st77" points="413.9,316.4 427.7,271.7 427.7,323.7 	"/>
</g>
<g class="st3">
	<polygon class="st76" points="658.7,400.3 672,392.6 658.7,348.3 	"/>
	<polygon class="st77" points="645,393.1 658.7,348.3 658.7,400.3 	"/>
</g>
<polygon id="XMLID_1209_" class="st10" points="531.2,420.6 506.4,406.2 506.4,397.8 531.2,412.2 "/>
<g id="XMLID_1232_" class="st78">
	<g id="XMLID_1233_" class="st79">
		<g id="XMLID_1234_">
			<polygon id="XMLID_1235_" class="st80" points="498.2,421.7 527.5,438.6 587,404.3 557.6,387.4 			"/>
		</g>
	</g>
</g>
<g id="XMLID_1215_" class="st3">
	<g id="XMLID_1218_" class="st30">
		<polygon id="XMLID_1219_" class="st40" points="559.7,372 562.6,370.3 583.3,382.3 580.3,384 		"/>
	</g>
	<polygon id="XMLID_1217_" class="st81" points="580.3,404.8 580.3,384 559.7,372 559.7,393 	"/>
	<polygon id="XMLID_1216_" class="st82" points="580.3,404.8 583.2,403.1 583.3,382.3 580.3,384 	"/>
</g>
<g id="XMLID_1211_" class="st3">
	<g id="XMLID_1212_" class="st79">
		<g id="XMLID_1213_">
			<polygon id="XMLID_1214_" class="st83" points="506.4,397.8 531.2,412.2 581.6,383.1 556.7,368.8 			"/>
		</g>
	</g>
</g>
<polygon id="XMLID_1210_" class="st12" points="581.6,383.1 531.2,412.2 531.2,420.6 581.5,391.5 "/>
<g id="XMLID_1203_" class="st3">
	<g id="XMLID_1206_" class="st30">
		<polygon id="XMLID_1207_" class="st40" points="505.6,403.3 508.5,401.6 529.1,413.5 526.2,415.2 		"/>
	</g>
	<polygon id="XMLID_1205_" class="st84" points="526.1,436.1 526.2,415.2 505.6,403.3 505.6,424.2 	"/>
	<polygon id="XMLID_1204_" class="st82" points="526.1,436.1 529.1,434.4 529.1,413.5 526.2,415.2 	"/>
</g>
<g id="XMLID_1185_" class="st3">
	<g id="XMLID_1220_" class="st79">
		<g id="XMLID_1221_">
			<polygon id="XMLID_1222_" class="st85" points="511.6,400.9 512.7,401.5 563.1,372.4 561.9,371.8 			"/>
		</g>
	</g>
</g>
<g id="XMLID_1224_" class="st3">
	<g id="XMLID_1225_" class="st79">
		<g id="XMLID_1226_">
			<polygon id="XMLID_1227_" class="st85" points="517.7,404.4 518.8,405 569.2,376 568,375.3 			"/>
		</g>
	</g>
</g>
<g id="XMLID_1228_" class="st3">
	<g id="XMLID_1229_" class="st79">
		<g id="XMLID_1230_">
			<polygon id="XMLID_1231_" class="st85" points="524.5,408.3 525.6,408.9 575.9,379.9 574.8,379.2 			"/>
		</g>
	</g>
</g>
<polygon id="XMLID_1223_" class="st10" points="581.6,386.7 531.2,415.7 531.2,417.3 581.6,388.2 "/>
<g id="XMLID_188_" class="st78">
	<g id="XMLID_189_" class="st79">
		<g id="XMLID_190_">
			<polygon id="XMLID_191_" class="st80" points="416.7,471.5 446.1,488.4 505.6,454.1 476.2,437.2 			"/>
		</g>
	</g>
</g>
<g id="XMLID_183_" class="st3">
	<g id="XMLID_186_" class="st30">
		<polygon id="XMLID_187_" class="st40" points="478.2,421.8 481.1,420.1 501.8,432.1 498.9,433.8 		"/>
	</g>
	<polygon id="XMLID_185_" class="st81" points="498.8,454.6 498.9,433.8 478.2,421.8 478.2,442.8 	"/>
	<polygon id="XMLID_184_" class="st82" points="498.8,454.6 501.7,452.9 501.8,432.1 498.9,433.8 	"/>
</g>
<g id="XMLID_179_" class="st3">
	<g id="XMLID_180_" class="st79">
		<g id="XMLID_181_">
			<polygon id="XMLID_182_" class="st83" points="424.9,447.7 449.8,462 500.1,433 475.2,418.6 			"/>
		</g>
	</g>
</g>
<polygon id="XMLID_178_" class="st12" points="500.1,433 449.8,462 449.8,470.4 500.1,441.3 "/>
<g id="XMLID_173_" class="st3">
	<g id="XMLID_176_" class="st30">
		<polygon id="XMLID_177_" class="st40" points="424.1,453.1 427,451.4 447.7,463.3 444.8,465 		"/>
	</g>
	<polygon id="XMLID_175_" class="st84" points="444.7,485.9 444.8,465 424.1,453.1 424.1,474 	"/>
	<polygon id="XMLID_174_" class="st82" points="444.7,485.9 447.6,484.2 447.7,463.3 444.8,465 	"/>
</g>
<g id="XMLID_169_" class="st3">
	<g id="XMLID_170_" class="st79">
		<g id="XMLID_171_">
			<polygon id="XMLID_172_" class="st85" points="430.1,450.7 431.2,451.3 481.6,422.3 480.5,421.6 			"/>
		</g>
	</g>
</g>
<g id="XMLID_165_" class="st3">
	<g id="XMLID_166_" class="st79">
		<g id="XMLID_167_">
			<polygon id="XMLID_168_" class="st85" points="436.2,454.2 437.3,454.8 487.7,425.8 486.6,425.1 			"/>
		</g>
	</g>
</g>
<g id="XMLID_159_" class="st3">
	<g id="XMLID_160_" class="st79">
		<g id="XMLID_163_">
			<polygon id="XMLID_164_" class="st85" points="443,458.1 444.1,458.7 494.5,429.7 493.4,429 			"/>
		</g>
	</g>
</g>
<polygon id="XMLID_158_" class="st10" points="500.1,436.5 449.8,465.5 449.8,467.1 500.1,438 "/>
<g class="st3">
	<polygon class="st86" points="728.3,636.8 728.2,661.1 708.1,672.8 708.1,648.5 	"/>
</g>
<path class="st13" d="M708.1,648.5l-0.1,24.3c-0.1,0-0.2-0.1-0.2-0.1c-29.1-16.8-76-16.8-104.9,0c-0.2,0.1-0.3,0.2-0.4,0.3l0.1-24.3
	c0.2-0.1,0.3-0.2,0.4-0.3c28.9-16.8,75.8-16.8,104.9,0C708,648.4,708.1,648.4,708.1,648.5z"/>
<path class="st87" d="M707.9,648.3c-3.3-1.9-6.9-3.6-10.7-5.1c-2.9-1.1-5.9-2.2-9-3c-2.5-0.7-5.1-1.4-7.7-1.9
	c-2.4-0.5-4.9-0.9-7.4-1.3c-2.4-0.3-4.8-0.6-7.2-0.8s-4.9-0.3-7.3-0.4c-2.5-0.1-5.1-0.1-7.6,0c-2.8,0.1-5.5,0.3-8.2,0.5
	c-3.2,0.3-6.3,0.8-9.5,1.3c-4.8,0.9-9.5,2-14,3.5c-5.8,1.9-11.3,4.3-16.2,7.1c0,0,0,0-0.1,0c-0.1,0.1-0.2,0.1-0.3,0.2c0,0,0,0-0.1,0
	l-20.5-11.8l-0.1,24.3l20.5,11.8c0,0,0,0,0.1,0l0,0c0.1-0.1,0.2-0.1,0.3-0.2c0,0,0,0,0.1,0c4.9-2.9,10.4-5.3,16.2-7.1
	c4.5-1.5,9.2-2.6,14-3.5c3.1-0.6,6.3-1,9.5-1.3c2.7-0.3,5.5-0.5,8.2-0.5c2.5-0.1,5.1-0.1,7.6,0c2.4,0.1,4.9,0.2,7.3,0.4
	c2.4,0.2,4.8,0.5,7.2,0.8c2.5,0.4,4.9,0.8,7.4,1.3c2.6,0.5,5.2,1.2,7.7,1.9c3.1,0.9,6.1,1.9,9,3c3.8,1.5,7.4,3.2,10.7,5.1
	c0.1,0,0.2,0.1,0.2,0.1l0.1-24.3C708.1,648.4,708,648.4,707.9,648.3z"/>
<g class="st3">
	<path class="st88" d="M728.3,636.8l-20.1,11.7c-0.1,0-0.2-0.1-0.2-0.1c-29.1-16.8-76-16.8-104.9,0c-0.2,0.1-0.3,0.2-0.4,0.3
		l-20.5-11.8C622.4,613.4,687.8,613.4,728.3,636.8z"/>
</g>
<g class="st89">
	<g class="st30">
		<defs>
			<path id="SVGID_18_" d="M730.5,661l-0.1,24.3c0-11.1-7.3-22.1-21.9-30.6c-0.2-0.1-0.3-0.2-0.5-0.3l0.1-24.3
				c0.2,0.1,0.3,0.2,0.5,0.3C723.2,638.8,730.5,649.9,730.5,661z"/>
		</defs>
		<clipPath id="SVGID_19_">
			<use xlink:href="#SVGID_18_"  style="overflow:visible;"/>
		</clipPath>
		<g class="st90">
			<path class="st91" d="M730.5,661l-0.1,24.3c0-11.1-7.3-22.1-21.9-30.6c-0.2-0.1-0.3-0.2-0.5-0.3l0.1-24.3
				c0.2,0.1,0.3,0.2,0.5,0.3C723.2,638.8,730.5,649.9,730.5,661"/>
		</g>
	</g>
</g>
<g class="st3">
	<polygon class="st92" points="729,703 728.9,727.3 708.6,715.6 708.7,691.3 	"/>
</g>
<linearGradient id="SVGID_20_" gradientUnits="userSpaceOnUse" x1="728.8872" y1="105.8" x2="758.984" y2="105.8" gradientTransform="matrix(1 0 0 -1 0 800)">
	<stop  offset="0" style="stop-color:#8D2AFF"/>
	<stop  offset="1" style="stop-color:#16FFF9"/>
</linearGradient>
<path class="st93" d="M758.9,662.8c0,0.5-0.1,1-0.1,1.6c0,0.5-0.1,0.9-0.2,1.4c-0.1,0.5-0.1,1-0.2,1.5c-0.1,0.5-0.2,0.9-0.3,1.4
	s-0.2,1-0.4,1.5c-0.1,0.5-0.3,0.9-0.4,1.4c-0.2,0.5-0.3,1-0.5,1.5c-0.2,0.4-0.3,0.9-0.5,1.3c-0.2,0.5-0.4,1-0.7,1.6
	c-0.2,0.4-0.4,0.9-0.6,1.3c-0.3,0.5-0.5,1-0.8,1.5c-0.2,0.4-0.5,0.8-0.7,1.3c-0.4,0.6-0.7,1.2-1.1,1.8c-0.2,0.4-0.5,0.7-0.7,1.1
	c-0.5,0.7-1,1.3-1.5,2c-0.2,0.3-0.5,0.6-0.7,0.9c-0.1,0.1-0.2,0.3-0.4,0.4c-0.5,0.7-1.1,1.3-1.7,2c-0.2,0.2-0.3,0.4-0.5,0.5
	c-0.7,0.8-1.4,1.5-2.2,2.2c-0.1,0.1-0.3,0.3-0.4,0.4c-0.6,0.6-1.2,1.1-1.8,1.6c-0.5,0.4-1,0.9-1.5,1.3c-0.5,0.4-0.9,0.8-1.4,1.2
	s-1.1,0.8-1.6,1.3c-0.5,0.4-1,0.8-1.5,1.2c-0.6,0.4-1.1,0.8-1.7,1.2c-0.5,0.4-1.1,0.8-1.7,1.1c-0.6,0.4-1.2,0.8-1.9,1.2
	c-0.8,0.5-1.6,1-2.4,1.5l-0.1,24.3c0.4-0.2,0.8-0.5,1.3-0.7l0,0l0,0l0,0c0.4-0.2,0.8-0.5,1.1-0.7c0.6-0.4,1.3-0.8,1.9-1.2
	c0.6-0.4,1.1-0.7,1.6-1.1c0.6-0.4,1.2-0.8,1.7-1.2s1-0.8,1.5-1.2s1.1-0.8,1.6-1.3c0.5-0.4,1-0.8,1.4-1.2c0.5-0.4,1-0.9,1.5-1.3
	c0.2-0.2,0.4-0.4,0.6-0.5c0.4-0.4,0.8-0.7,1.2-1.1c0.1-0.1,0.3-0.3,0.4-0.4c0.7-0.7,1.5-1.5,2.2-2.2c0.2-0.2,0.3-0.4,0.5-0.5
	c0.6-0.7,1.1-1.3,1.7-2c0.1-0.1,0.2-0.3,0.3-0.4c0.1-0.1,0.1-0.1,0.2-0.2c0.2-0.2,0.4-0.5,0.5-0.7c0.5-0.7,1-1.3,1.5-2
	c0.3-0.4,0.5-0.7,0.7-1.1c0.4-0.6,0.8-1.2,1.1-1.8c0.1-0.2,0.2-0.3,0.3-0.5s0.3-0.5,0.4-0.8c0.3-0.5,0.5-1,0.8-1.5
	c0.2-0.4,0.4-0.9,0.6-1.3c0.2-0.5,0.5-1,0.7-1.6c0.1-0.2,0.2-0.5,0.3-0.7s0.1-0.4,0.2-0.6c0.2-0.5,0.3-1,0.5-1.5
	c0.1-0.5,0.3-0.9,0.4-1.4c0.1-0.5,0.3-1,0.4-1.5c0.1-0.3,0.1-0.5,0.2-0.8c0-0.2,0.1-0.4,0.1-0.6c0.1-0.5,0.2-1,0.2-1.5
	c0.1-0.5,0.1-0.9,0.2-1.4c0.1-0.5,0.1-1,0.1-1.6c0-0.3,0.1-0.6,0.1-0.9c0-0.3,0-0.6,0-0.9l0.1-24.3
	C759,661.5,758.9,662.1,758.9,662.8z"/>
<g class="st3">
	
		<linearGradient id="SVGID_21_" gradientUnits="userSpaceOnUse" x1="708.1478" y1="139.4" x2="758.9841" y2="139.4" gradientTransform="matrix(1 0 0 -1 0 800)">
		<stop  offset="0" style="stop-color:#8D2AFF"/>
		<stop  offset="1" style="stop-color:#16FFF9"/>
	</linearGradient>
	<path class="st94" d="M728.5,618.3c40.5,23.4,40.7,61.3,0.5,84.6l-20.2-11.7c0.1,0,0.2-0.1,0.3-0.1c28.9-16.8,28.7-44-0.3-60.7
		c-0.2-0.1-0.3-0.2-0.5-0.3L728.5,618.3z"/>
</g>
<g class="st3">
	<g class="st30">
		<path id="SVGID_24_" class="st91" d="M580.5,703.1l0.1-24.3c0-10.9,7.2-21.8,21.5-30.2c0.1,0,0.2-0.1,0.3-0.1l-0.1,24.3
			c-0.1,0-0.2,0.1-0.3,0.1C587.7,681.3,580.6,692.2,580.5,703.1z"/>
	</g>
	<g class="st30">
		<defs>
			<path id="SVGID_22_" d="M580.5,703.1l0.1-24.3c0-10.9,7.2-21.8,21.5-30.2c0.1,0,0.2-0.1,0.3-0.1l-0.1,24.3
				c-0.1,0-0.2,0.1-0.3,0.1C587.7,681.3,580.6,692.2,580.5,703.1z"/>
		</defs>
		<clipPath id="SVGID_23_">
			<use xlink:href="#SVGID_22_"  style="overflow:visible;"/>
		</clipPath>
		<g class="st95">
			<path class="st91" d="M602.1,648.6c-0.3,0.2-0.6,0.4-0.9,0.5c-3.6,2.2-6.7,4.5-9.4,7c-1.7,1.6-3.3,3.3-4.6,4.9
				c-1.1,1.4-2.1,2.9-3,4.4c-0.8,1.4-1.4,2.8-2,4.2c-0.5,1.4-0.9,2.8-1.2,4.2s-0.4,2.8-0.5,4.3l-0.1,24.3c0-1.4,0.2-2.8,0.5-4.3
				c0.3-1.4,0.7-2.8,1.2-4.2s1.2-2.8,2-4.2c0.8-1.5,1.8-3,3-4.4c1.3-1.7,2.9-3.3,4.6-4.9c2.7-2.5,5.8-4.8,9.4-7
				c0.3-0.2,0.6-0.4,0.9-0.5c0.1,0,0.2-0.1,0.3-0.1l0.1-24.3C602.3,648.5,602.2,648.6,602.1,648.6z"/>
			<path class="st91" d="M580.6,678.1l-0.1,24.3c0,0.2,0,0.4,0,0.7l0.1-24.3C580.6,678.6,580.6,678.3,580.6,678.1"/>
		</g>
	</g>
</g>
<g class="st3">
	<polygon class="st96" points="603,709.6 602.9,733.9 582.6,745.7 582.6,721.4 	"/>
</g>
<g class="st3">
	<g class="st30">
		<g>
			<path id="SVGID_28_" class="st97" d="M552,703.1l0.1-24.3c0,15.4,10.1,30.9,30.5,42.6l-0.1,24.3C562.2,734,552,718.5,552,703.1z"
				/>
		</g>
		<g>
			<defs>
				<path id="SVGID_25_" d="M552,703.1l0.1-24.3c0,15.4,10.1,30.9,30.5,42.6l-0.1,24.3C562.2,734,552,718.5,552,703.1z"/>
			</defs>
			<clipPath id="SVGID_26_">
				<use xlink:href="#SVGID_25_"  style="overflow:visible;"/>
			</clipPath>
			<g class="st98">
				<path class="st97" d="M582.6,721.4l-0.1,24.3C562.2,734,552,718.5,552,703.1l0.1-24.3C552.1,694.2,562.2,709.7,582.6,721.4"/>
			</g>
		</g>
	</g>
</g>
<g class="st3">
	<path class="st77" d="M602.4,648.5c-0.1,0-0.2,0.1-0.3,0.1c-28.9,16.8-28.7,44,0.3,60.7c0.2,0.1,0.3,0.2,0.5,0.3l-20.3,11.8
		c-40.5-23.4-40.7-61.3-0.5-84.6L602.4,648.5z"/>
</g>
<path class="st99" d="M712.3,753.5c1.7-0.7,3.5-1.4,5.2-2.1c0.4-0.2,0.9-0.4,1.3-0.6c1.3-0.6,2.6-1.2,3.8-1.8
	c0.5-0.2,0.9-0.5,1.4-0.7c1.6-0.8,3.2-1.7,4.8-2.6l0.1-24.3c-1.5,0.9-3.1,1.7-4.8,2.6c-0.5,0.2-0.9,0.5-1.4,0.7
	c-1.3,0.6-2.5,1.2-3.8,1.8c-0.4,0.2-0.9,0.4-1.3,0.6c-1.7,0.7-3.4,1.4-5.2,2.1c-0.3,0.1-0.6,0.2-0.9,0.3c-1.5,0.5-3,1.1-4.5,1.6
	c-0.6,0.2-1.2,0.4-1.9,0.6c-0.8,0.3-1.7,0.5-2.5,0.8c-0.7,0.2-1.4,0.4-2.1,0.6c-0.9,0.2-1.7,0.5-2.6,0.7c-0.7,0.2-1.4,0.4-2.2,0.5
	c-0.9,0.2-1.7,0.4-2.6,0.6c-0.7,0.2-1.5,0.3-2.2,0.5c-0.9,0.2-1.8,0.4-2.7,0.5c-0.7,0.1-1.4,0.3-2.1,0.4c-1.9,0.3-3.9,0.7-5.8,0.9
	c-0.3,0-0.6,0.1-0.8,0.1c-1.7,0.2-3.4,0.4-5.1,0.6c-0.7,0.1-1.3,0.1-2,0.2c-1.1,0.1-2.2,0.2-3.3,0.3c-0.7,0.1-1.4,0.1-2.1,0.1
	c-1.2,0.1-2.3,0.1-3.5,0.2c-0.7,0-1.3,0.1-2,0.1c-1,0-2,0-3,0.1c-0.7,0-1.4,0-2.1,0c-1.1,0-2.2,0-3.2,0c-0.6,0-1.3,0-1.9,0
	c-1,0-2-0.1-3-0.1c-0.7,0-1.4,0-2.1-0.1c-1.1-0.1-2.1-0.1-3.2-0.2c-0.6,0-1.2-0.1-1.8-0.1c-1.3-0.1-2.6-0.2-3.9-0.4
	c-0.4,0-0.7-0.1-1.1-0.1c-1.7-0.2-3.3-0.4-4.9-0.6c-0.3,0-0.6-0.1-0.8-0.1c-1.4-0.2-2.8-0.4-4.2-0.7c-0.6-0.1-1.2-0.2-1.7-0.3
	c-1.1-0.2-2.1-0.4-3.2-0.6c-0.6-0.1-1.1-0.2-1.7-0.4c-1.2-0.3-2.3-0.5-3.5-0.8c-0.6-0.2-1.3-0.3-1.9-0.5c-1-0.3-2.1-0.5-3.1-0.8
	c-0.6-0.2-1.2-0.3-1.8-0.5c-1.6-0.5-3.3-1-4.9-1.5c-0.3-0.1-0.6-0.2-0.9-0.3c-1.9-0.6-3.7-1.3-5.5-2c-0.7-0.3-1.5-0.6-2.2-0.9
	c-0.6-0.2-1.2-0.5-1.7-0.7c-0.8-0.3-1.6-0.7-2.4-1.1c-0.5-0.2-1.1-0.5-1.6-0.7c-0.9-0.4-1.7-0.8-2.6-1.3c-0.4-0.2-0.9-0.4-1.3-0.6
	c-1.3-0.7-2.5-1.3-3.7-2l0,0l0,0l0,0l-0.1,24.3c1.2,0.7,2.5,1.4,3.7,2c0.4,0.2,0.9,0.4,1.3,0.6c0.9,0.4,1.7,0.9,2.6,1.3
	c0.5,0.2,1,0.5,1.6,0.7c0.8,0.4,1.6,0.7,2.4,1.1c0.6,0.2,1.1,0.5,1.7,0.7c0.6,0.2,1.1,0.5,1.6,0.7c0.2,0.1,0.4,0.1,0.5,0.2
	c1.8,0.7,3.6,1.4,5.5,2c0.3,0.1,0.6,0.2,0.9,0.3c1.6,0.5,3.2,1,4.9,1.5c0.3,0.1,0.5,0.2,0.8,0.3s0.6,0.2,1,0.3
	c1,0.3,2.1,0.6,3.1,0.8c0.6,0.2,1.3,0.3,1.9,0.5c1.1,0.3,2.3,0.5,3.5,0.8c0.4,0.1,0.9,0.2,1.3,0.3c0.1,0,0.2,0,0.4,0.1
	c1.1,0.2,2.1,0.4,3.2,0.6c0.6,0.1,1.2,0.2,1.8,0.3c1.4,0.2,2.8,0.5,4.2,0.7c0.3,0,0.5,0.1,0.8,0.1l0,0c1.6,0.2,3.3,0.4,4.9,0.6
	c0.4,0,0.7,0.1,1.1,0.1c1.3,0.1,2.6,0.3,3.9,0.4h0.1c0.6,0,1.1,0.1,1.7,0.1c1.1,0.1,2.1,0.2,3.2,0.2c0.7,0,1.4,0.1,2.1,0.1
	c1,0,2,0.1,3,0.1c0.1,0,0.2,0,0.2,0c0.6,0,1.1,0,1.7,0c1.1,0,2.1,0,3.2,0c0.7,0,1.4,0,2.1,0c1,0,2,0,3-0.1c0.2,0,0.4,0,0.6,0
	c0.5,0,0.9-0.1,1.4-0.1c1.2,0,2.3-0.1,3.5-0.2c0.7,0,1.4-0.1,2.1-0.1c1.1-0.1,2.2-0.2,3.3-0.3c0.4,0,0.8-0.1,1.2-0.1
	c0.3,0,0.5-0.1,0.8-0.1c1.7-0.2,3.4-0.4,5.1-0.6c0.3,0,0.6-0.1,0.8-0.1c2-0.3,3.9-0.6,5.8-0.9c0.2,0,0.4-0.1,0.5-0.1
	c0.5-0.1,1-0.2,1.5-0.3c0.9-0.2,1.8-0.3,2.7-0.5c0.7-0.2,1.5-0.3,2.2-0.5c0.9-0.2,1.8-0.4,2.6-0.6c0.7-0.2,1.4-0.4,2.2-0.5
	c0.9-0.2,1.7-0.5,2.6-0.7c0.7-0.2,1.4-0.4,2.1-0.6c0.8-0.2,1.7-0.5,2.5-0.8c0.4-0.1,0.7-0.2,1.1-0.3c0.3-0.1,0.5-0.2,0.8-0.3
	c1.5-0.5,3-1,4.5-1.6C711.7,753.7,712,753.6,712.3,753.5z"/>
<g class="st3">
	<path class="st77" d="M708.4,709.6l20.5,11.8c-40.2,23.4-105.6,23.4-146.1,0l20.1-11.7c0.1,0,0.2,0.1,0.2,0.1
		c29,16.8,76,16.8,104.9,0C708.1,709.8,708.2,709.7,708.4,709.6z"/>
</g>
<g id="XMLID_3529_" class="st3">
	<g id="XMLID_3219_" class="st30">
		<g id="XMLID_3235_" class="st50">
			<g id="XMLID_3244_">
				<path id="XMLID_3512_" class="st51" d="M312.4,223.9l12,7c-0.1-0.1-0.2-0.2-0.3-0.3l-12-7C312.1,223.7,312.2,223.8,312.4,223.9z
					"/>
			</g>
			<g id="XMLID_3242_">
				<polygon id="XMLID_3243_" class="st62" points="318.3,220.9 306.3,213.9 312,223.5 324,230.5 				"/>
			</g>
			<path id="XMLID_3241_" class="st56" d="M293,159l40.9-23.6c1.9-1.1,3.6-1.2,4.8-0.5l12,7c-1.2-0.7-2.9-0.6-4.8,0.5L305,166
				c-3.7,2.1-6.7,7.3-6.7,11.6l0.1,47c0,2.1,0.8,3.6,2,4.3l-12-7c-1.2-0.7-2-2.2-2-4.3l-0.1-47C286.3,166.4,289.3,161.2,293,159z"/>
			<g id="XMLID_3237_">
				<path id="XMLID_3246_" class="st57" d="M305,166c-3.7,2.1-6.7,7.3-6.7,11.6l0.1,47c0,4.3,3,6,6.7,3.8l13.2-7.6l5.7,9.6
					c0.3,0.6,1,0.6,1.6,0.2c0.6-0.4,1.3-1.1,1.6-2.1l5.6-16.1l13.2-7.6c3.7-2.1,6.7-7.3,6.7-11.6l-0.1-47c0-4.3-3-6-6.7-3.9L305,166
					z"/>
			</g>
		</g>
	</g>
	<g id="XMLID_3528_" class="st30">
		<g id="XMLID_3612_" class="st50">
			<g id="XMLID_3627_">
				<polygon id="XMLID_3628_" class="st100" points="342.6,193.3 339.7,191.7 338.5,179.2 341.3,180.8 				"/>
			</g>
			<g id="XMLID_3625_">
				<polygon id="XMLID_3626_" class="st100" points="344.7,186.9 341.9,185.3 343.6,164.6 346.4,166.2 				"/>
			</g>
			<g id="XMLID_3623_">
				<polygon id="XMLID_3624_" class="st101" points="346.4,166.2 343.6,164.6 346.6,162.9 349.4,164.5 				"/>
			</g>
			<g id="XMLID_3621_">
				<polygon id="XMLID_3622_" class="st100" points="338.1,190.6 335.3,189 336.9,168.5 339.7,170.1 				"/>
			</g>
			<g id="XMLID_3619_">
				<polygon id="XMLID_3620_" class="st101" points="339.7,170.1 336.9,168.5 340.2,166.6 343,168.2 				"/>
			</g>
			<g id="XMLID_3617_">
				<polygon id="XMLID_3618_" class="st101" points="333,174 330.1,172.4 333.4,170.5 336.3,172.1 				"/>
			</g>
			<g id="XMLID_3615_">
				<polygon id="XMLID_3616_" class="st100" points="335.4,197.4 332.6,195.8 330.1,172.4 333,174 				"/>
			</g>
			<g id="XMLID_3613_">
				<polygon id="XMLID_3614_" class="st102" points="349.4,164.5 347.1,190.7 342.6,193.3 341.3,180.8 340.1,194.7 335.4,197.4 
					333,174 336.3,172.1 338.1,190.6 339.7,170.1 343,168.2 344.7,186.9 346.4,166.2 				"/>
			</g>
		</g>
		<g id="XMLID_3601_" class="st50">
			<g id="XMLID_3610_">
				<polygon id="XMLID_3611_" class="st101" points="325.8,199.4 323,197.8 328.9,194.4 331.7,196 				"/>
			</g>
			<g id="XMLID_3608_">
				<polygon id="XMLID_3609_" class="st101" points="325.8,188.6 323,187 327.6,184.3 330.5,185.9 				"/>
			</g>
			<g id="XMLID_3606_">
				<polygon id="XMLID_3607_" class="st100" points="322.4,204.9 319.6,203.3 319.6,178.5 322.4,180.1 				"/>
			</g>
			<g id="XMLID_3604_">
				<polygon id="XMLID_3605_" class="st101" points="322.4,180.1 319.6,178.5 328.8,173.1 331.6,174.8 				"/>
			</g>
			<g id="XMLID_3602_">
				<polygon id="XMLID_3603_" class="st102" points="331.6,174.8 331.6,178.3 325.8,181.7 325.8,188.6 330.5,185.9 330.5,189.5 
					325.8,192.2 325.8,199.4 331.7,196 331.7,199.6 322.4,204.9 322.4,180.1 				"/>
			</g>
		</g>
		<g id="XMLID_3584_" class="st50">
			<g id="XMLID_3599_">
				<polygon id="XMLID_3600_" class="st100" points="316.5,208.4 313.7,206.7 309.4,191.2 312.2,192.8 				"/>
			</g>
			<g id="XMLID_3597_">
				<polygon id="XMLID_3598_" class="st100" points="316.9,198.1 314.1,196.5 314.1,181.6 316.9,183.3 				"/>
			</g>
			<g id="XMLID_3595_">
				<polygon id="XMLID_3596_" class="st101" points="316.9,183.3 314.1,181.6 317.1,179.9 319.9,181.5 				"/>
			</g>
			<g id="XMLID_3591_">
				<polygon id="XMLID_3594_" class="st101" points="309.2,187.7 306.3,186.1 310.6,183.6 313.4,185.3 				"/>
			</g>
			<g id="XMLID_3587_">
				<polygon id="XMLID_3590_" class="st100" points="309.2,212.6 306.4,210.9 306.3,186.1 309.2,187.7 				"/>
			</g>
			<g id="XMLID_3585_">
				<polygon id="XMLID_3586_" class="st102" points="319.9,181.5 320,206.3 316.5,208.4 312.2,192.8 312.3,210.8 309.2,212.6 
					309.2,187.7 313.4,185.3 316.9,198.1 316.9,183.3 				"/>
			</g>
		</g>
	</g>
</g>
<g id="XMLID_97_" class="st3">
	<g id="XMLID_111_" class="st30">
		<g id="XMLID_153_">
			<g id="XMLID_154_">
				<polygon id="XMLID_157_" class="st103" points="370.5,295.8 345.6,310.3 341.7,308 366.8,293.7 				"/>
				<polygon id="XMLID_156_" class="st104" points="370.5,295.8 345.6,310.3 345.7,329.6 370.5,315.2 				"/>
				<polygon id="XMLID_155_" class="st60" points="341.7,308 345.6,310.3 345.7,329.6 341.8,327.4 				"/>
			</g>
		</g>
		<g id="XMLID_112_">
			<g id="XMLID_140_" class="st50">
				<g id="XMLID_151_">
					<polygon id="XMLID_152_" class="st105" points="367.4,314.5 366.2,313.8 364.3,306.9 365.5,307.6 					"/>
				</g>
				<g id="XMLID_149_">
					<polygon id="XMLID_150_" class="st105" points="367.6,309.9 366.4,309.3 366.4,302.7 367.6,303.4 					"/>
				</g>
				<g id="XMLID_147_">
					<polygon id="XMLID_148_" class="st56" points="367.6,303.4 366.4,302.7 367.7,301.9 368.9,302.6 					"/>
				</g>
				<g id="XMLID_145_">
					<polygon id="XMLID_146_" class="st56" points="364.1,305.3 363,304.7 364.8,303.6 366,304.2 					"/>
				</g>
				<g id="XMLID_143_">
					<polygon id="XMLID_144_" class="st105" points="364.2,316.3 363,315.7 363,304.7 364.1,305.3 					"/>
				</g>
				<g id="XMLID_141_">
					<polygon id="XMLID_142_" class="st57" points="368.9,302.6 368.9,313.6 367.4,314.5 365.5,307.6 365.5,315.6 364.2,316.3 
						364.1,305.3 366,304.2 367.6,309.9 367.6,303.4 					"/>
				</g>
			</g>
			<g id="XMLID_129_" class="st50">
				<g id="XMLID_138_">
					<polygon id="XMLID_139_" class="st56" points="360.6,316.8 359.5,316.1 362.1,314.6 363.2,315.3 					"/>
				</g>
				<g id="XMLID_136_">
					<polygon id="XMLID_137_" class="st56" points="360.6,312 359.5,311.3 361.5,310.1 362.7,310.8 					"/>
				</g>
				<g id="XMLID_134_">
					<polygon id="XMLID_135_" class="st105" points="359.1,319.2 358,318.6 357.9,307.6 359.1,308.2 					"/>
				</g>
				<g id="XMLID_132_">
					<polygon id="XMLID_133_" class="st56" points="359.1,308.2 357.9,307.6 362,305.2 363.2,305.9 					"/>
				</g>
				<g id="XMLID_130_">
					<polygon id="XMLID_131_" class="st57" points="363.2,305.9 363.2,307.4 360.6,308.9 360.6,312 362.7,310.8 362.7,312.4 
						360.6,313.6 360.6,316.8 363.2,315.3 363.2,316.9 359.1,319.2 359.1,308.2 					"/>
				</g>
			</g>
			<g id="XMLID_120_" class="st50">
				<path id="XMLID_128_" class="st105" d="M356.9,312.1c0-0.4-0.1-0.6-0.2-0.7l-1.2-0.7c0.1,0.1,0.2,0.3,0.2,0.7v1.6
					c0,0.8-0.3,1.2-0.7,1.5l-0.7,0.4l1.2,0.7l0.7-0.4c0.5-0.3,0.7-0.7,0.7-1.5V312.1z"/>
				<path id="XMLID_127_" class="st56" d="M356.6,309c-0.4-0.2-0.9-0.1-1.7,0.3l-2.2,1.3l1.2,0.7l2.2-1.3c0.7-0.4,1.3-0.5,1.7-0.3
					L356.6,309z"/>
				<g id="XMLID_125_">
					<polygon id="XMLID_126_" class="st105" points="354,322.2 352.8,321.5 352.8,310.5 353.9,311.2 					"/>
				</g>
				<g id="XMLID_121_">
					<path id="XMLID_122_" class="st57" d="M356.2,309.9c1.5-0.9,2.2-0.3,2.3,1.4v1.4c0,1.8-0.7,3.1-2.2,4l-0.7,0.4v4.1l-1.5,0.9
						v-11L356.2,309.9z M356.9,313.8v-1.6c0-0.8-0.3-0.9-0.7-0.6l-0.7,0.4v3.7l0.7-0.4C356.7,315,356.9,314.6,356.9,313.8"/>
				</g>
			</g>
			<g id="XMLID_113_" class="st50">
				<path id="XMLID_119_" class="st105" d="M351.5,315.2c0-0.4-0.1-0.6-0.2-0.7l-1.2-0.7c0.1,0.1,0.2,0.3,0.2,0.7v5.9
					c0,0.8-0.3,1.3-0.8,1.5c-0.2,0.1-0.4,0.2-0.6,0.1l1.2,0.7c0.1,0.1,0.3,0,0.6-0.1c0.5-0.3,0.8-0.7,0.8-1.5V315.2z"/>
				<path id="XMLID_118_" class="st56" d="M351.2,312c-0.4-0.2-0.9-0.1-1.7,0.3c-1.5,0.9-2.3,2.3-2.3,4.1v5.7c0,0.9,0.2,1.5,0.6,1.7
					l1.2,0.7c-0.4-0.2-0.6-0.8-0.6-1.7v-5.7c0-1.8,0.8-3.2,2.3-4.1c0.7-0.4,1.3-0.5,1.7-0.3L351.2,312z"/>
				<g id="XMLID_114_">
					<path id="XMLID_115_" class="st57" d="M350.7,313c1.5-0.9,2.3-0.3,2.3,1.4v5.7c0,1.8-0.8,3.2-2.3,4.1s-2.3,0.3-2.3-1.4v-5.7
						C348.4,315.3,349.2,313.8,350.7,313z M351.5,321.1v-5.9c0-0.8-0.3-0.9-0.8-0.6s-0.8,0.7-0.8,1.5v5.9c0,0.8,0.3,0.9,0.8,0.6
						C351.2,322.4,351.5,321.9,351.5,321.1"/>
				</g>
			</g>
		</g>
	</g>
	<g id="XMLID_103_" class="st30">
		<g id="XMLID_104_" class="st50">
			<g id="XMLID_109_">
				<polygon id="XMLID_110_" class="st106" points="357.2,292.7 356.6,292.4 364.2,296.7 364.8,297 				"/>
			</g>
			<g id="XMLID_107_">
				<polygon id="XMLID_108_" class="st107" points="349.3,306.3 348.8,306 356.6,292.4 357.2,292.7 				"/>
			</g>
			<g id="XMLID_105_">
				<polygon id="XMLID_106_" class="st108" points="357.2,292.7 364.8,297 364.4,297.7 357.2,293.6 349.7,306.5 349.3,306.3 				"/>
			</g>
		</g>
	</g>
	<g id="XMLID_98_" class="st30">
		<g id="XMLID_101_">
			<polygon id="XMLID_102_" class="st53" points="345.7,297.7 345.7,300.8 369.9,286.9 369.9,283.7 			"/>
		</g>
		<polygon id="XMLID_100_" class="st54" points="343.5,296.5 367.7,282.5 369.9,283.7 345.7,297.7 		"/>
		<polygon id="XMLID_99_" class="st109" points="345.7,300.8 343.5,299.6 343.5,296.5 345.7,297.7 		"/>
	</g>
</g>
</svg>
