<?xml version="1.0" encoding="utf-8"?>
<!-- Generator: Adobe Illustrator 21.0.2, SVG Export Plug-In . SVG Version: 6.00 Build 0)  -->
<svg version="1.1" id="Layer_1" xmlns="http://www.w3.org/2000/svg" xmlns:xlink="http://www.w3.org/1999/xlink" x="0px" y="0px"
	 viewBox="0 0 112 50" style="enable-background:new 0 0 112 50;" xml:space="preserve">
<style type="text/css">
	.st0{fill:#FF015D;}
	.st1{fill:#0196F5;}
</style>
<g>
	<g>
		<path class="st0" d="M42.8,12.4h0.4l0.3-1.6l1.2-0.2l-0.4,1.8h0.9l-0.1,0.4h-0.9l-0.7,3.5c0,0,0,0.1,0,0.2s0,0.2,0,0.2
			c0,0.1,0,0.2,0.1,0.4c0,0.1,0.2,0.2,0.3,0.2c0.2,0,0.4-0.1,0.6-0.3c0.2-0.2,0.4-0.5,0.6-0.9h0.4c-0.2,0.4-0.4,0.7-0.6,1
			c-0.2,0.3-0.4,0.5-0.6,0.7c-0.2,0.2-0.4,0.3-0.5,0.3c-0.2,0-0.3,0.1-0.5,0.1c-0.2,0-0.4,0-0.5-0.1s-0.2-0.2-0.3-0.3
			s-0.2-0.3-0.2-0.5s0-0.3,0-0.5s0-0.3,0-0.5s0-0.3,0.1-0.4l0.7-3.2h-0.4L42.8,12.4z"/>
		<path class="st0" d="M47,12.4l-0.2,1c0.1-0.1,0.2-0.2,0.3-0.4c0.1-0.1,0.2-0.2,0.4-0.3c0.1-0.1,0.2-0.2,0.4-0.2
			c0.1,0,0.3-0.1,0.5-0.1c0.2,0,0.4,0,0.5,0.2c0.1,0.1,0.2,0.2,0.2,0.4s0,0.2-0.1,0.4c0,0.1-0.1,0.2-0.2,0.2c-0.1,0-0.1,0.1-0.2,0.1
			s-0.2,0-0.2,0c-0.1,0-0.1,0-0.2,0c-0.1,0-0.1-0.1-0.1-0.1L48,13.5c0,0-0.1,0-0.2,0c-0.2,0-0.3,0-0.5,0.2c-0.2,0.1-0.4,0.2-0.5,0.4
			L46,18.3h-1.2l1.2-5.7C45.9,12.4,47,12.4,47,12.4z"/>
		<path class="st0" d="M53.9,12.4l-0.8,3.9c0,0.2,0,0.3,0,0.5c0,0.1,0,0.2,0.1,0.4c0,0.1,0.1,0.2,0.3,0.2c0.2,0,0.4-0.1,0.5-0.3
			s0.4-0.5,0.5-0.9h0.4c-0.2,0.5-0.4,0.9-0.5,1.1c-0.2,0.3-0.4,0.5-0.5,0.6c-0.2,0.1-0.3,0.2-0.5,0.3c-0.2,0-0.3,0.1-0.4,0.1
			c-0.2,0-0.5-0.1-0.6-0.2c-0.2-0.2-0.2-0.5-0.3-0.9c-0.2,0.3-0.4,0.6-0.7,0.8c-0.3,0.2-0.7,0.3-1,0.3c-0.2,0-0.4,0-0.5-0.1
			c-0.2-0.1-0.3-0.2-0.5-0.3c-0.1-0.2-0.2-0.3-0.3-0.6C49,17.1,49,16.8,49,16.5c0-0.2,0-0.5,0.1-0.8c0-0.3,0.1-0.6,0.2-0.9
			c0.1-0.3,0.2-0.6,0.4-0.9c0.2-0.3,0.4-0.5,0.6-0.7s0.5-0.4,0.7-0.5c0.2-0.1,0.6-0.2,0.9-0.2c0.2,0,0.4,0,0.5,0.1
			c0.2,0.1,0.3,0.2,0.4,0.5l0.1-0.5L53.9,12.4L53.9,12.4z M50.7,17.3c0.1,0,0.2,0,0.4-0.1c0.1-0.1,0.2-0.2,0.4-0.2
			c0.1-0.1,0.2-0.2,0.3-0.4c0.1-0.2,0.2-0.3,0.2-0.5l0.5-2.6c0-0.1-0.1-0.2-0.2-0.3c0-0.1-0.1-0.2-0.3-0.2c-0.3,0-0.6,0.1-0.8,0.3
			c-0.2,0.2-0.5,0.5-0.6,0.8c-0.2,0.3-0.3,0.7-0.4,1c-0.1,0.4-0.1,0.7-0.1,1c0,0.4,0.1,0.7,0.2,0.9C50.3,17.2,50.5,17.3,50.7,17.3z"
			/>
		<path class="st0" d="M56.5,12l-0.2,0.8c0.2-0.2,0.4-0.3,0.6-0.4s0.5-0.1,0.7-0.1c0.2,0,0.4,0,0.5,0.1c0.2,0.1,0.3,0.2,0.4,0.3
			c0.1,0.2,0.2,0.3,0.3,0.6s0.1,0.5,0.1,0.9c0,0.2,0,0.5,0,0.8s-0.1,0.6-0.2,0.9c-0.1,0.3-0.2,0.6-0.3,0.8c-0.1,0.3-0.3,0.5-0.5,0.7
			c-0.2,0.2-0.5,0.4-0.7,0.5c-0.2,0.1-0.5,0.2-0.9,0.2c-0.2,0-0.4,0-0.5-0.2c-0.2-0.1-0.3-0.2-0.4-0.4l-0.6,3.1l-1.2,0.3l1.7-8.9
			H56.5z M57,13.1c-0.2,0-0.3,0-0.5,0.2c-0.2,0.1-0.3,0.2-0.4,0.4L55.3,17c0.1,0.1,0.2,0.2,0.3,0.3c0.1,0,0.2,0.1,0.3,0.1
			c0.3,0,0.6-0.1,0.9-0.3c0.2-0.2,0.4-0.5,0.5-0.8s0.2-0.7,0.3-1s0.1-0.7,0.1-1c0-0.2,0-0.4-0.1-0.6c0-0.2-0.1-0.3-0.2-0.4
			c-0.1-0.1-0.2-0.2-0.2-0.2C57.2,13.1,57.1,13.1,57,13.1z"/>
		<path class="st0" d="M61.2,12.4l-0.8,3.9c0,0.1,0,0.2,0,0.4c0,0.2,0,0.4,0.2,0.5c0.1,0.1,0.2,0.2,0.4,0.2c0.1,0,0.2,0,0.3-0.1
			c0.1,0,0.2-0.1,0.3-0.2s0.2-0.2,0.3-0.4c0.1-0.2,0.2-0.3,0.2-0.5l0.8-3.6h1.2L62.5,19c-0.1,0.4-0.2,0.7-0.3,1
			c-0.1,0.2-0.2,0.5-0.3,0.6s-0.2,0.2-0.4,0.3c-0.2,0-0.3,0.1-0.5,0.1c-0.3,0-0.7-0.1-0.9-0.2c-0.2-0.2-0.4-0.4-0.4-0.8
			c0-0.2,0-0.4,0.2-0.5c0.1-0.2,0.2-0.3,0.4-0.5c0.2-0.1,0.4-0.3,0.6-0.4c0.2-0.1,0.4-0.2,0.7-0.3l0.2-0.7c-0.2,0.2-0.4,0.4-0.6,0.5
			s-0.4,0.2-0.6,0.2s-0.3,0-0.5-0.1c-0.2-0.1-0.3-0.2-0.4-0.3c-0.1-0.1-0.2-0.3-0.2-0.5c-0.2-0.3-0.2-0.5-0.2-0.7
			c0-0.2,0-0.4,0.1-0.6l0.8-3.6L61.2,12.4L61.2,12.4z M60.6,20.3c0.2,0,0.4-0.1,0.5-0.4c0.1-0.2,0.2-0.6,0.3-1l0.1-0.4
			c-0.4,0.2-0.7,0.4-1,0.6c-0.2,0.2-0.3,0.4-0.3,0.6c0,0.1,0,0.2,0.1,0.3C60.3,20.3,60.4,20.3,60.6,20.3z M67.5,17.1
			c0,0-0.1,0-0.1-0.1s0-0.1,0-0.2s0-0.2,0.2-0.3c0.1-0.1,0.2-0.1,0.4-0.1c0.1,0,0.2,0,0.4,0.1c0.1,0.1,0.2,0.2,0.2,0.4
			c0,0.1,0,0.2-0.1,0.4c-0.1,0.1-0.2,0.2-0.3,0.3c-0.1,0.1-0.3,0.2-0.5,0.2C67.3,18,67.1,18,66.9,18h-2.8l2.9-5.1h-0.8
			c-0.2,0-0.3,0-0.5,0c-0.1,0-0.2,0.1-0.2,0.2c0,0,0,0.1,0,0.2c0,0,0,0.1,0,0.2s0,0.2-0.2,0.2s-0.2,0.1-0.4,0.1
			c-0.3,0-0.5-0.2-0.5-0.7c0-0.1,0-0.2,0.1-0.3c0-0.1,0.1-0.2,0.2-0.2c0.1-0.1,0.2-0.1,0.4-0.2c0.2,0,0.4-0.1,0.6-0.1h2.7l-2.8,4.9
			c0,0,0.1,0,0.2,0s0.2,0,0.4,0c0.1,0,0.3,0,0.4,0s0.2,0,0.3,0c0.1,0,0.2,0,0.3-0.1C67.4,17.2,67.5,17.2,67.5,17.1z"/>
	</g>
</g>
<g>
	<path class="st1" d="M53.2,26.4c-0.3,0.4-0.8,0.7-1.3,0.9c-0.5,0.3-1.1,0.4-1.8,0.5c-0.1,0.8-0.2,1.5-0.5,2.2
		c-0.2,0.7-0.6,1.2-0.9,1.7c-0.4,0.5-0.8,0.8-1.3,1.1c-0.5,0.2-1,0.4-1.5,0.4c-0.4,0-0.8,0-1.1-0.1c-0.3-0.1-0.6-0.3-0.9-0.5
		c-0.2-0.2-0.4-0.5-0.6-0.9c-0.1-0.4-0.2-0.8-0.2-1.3c0-0.3,0-0.7,0.1-1.2c0.1-0.4,0.2-0.9,0.3-1.4s0.4-0.9,0.6-1.4s0.6-0.8,0.9-1.2
		c0.4-0.3,0.8-0.6,1.2-0.8c0.5-0.2,1-0.3,1.6-0.3c1.5,0,2.3,0.9,2.3,2.8l0,0h0.1h0.1c0.2,0,0.4,0,0.7-0.1c0.2-0.1,0.5-0.1,0.7-0.2
		c0.2-0.1,0.5-0.2,0.7-0.3c0.2-0.1,0.4-0.3,0.6-0.4L53.2,26.4z M48.6,27.9c-0.2,0-0.3-0.1-0.4-0.3c-0.1-0.1-0.1-0.3-0.1-0.5
		s0-0.4,0.1-0.6s0.2-0.3,0.4-0.3c0-0.2,0-0.3-0.1-0.5c0-0.1-0.1-0.2-0.1-0.3s-0.1-0.1-0.2-0.2c-0.1-0.1-0.2-0.1-0.3-0.1
		c-0.2,0-0.4,0.1-0.6,0.2c-0.2,0.2-0.4,0.4-0.6,0.6c-0.2,0.3-0.3,0.6-0.5,0.9c-0.2,0.3-0.3,0.7-0.4,1.1c-0.1,0.4-0.2,0.7-0.2,1.1
		s-0.1,0.7-0.1,1s0,0.5,0,0.7s0.1,0.3,0.2,0.4s0.2,0.2,0.3,0.2s0.3,0.1,0.4,0.1c0.2,0,0.4-0.1,0.6-0.3c0.2-0.2,0.4-0.4,0.6-0.8
		s0.3-0.7,0.5-1.2C48.3,28.6,48.6,28.4,48.6,27.9z"/>
	<path class="st1" d="M58.4,29.9c-0.2,0.4-0.5,0.8-0.8,1.2c-0.3,0.4-0.7,0.7-1.1,1c-0.4,0.3-0.8,0.5-1.3,0.7s-1,0.3-1.6,0.3
		c-0.4,0-0.8-0.1-1.1-0.2c-0.3-0.1-0.6-0.3-0.9-0.5s-0.4-0.5-0.6-0.9c-0.1-0.4-0.2-0.8-0.2-1.3c0-0.3,0-0.7,0.1-1.2
		c0.1-0.4,0.2-0.9,0.3-1.4c0.2-0.5,0.3-0.9,0.6-1.4c0.2-0.4,0.5-0.8,0.9-1.2c0.4-0.3,0.8-0.6,1.2-0.8c0.5-0.2,1-0.3,1.6-0.3
		c0.4,0,0.7,0,1,0.1c0.3,0.1,0.5,0.2,0.6,0.4c0.1,0.2,0.3,0.3,0.3,0.5s0.1,0.4,0.1,0.6s0,0.4-0.1,0.6c0,0.2-0.1,0.3-0.2,0.4
		c-0.1,0.1-0.2,0.2-0.3,0.2C56.8,27,56.7,27,56.6,27c-0.2,0-0.4-0.1-0.6-0.2c0.1-0.4,0.2-0.7,0.2-1c0-0.2,0-0.4-0.1-0.5
		s-0.2-0.2-0.4-0.2c-0.2,0-0.4,0.1-0.5,0.2c-0.2,0.2-0.4,0.4-0.5,0.7c-0.2,0.3-0.3,0.6-0.5,0.9c-0.2,0.3-0.3,0.7-0.4,1.1
		c-0.1,0.4-0.2,0.8-0.2,1.1c-0.1,0.4-0.1,0.7-0.1,1.1c0,0.3,0,0.5,0.1,0.7s0.1,0.3,0.2,0.5c0.1,0.2,0.2,0.2,0.4,0.2
		c0.2,0,0.3,0.1,0.6,0.1c0.3,0,0.7,0,0.9-0.1c0.3-0.1,0.5-0.2,0.8-0.4c0.2-0.2,0.5-0.3,0.7-0.6c0.2-0.2,0.4-0.4,0.7-0.7L58.4,29.9z"
		/>
	<path class="st1" d="M67.8,29.9c-0.2,0.5-0.3,0.9-0.5,1.2c-0.2,0.3-0.4,0.6-0.6,0.9s-0.4,0.4-0.6,0.6c-0.2,0.1-0.4,0.3-0.6,0.3
		c-0.2,0.1-0.4,0.1-0.6,0.2c-0.2,0-0.4,0-0.5,0c-0.5,0-0.9-0.1-1.2-0.4c-0.3-0.3-0.5-0.7-0.5-1.2c-0.1,0.2-0.3,0.4-0.5,0.6
		c-0.2,0.2-0.4,0.4-0.6,0.5c-0.2,0.2-0.4,0.3-0.7,0.4c-0.3,0.1-0.5,0.1-0.9,0.1c-0.3,0-0.6,0-0.9-0.1c-0.3-0.1-0.5-0.3-0.7-0.5
		c-0.2-0.2-0.4-0.5-0.5-0.9s-0.2-0.8-0.2-1.3c0-0.4,0-0.8,0.1-1.3s0.2-0.9,0.4-1.4c0.2-0.5,0.4-0.9,0.6-1.3c0.2-0.4,0.5-0.8,0.9-1.1
		c0.3-0.3,0.7-0.6,1.1-0.8c0.4-0.2,0.9-0.3,1.4-0.3s0.9,0.1,1.1,0.3c0.2,0.2,0.3,0.4,0.3,0.6v0.1l0.2-0.9h2.5l-1.3,6
		c0,0.1,0,0.2-0.1,0.3c0,0.1,0,0.2,0,0.3c0,0.5,0.2,0.8,0.7,0.8c0.2,0,0.3,0,0.5-0.1c0.1-0.1,0.3-0.2,0.4-0.4
		c0.1-0.1,0.2-0.3,0.3-0.5S67,30.2,67,30L67.8,29.9L67.8,29.9z M63.3,26c0-0.1,0-0.1,0-0.2s-0.1-0.2-0.1-0.2s-0.1-0.1-0.2-0.2
		c-0.1,0-0.2-0.1-0.4-0.1c-0.2,0-0.5,0.1-0.7,0.2c-0.2,0.2-0.4,0.4-0.6,0.6c-0.2,0.3-0.3,0.6-0.5,0.9c-0.1,0.3-0.3,0.7-0.4,1
		c-0.1,0.4-0.2,0.7-0.2,1.1c-0.1,0.3-0.1,0.7-0.1,0.9c0,0.3,0,0.6,0.1,0.8c0.1,0.2,0.1,0.3,0.2,0.4s0.2,0.1,0.3,0.2s0.2,0,0.3,0
		s0.3,0,0.4-0.1s0.3-0.2,0.4-0.3c0.1-0.1,0.3-0.3,0.4-0.5s0.2-0.4,0.3-0.7L63.3,26z"/>
	<path class="st1" d="M72.5,29.9c-0.2,0.5-0.3,0.9-0.6,1.2c-0.2,0.3-0.4,0.6-0.6,0.9s-0.4,0.4-0.7,0.6c-0.2,0.1-0.5,0.3-0.7,0.3
		s-0.4,0.1-0.6,0.2c-0.2,0-0.4,0-0.5,0c-0.3,0-0.5,0-0.7-0.1s-0.4-0.2-0.6-0.4s-0.3-0.4-0.4-0.7s-0.1-0.6-0.1-1c0-0.2,0-0.3,0-0.5
		s0.1-0.4,0.1-0.6l1.1-4.9h-0.6l0.1-0.7h0.6l0.5-2.4l2.6-0.4l-0.6,2.8h1.1L71.7,25h-1.1l-1.1,5.3c0,0.1,0,0.2-0.1,0.3
		c0,0.1,0,0.2,0,0.3c0,0.2,0.1,0.4,0.2,0.5s0.3,0.1,0.5,0.1s0.3,0,0.5-0.1s0.3-0.2,0.5-0.3c0.1-0.1,0.3-0.3,0.4-0.5s0.2-0.4,0.3-0.6
		L72.5,29.9L72.5,29.9z"/>
	<path class="st1" d="M77.2,30.6c-0.1,0.5-0.2,0.9-0.4,1.3c-0.2,0.3-0.4,0.6-0.7,0.8c-0.3,0.2-0.6,0.3-0.9,0.4
		c-0.3,0.1-0.7,0.1-1,0.1c-0.4,0-0.8-0.1-1.1-0.2s-0.6-0.3-0.9-0.5s-0.4-0.5-0.5-0.8c-0.1-0.4-0.2-0.8-0.2-1.3c0-0.3,0-0.7,0.1-1.2
		c0.1-0.4,0.2-0.9,0.3-1.4c0.1-0.5,0.3-0.9,0.6-1.4c0.2-0.4,0.5-0.8,0.9-1.2s0.8-0.6,1.2-0.8c0.5-0.2,1-0.3,1.6-0.3
		c0.4,0,0.7,0,1,0.1c0.2,0.1,0.4,0.2,0.6,0.4c0.1,0.2,0.2,0.3,0.3,0.5c0.1,0.2,0.1,0.4,0.1,0.6c0,0.5-0.1,1-0.3,1.4
		s-0.5,0.8-0.9,1.1c-0.4,0.3-0.8,0.6-1.3,0.8s-1,0.3-1.5,0.4c0,0.1,0,0.2,0,0.3c0,0.1,0,0.2,0,0.3c0,0.3,0,0.5,0.1,0.7
		s0.1,0.3,0.2,0.5c0.1,0.1,0.2,0.2,0.3,0.2c0.1,0,0.3,0.1,0.4,0.1c0.2,0,0.4,0,0.5-0.1c0.2-0.1,0.4-0.1,0.5-0.2
		c0.2-0.1,0.4-0.2,0.5-0.3C77,30.8,77.1,30.7,77.2,30.6z M74.2,28.7c0.3,0,0.7-0.1,1-0.3c0.3-0.2,0.6-0.4,0.8-0.7
		c0.2-0.3,0.4-0.6,0.6-0.9c0.1-0.3,0.2-0.7,0.2-1.1c0-0.2,0-0.4-0.1-0.5S76.5,25,76.4,25c-0.2,0-0.4,0.1-0.7,0.3
		c-0.2,0.2-0.4,0.5-0.6,0.9s-0.4,0.7-0.5,1.2C74.5,27.8,74.3,28.3,74.2,28.7z"/>
	<path class="st1" d="M42,30.6c0-0.3-0.2-0.7-0.3-1.1c-0.2,0.2-0.4,0.4-0.5,0.5c-0.1,0.2-0.3,0.3-0.5,0.4c-0.3,0.2-0.6,0.3-0.8,0.4
		c-0.3,0-0.6,0-0.9,0.1c-0.3-0.1-0.6,0-0.9,0c-0.4,0-0.6,0-0.9,0c-0.2,0-0.4-0.1-0.6-0.1l2-11c-0.1,0-0.2,0-0.3,0
		c-0.1,0-0.3,0-0.3,0c-0.4,0-0.9,0.1-1.3,0.2c-0.4,0.1-0.8,0.3-1.2,0.5c-0.4,0.2-0.8,0.4-1.1,0.7c-0.3,0.2-0.6,0.6-0.9,0.9
		c-0.3,0.4-0.4,0.7-0.6,1.1c-0.2,0.3-0.3,0.7-0.3,1.1c0,0.3,0,0.6,0.1,0.8c0.1,0.2,0.2,0.4,0.4,0.5c0.2,0.1,0.3,0.2,0.5,0.3
		c0.2,0.1,0.4,0.1,0.7,0.1v-0.1c0,0-0.1-0.1-0.1-0.2c0,0-0.1-0.2-0.1-0.3c0-0.1,0-0.3,0-0.5c0-1,0.2-1.8,0.5-2.4
		c0.3-0.6,0.9-1.1,1.5-1.4l-1.8,11.2l-0.1,0.3l0.6-0.3c0.2-0.1,0.4-0.1,0.6-0.1c0.4,0,0.9-0.1,1.3,0c0.5,0.1,0.9,0.2,1.3,0.4
		c0.4,0.2,0.8,0.3,1.2,0.4c0.4,0.1,0.8,0.1,1.1,0.1c0.4,0,0.7-0.1,1-0.2c0.2-0.1,0.3-0.3,0.4-0.5c0.1-0.3,0.1-0.5,0.1-0.7
		C42.1,31.2,42.1,30.9,42,30.6z"/>
</g>
</svg>
