<?xml version="1.0" encoding="utf-8"?>
<!-- Generator: Adobe Illustrator 21.0.2, SVG Export Plug-In . SVG Version: 6.00 Build 0)  -->
<svg version="1.1" id="Layer_1" xmlns="http://www.w3.org/2000/svg" xmlns:xlink="http://www.w3.org/1999/xlink" x="0px" y="0px"
	 viewBox="0 0 112 50" style="enable-background:new 0 0 112 50;" xml:space="preserve">
<style type="text/css">
	.st0{fill:#FF015D;}
	.st1{fill:#0196F5;}
</style>
<g>
	<g>
		<path class="st0" d="M44.6,15H45l0.3-1.6l1.2-0.2L46.1,15H47l-0.1,0.4H46l-0.7,3.5c0,0,0,0.1,0,0.2s0,0.2,0,0.2
			c0,0.1,0,0.2,0.1,0.4c0,0.1,0.2,0.2,0.3,0.2c0.2,0,0.4-0.1,0.6-0.3c0.2-0.2,0.4-0.5,0.6-0.9h0.4c-0.2,0.4-0.4,0.7-0.6,1
			c-0.2,0.3-0.4,0.5-0.6,0.7c-0.2,0.2-0.4,0.3-0.5,0.3c-0.2,0-0.3,0.1-0.5,0.1s-0.4,0-0.5-0.1s-0.2-0.2-0.3-0.3
			c-0.1-0.1-0.1-0.2-0.2-0.4s0-0.3,0-0.5c0-0.1,0-0.3,0-0.5s0-0.3,0.1-0.4l0.7-3.2h-0.4L44.6,15z"/>
		<path class="st0" d="M48.8,15l-0.2,1c0.1-0.1,0.2-0.2,0.3-0.4c0.1-0.1,0.2-0.2,0.4-0.3c0.1-0.1,0.2-0.2,0.4-0.2
			c0.1,0,0.3-0.1,0.5-0.1s0.4,0,0.5,0.2c0.1,0.1,0.2,0.2,0.2,0.4c0,0.1,0,0.2-0.1,0.4c0,0.1-0.1,0.2-0.2,0.2c-0.1,0-0.1,0.1-0.2,0.1
			c-0.1,0-0.2,0-0.2,0c-0.1,0-0.1,0-0.2,0l-0.1-0.1l-0.1-0.1c0,0-0.1,0-0.2,0c-0.2,0-0.3,0-0.5,0.2c-0.2,0.1-0.4,0.2-0.5,0.4
			l-0.8,4.2h-1.2l1.2-5.7C47.6,15,48.8,15,48.8,15z"/>
		<path class="st0" d="M55.7,15l-0.8,3.9c0,0.2,0,0.3,0,0.5c0,0.1,0,0.2,0.1,0.4c0,0.1,0.1,0.2,0.3,0.2s0.4-0.1,0.5-0.3
			c0.2-0.2,0.4-0.5,0.5-0.9h0.4c-0.2,0.5-0.4,0.9-0.5,1.1c-0.2,0.3-0.4,0.5-0.5,0.6c-0.2,0.1-0.3,0.2-0.5,0.3
			c-0.2,0-0.3,0.1-0.4,0.1c-0.2,0-0.5-0.1-0.6-0.2s-0.2-0.5-0.3-0.9c-0.2,0.3-0.4,0.6-0.7,0.8s-0.7,0.3-1,0.3c-0.2,0-0.4,0-0.5-0.1
			c-0.2-0.1-0.3-0.2-0.5-0.3c-0.1-0.2-0.2-0.3-0.3-0.6c-0.1-0.2-0.1-0.5-0.1-0.8c0-0.2,0-0.5,0.1-0.8c0-0.3,0.1-0.6,0.2-0.9
			s0.2-0.6,0.4-0.9s0.4-0.5,0.6-0.7c0.2-0.2,0.5-0.4,0.7-0.5s0.6-0.2,0.9-0.2c0.2,0,0.4,0,0.5,0.1c0.2,0.1,0.3,0.2,0.4,0.5l0.1-0.5
			L55.7,15L55.7,15z M52.5,19.9c0.1,0,0.2,0,0.4-0.1c0.1-0.1,0.2-0.2,0.4-0.2c0.1-0.1,0.2-0.2,0.3-0.4c0.1-0.2,0.2-0.3,0.2-0.5
			l0.5-2.6c0-0.1-0.1-0.2-0.2-0.3c-0.1-0.1-0.2-0.2-0.4-0.2c-0.3,0-0.6,0.1-0.8,0.3s-0.5,0.5-0.6,0.8c-0.2,0.3-0.3,0.7-0.4,1
			c-0.1,0.4-0.1,0.7-0.1,1c0,0.4,0.1,0.7,0.2,0.9C52.1,19.9,52.3,19.9,52.5,19.9z"/>
		<path class="st0" d="M58.2,14.6L58,15.5c0.2-0.2,0.4-0.3,0.6-0.4c0.2-0.1,0.5-0.1,0.7-0.1s0.4,0,0.5,0.1c0.2,0.1,0.3,0.2,0.4,0.3
			c0.1,0.2,0.2,0.3,0.3,0.6c0.1,0.2,0.1,0.5,0.1,0.9c0,0.2,0,0.5,0,0.8s-0.1,0.6-0.2,0.9c-0.1,0.3-0.2,0.6-0.3,0.8
			c-0.1,0.3-0.3,0.5-0.5,0.7s-0.5,0.4-0.7,0.5s-0.5,0.2-0.9,0.2c-0.2,0-0.4,0-0.5-0.2c-0.2-0.1-0.3-0.2-0.4-0.4l-0.6,3.1l-1.2,0.3
			l1.9-8.9L58.2,14.6L58.2,14.6z M58.8,15.7c-0.2,0-0.3,0-0.5,0.2c-0.2,0.1-0.3,0.2-0.4,0.4l-0.7,3.4c0.1,0.1,0.2,0.2,0.3,0.3
			c0.1,0,0.2,0.1,0.3,0.1c0.3,0,0.6-0.1,0.9-0.3c0.2-0.2,0.4-0.5,0.5-0.8s0.2-0.7,0.3-1c0-0.4,0.1-0.7,0.1-1c0-0.2,0-0.4-0.1-0.6
			S59.3,16,59.3,16c-0.1-0.1-0.2-0.2-0.2-0.2C59,15.8,58.9,15.7,58.8,15.7z"/>
		<path class="st0" d="M62.9,15l-0.8,3.9c0,0.1,0,0.2,0,0.4c0,0.2,0,0.4,0.2,0.5c0.1,0.1,0.2,0.2,0.4,0.2c0.1,0,0.2,0,0.3-0.1
			c0.1,0,0.2-0.1,0.3-0.2s0.2-0.2,0.3-0.4c0.1-0.2,0.2-0.3,0.2-0.5l0.8-3.6h1.2l-1.4,6.6c-0.1,0.4-0.2,0.7-0.3,1
			c-0.1,0.2-0.2,0.5-0.3,0.6s-0.2,0.2-0.4,0.3c-0.2,0-0.3,0.1-0.5,0.1c-0.3,0-0.7-0.1-0.9-0.2c-0.2-0.2-0.4-0.4-0.4-0.8
			c0-0.2,0-0.4,0.2-0.5s0.2-0.3,0.4-0.5c0.2-0.1,0.4-0.3,0.6-0.4c0.2-0.1,0.4-0.2,0.7-0.3l0.2-0.7c-0.2,0.2-0.4,0.4-0.6,0.5
			c-0.2,0.1-0.4,0.2-0.6,0.2c-0.2,0-0.3,0-0.5-0.1s-0.3-0.2-0.4-0.3c-0.1-0.1-0.2-0.3-0.2-0.5C61,19.7,61,19.5,61,19.3
			s0-0.4,0.1-0.6l0.8-3.6L62.9,15L62.9,15z M62.3,23c0.2,0,0.4-0.1,0.5-0.4c0.1-0.2,0.2-0.6,0.3-1l0.1-0.4c-0.4,0.2-0.7,0.4-1,0.6
			c-0.2,0.2-0.3,0.4-0.3,0.6c0,0.1,0,0.2,0.1,0.3C62.1,23,62.2,23,62.3,23z M69.3,19.8c0,0-0.1,0-0.1-0.1s0-0.1,0-0.2s0-0.2,0.2-0.3
			c0.1-0.1,0.2-0.1,0.4-0.1c0.1,0,0.2,0,0.4,0.1c0.1,0.1,0.2,0.2,0.2,0.4c0,0.1,0,0.2-0.1,0.4c-0.1,0.1-0.2,0.2-0.3,0.3
			c-0.1,0.1-0.3,0.2-0.5,0.2c-0.2,0.1-0.4,0.1-0.6,0.1h-2.8l2.9-5.1h-0.8c-0.2,0-0.3,0-0.5,0c-0.1,0-0.2,0.1-0.2,0.2
			c0,0,0,0.1,0,0.2s0,0.1,0,0.2s0,0.2-0.2,0.2c-0.1,0.1-0.2,0.1-0.4,0.1c-0.3,0-0.5-0.2-0.5-0.7c0-0.1,0-0.2,0.1-0.3
			c0-0.1,0.1-0.2,0.2-0.2c0.1-0.1,0.2-0.1,0.4-0.2c0.2,0,0.4-0.1,0.6-0.1h2.7l-2.8,4.9c0,0,0.1,0,0.2,0s0.2,0,0.4,0
			c0.1,0,0.3,0,0.4,0s0.2,0,0.3,0c0.1,0,0.2,0,0.3-0.1C69.2,19.9,69.2,19.9,69.3,19.8z"/>
	</g>
</g>
<g>
	<path class="st1" d="M38.7,32.4c-0.2,0.6-0.6,1.1-1,1.5s-0.8,0.8-1.3,1c-0.5,0.3-0.9,0.5-1.4,0.6s-0.9,0.2-1.3,0.2
		c-0.7,0-1.2-0.1-1.7-0.2c-0.5-0.2-0.9-0.4-1.2-0.7c-0.3-0.3-0.6-0.8-0.7-1.3c-0.2-0.5-0.2-1.2-0.2-2c0-0.4,0-0.8,0.1-1.3
		c0-0.5,0.1-1,0.2-1.5s0.2-1,0.4-1.5c0.2-0.5,0.4-1,0.6-1.5s0.5-0.9,0.8-1.3c0.3-0.4,0.7-0.8,1.1-1.1c0.4-0.3,0.8-0.5,1.3-0.7
		s1-0.3,1.6-0.3c0.4,0,0.8,0,1.1,0.1c0.4,0.1,0.7,0.2,0.9,0.4c0.3,0.2,0.5,0.4,0.6,0.7s0.2,0.7,0.2,1.1c0,0.2,0,0.5-0.1,0.6
		s-0.1,0.4-0.2,0.5c-0.1,0.1-0.2,0.3-0.4,0.3s-0.3,0.1-0.6,0.1c-0.1,0-0.3,0-0.5-0.1s-0.4-0.2-0.5-0.4c0.1-0.1,0.2-0.1,0.3-0.2
		s0.2-0.2,0.3-0.4c0.1-0.1,0.1-0.3,0.2-0.5c0-0.2,0.1-0.3,0.1-0.5c0-0.1,0-0.3-0.1-0.4c0-0.1-0.1-0.2-0.2-0.3
		c-0.1-0.1-0.2-0.2-0.3-0.2C36.7,23,36.5,23,36.3,23c-0.3,0-0.6,0.1-0.9,0.4c-0.3,0.2-0.6,0.6-0.9,1c-0.3,0.4-0.5,0.9-0.7,1.4
		s-0.4,1.1-0.6,1.7c-0.2,0.6-0.3,1.2-0.4,1.9c-0.1,0.6-0.1,1.3-0.1,1.9c0,0.4,0,0.8,0.1,1.1s0.2,0.6,0.3,0.9
		c0.2,0.2,0.4,0.4,0.6,0.6c0.3,0.1,0.6,0.2,1.1,0.2c0.7,0,1.3-0.2,1.9-0.5c0.6-0.3,1.1-0.7,1.5-1.3L38.7,32.4z"/>
	<path class="st1" d="M48.1,28.7c-0.3,0.4-0.8,0.7-1.3,0.9c-0.5,0.3-1.1,0.4-1.8,0.5c-0.1,0.8-0.2,1.5-0.5,2.2
		C44.3,33,44,33.6,43.6,34c-0.4,0.5-0.8,0.8-1.3,1.1c-0.5,0.2-1,0.4-1.5,0.4c-0.4,0-0.8,0-1.1-0.1s-0.6-0.3-0.9-0.5
		c-0.2-0.2-0.4-0.5-0.6-0.9c-0.1-0.4-0.2-0.8-0.2-1.3c0-0.3,0-0.7,0.1-1.2c0.1-0.4,0.2-0.9,0.3-1.4s0.4-0.9,0.6-1.4
		c0.2-0.4,0.6-0.8,0.9-1.2s0.8-0.6,1.2-0.8c0.5-0.2,1-0.3,1.6-0.3c1.5,0,2.3,0.9,2.3,2.8l0,0h0.1h0.1c0.2,0,0.4,0,0.7-0.1
		c0.2-0.1,0.5-0.1,0.7-0.2s0.5-0.2,0.7-0.3c0.2-0.1,0.4-0.3,0.6-0.4L48.1,28.7z M43.6,30.2c-0.2,0-0.3-0.1-0.4-0.3
		c-0.1-0.1-0.1-0.3-0.1-0.5s0-0.4,0.1-0.6s0.2-0.3,0.4-0.3c0-0.2,0-0.3-0.1-0.5c0-0.1-0.1-0.2-0.1-0.3s-0.1-0.1-0.2-0.2
		s-0.2-0.1-0.3-0.1c-0.2,0-0.4,0.1-0.6,0.2c-0.2,0.2-0.4,0.4-0.6,0.6c-0.2,0.3-0.3,0.6-0.5,0.9c-0.1,0.3-0.3,0.7-0.4,1.1
		c-0.1,0.4-0.2,0.7-0.2,1.1s-0.1,0.7-0.1,1s0,0.5,0,0.7s0.1,0.3,0.2,0.4c0.1,0.1,0.2,0.2,0.3,0.2s0.3,0.1,0.4,0.1
		c0.2,0,0.4-0.1,0.6-0.3c0.2-0.2,0.4-0.4,0.6-0.8s0.3-0.7,0.5-1.2S43.5,30.7,43.6,30.2z"/>
	<path class="st1" d="M55.6,32.2c-0.2,0.7-0.5,1.3-0.8,1.7s-0.6,0.8-0.9,1c-0.3,0.2-0.6,0.4-0.8,0.4c-0.3,0.1-0.5,0.1-0.8,0.1
		c-0.4,0-0.7-0.1-1-0.2c-0.3-0.1-0.5-0.3-0.6-0.4c-0.2-0.2-0.3-0.4-0.3-0.6c-0.1-0.2-0.1-0.5-0.1-0.7c0-0.3,0-0.6,0.1-1
		s0.2-0.8,0.3-1.2c0.1-0.4,0.2-0.8,0.3-1.2c0.1-0.4,0.1-0.7,0.1-1c0-0.6-0.2-0.9-0.6-0.9c-0.2,0-0.3,0-0.4,0.1
		c-0.1,0.1-0.3,0.2-0.4,0.3c-0.1,0.1-0.2,0.3-0.3,0.5s-0.2,0.4-0.2,0.6L48,35.3h-2.5l1.9-8.8h2.5l-0.2,0.9c0.2-0.2,0.4-0.4,0.6-0.5
		c0.2-0.1,0.4-0.2,0.5-0.3s0.3-0.1,0.5-0.1s0.3,0,0.4,0c0.3,0,0.5,0,0.8,0.1s0.4,0.2,0.6,0.4c0.2,0.2,0.3,0.4,0.4,0.6
		s0.1,0.6,0.1,0.9c0,0.2,0,0.5-0.1,0.8s-0.1,0.5-0.2,0.8s-0.1,0.6-0.2,0.8s-0.1,0.5-0.2,0.8c-0.1,0.3-0.1,0.5-0.2,0.7
		c0,0.2-0.1,0.4-0.1,0.6c0,0.2,0,0.4,0.1,0.5s0.3,0.2,0.6,0.2c0.2,0,0.4,0,0.5-0.1s0.3-0.2,0.4-0.3c0.1-0.1,0.2-0.3,0.3-0.5
		s0.2-0.4,0.3-0.6H55.6z"/>
	<path class="st1" d="M64.4,32.2c-0.2,0.7-0.5,1.3-0.8,1.7s-0.6,0.8-0.9,1c-0.3,0.2-0.6,0.4-0.8,0.4s-0.5,0.1-0.8,0.1
		c-0.4,0-0.7-0.1-1-0.2c-0.3-0.1-0.5-0.3-0.6-0.4c-0.2-0.2-0.3-0.4-0.3-0.6c-0.1-0.2-0.1-0.5-0.1-0.7c0-0.3,0-0.6,0.1-1
		s0.2-0.8,0.3-1.2c0.1-0.4,0.2-0.8,0.3-1.2c0.1-0.4,0.1-0.7,0.1-1c0-0.6-0.2-0.9-0.6-0.9c-0.2,0-0.3,0-0.4,0.1
		c-0.1,0.1-0.3,0.2-0.4,0.3s-0.2,0.3-0.3,0.5S58,29.5,58,29.7l-1.2,5.6h-2.5l1.9-8.8h2.5l-0.2,0.9c0.2-0.2,0.4-0.4,0.6-0.5
		s0.4-0.2,0.5-0.3c0.2-0.1,0.3-0.1,0.5-0.1s0.3,0,0.4,0c0.3,0,0.5,0,0.8,0.1s0.4,0.2,0.6,0.4c0.2,0.2,0.3,0.4,0.4,0.6
		c0.1,0.3,0.1,0.6,0.1,0.9c0,0.2,0,0.5-0.1,0.8s-0.1,0.5-0.2,0.8c-0.1,0.3-0.1,0.6-0.2,0.8s-0.1,0.5-0.2,0.8
		c-0.1,0.3-0.1,0.5-0.2,0.7c0,0.2-0.1,0.4-0.1,0.6c0,0.2,0,0.4,0.2,0.5c0.1,0.1,0.3,0.2,0.6,0.2c0.2,0,0.4,0,0.5-0.1
		s0.3-0.2,0.4-0.3c0.1-0.1,0.2-0.3,0.3-0.5s0.2-0.4,0.3-0.6H64.4z"/>
	<path class="st1" d="M71,32.2c-0.2,0.4-0.5,0.8-0.8,1.2s-0.7,0.7-1.1,1s-0.8,0.5-1.3,0.7s-1,0.3-1.6,0.3c-0.4,0-0.8-0.1-1.1-0.2
		c-0.3-0.1-0.6-0.3-0.9-0.5s-0.4-0.5-0.6-0.9c-0.1-0.4-0.2-0.8-0.2-1.3c0-0.3,0-0.7,0.1-1.2c0.1-0.4,0.2-0.9,0.3-1.4
		s0.3-0.9,0.6-1.4s0.5-0.8,0.9-1.2s0.8-0.6,1.2-0.8c0.5-0.2,1-0.3,1.6-0.3c0.4,0,0.7,0,1,0.1c0.2,0.1,0.4,0.2,0.6,0.4
		c0.1,0.2,0.2,0.3,0.3,0.5c0.1,0.2,0.1,0.4,0.1,0.6c0,0.5-0.1,1-0.3,1.4c-0.2,0.4-0.5,0.8-0.9,1.1c-0.4,0.3-0.8,0.6-1.3,0.8
		c-0.5,0.2-1,0.3-1.5,0.4c0,0.1,0,0.3,0,0.4s0,0.2,0,0.3c0,0.3,0,0.5,0.1,0.7s0.1,0.3,0.2,0.5c0.1,0.1,0.2,0.2,0.4,0.2
		s0.3,0.1,0.6,0.1c0.3,0,0.7,0,0.9-0.1c0.3-0.1,0.5-0.2,0.8-0.4s0.5-0.3,0.7-0.6c0.2-0.2,0.4-0.4,0.7-0.7H71V32.2z M66.3,31
		c0.3,0,0.7-0.1,1-0.3c0.3-0.2,0.6-0.4,0.8-0.6s0.4-0.6,0.6-0.9c0.1-0.3,0.2-0.7,0.2-1.1c0-0.2,0-0.4-0.1-0.5s-0.2-0.2-0.3-0.2
		c-0.2,0-0.4,0.1-0.7,0.3c-0.2,0.2-0.4,0.5-0.6,0.8s-0.4,0.7-0.5,1.2C66.5,30.1,66.3,30.6,66.3,31z"/>
	<path class="st1" d="M77.8,32.2c-0.2,0.4-0.5,0.8-0.8,1.2s-0.7,0.7-1.1,1S75,35,74.6,35.2c-0.5,0.2-1,0.3-1.6,0.3
		c-0.4,0-0.8-0.1-1.1-0.2c-0.3-0.1-0.6-0.3-0.9-0.5s-0.4-0.5-0.6-0.9s-0.2-0.8-0.2-1.3c0-0.3,0-0.7,0.1-1.2s0.2-0.9,0.3-1.4
		s0.3-0.9,0.6-1.4c0.2-0.4,0.5-0.8,0.9-1.2s0.8-0.6,1.2-0.8c0.5-0.2,1-0.3,1.6-0.3c0.4,0,0.7,0,1,0.1s0.5,0.2,0.6,0.4
		c0.1,0.2,0.3,0.3,0.3,0.5c0.1,0.2,0.1,0.4,0.1,0.6s0,0.4-0.1,0.6s-0.1,0.3-0.2,0.4s-0.2,0.2-0.3,0.2s-0.2,0.1-0.4,0.1
		c-0.2,0-0.4-0.1-0.6-0.2c0.1-0.4,0.2-0.7,0.2-1c0-0.2,0-0.4-0.1-0.5s-0.2-0.2-0.4-0.2c-0.2,0-0.4,0.1-0.5,0.2
		c-0.2,0.2-0.4,0.4-0.5,0.7s-0.3,0.6-0.5,0.9c-0.1,0.4-0.3,0.7-0.4,1.1s-0.2,0.8-0.2,1.1c-0.1,0.4-0.1,0.7-0.1,1.1
		c0,0.3,0,0.5,0.1,0.7s0.1,0.3,0.2,0.5c0.1,0.1,0.2,0.2,0.4,0.2s0.3,0.1,0.6,0.1c0.3,0,0.7,0,0.9-0.1c0.3-0.1,0.5-0.2,0.8-0.4
		s0.5-0.3,0.7-0.6c0.2-0.2,0.4-0.4,0.7-0.7L77.8,32.2L77.8,32.2z"/>
	<path class="st1" d="M78.3,27.3h-0.6l0.1-0.7h0.6l0.5-2.4l2.6-0.4c0,0.1-0.1,0.2-0.1,0.4s-0.1,0.3-0.1,0.4
		c-0.1,0.2-0.1,0.5-0.2,0.9s-0.1,0.7-0.2,1.1H82l-0.1,0.7h-1.1l-1.1,5.3c0,0.1,0,0.2-0.1,0.3c0,0.1,0,0.2,0,0.3c0,0.2,0,0.3,0.1,0.5
		c0.1,0.1,0.2,0.2,0.5,0.2c0.1,0,0.1,0,0.2,0s0.2,0,0.2,0c-0.1,0.4-0.3,0.7-0.4,0.9c-0.2,0.2-0.3,0.4-0.5,0.5s-0.3,0.2-0.5,0.2
		s-0.3,0.1-0.5,0.1c-0.3,0-0.6,0-0.8-0.1c-0.2-0.1-0.4-0.2-0.5-0.4s-0.2-0.4-0.3-0.6C77,34.3,77,34,77,33.7s0-0.6,0.1-0.9L78.3,27.3
		z"/>
</g>
</svg>
