<?xml version="1.0" encoding="utf-8"?>
<!-- Generator: Adobe Illustrator 21.1.0, SVG Export Plug-In . SVG Version: 6.00 Build 0)  -->
<svg version="1.1" id="Layer_1" xmlns="http://www.w3.org/2000/svg" xmlns:xlink="http://www.w3.org/1999/xlink" x="0px" y="0px"
	 viewBox="0 0 504.1 504.1" style="enable-background:new 0 0 504.1 504.1;" xml:space="preserve">
<style type="text/css">
	.st0{fill:#03D9C9;}
	.st1{fill:#07D1BD;}
	.st2{fill:#09CCB4;}
	.st3{fill:#EFEFEF;}
	.st4{fill:#06CEBB;}
	.st5{fill:#DCDCDC;}
	.st6{fill:#D1D1D1;}
</style>
<path class="st0" d="M15.8,133.9l236.3,118.2l236.3-118.2V386L252.1,504.1L15.8,386V133.9z"/>
<path class="st1" d="M15.8,157.5v73.6l235.5,115.4l237.1-115.8v-73.3L252.1,273.3L15.8,157.5z"/>
<path class="st1" d="M252.1,504.1V252.1L31.5,141.8H15.8V386L252.1,504.1z"/>
<path class="st2" d="M15.8,157.5v73.6l235.5,115.4l0.8-0.4v-73.3v0.4L15.8,157.5z"/>
<path class="st0" d="M0,125.6L252.1,0l252.1,125.6v16.5L252.1,267.8L0,142.6V125.6z"/>
<path class="st3" d="M396.6,39.8c-8.3-15-26-24-46.9-24c-47.7,0-81.1,44.5-97.7,72.9c-16.5-28.4-50.4-72.5-97.7-72.5
	c-30.3,0-52,18.5-52,43.7c0,44.9,49.2,74,148.1,74s151.2-37.4,151.2-73.6C401.7,53.2,400.1,46.1,396.6,39.8z M164.6,88.2
	c-11-7.5-15-15.8-15-21.3c0-6.7,6.3-11.8,15.4-11.8c21.3,0,38.2,28,47.7,47.3C187.9,100.4,173.3,93.7,164.6,88.2z M339.5,88.2
	c-8.7,5.5-23.2,12.2-48,14.2c9.1-19.3,26-47.3,47.7-47.3c9.1,0,15.4,5.1,15.4,11.8C354.5,72.5,350.5,80.7,339.5,88.2z"/>
<path class="st4" d="M0,126l252.1,123.3L504.1,126v81.5L251.3,330.8L0,207.6V126z"/>
<path class="st3" d="M346.6,213.9v-9.1l-94.5-51.2l-94.5,51.2v9.1l-63-27.6v-12.6l154.4-81.5l3.2,1.6l3.2-1.6l154.4,81.1v12.6
	L346.6,213.9z"/>
<path class="st5" d="M346.6,204.8v251.7l63-31.5V173.3L346.6,204.8z"/>
<path class="st6" d="M94.5,425.4l63,31.5V205.2l-63-31.9C94.5,173.3,94.5,425.4,94.5,425.4z"/>
</svg>
