<svg width="54" height="41" viewBox="0 0 54 41" version="1.1" xmlns="http://www.w3.org/2000/svg" xmlns:xlink="http://www.w3.org/1999/xlink">
<title>quote</title>
<desc>Created using Figma</desc>
<g id="Canvas" transform="translate(-42850 -9155)">
<g id="quote">
<use xlink:href="#path0_fill" transform="translate(42850.1 9155.7)" fill="url(#paint0_linear)"/>
</g>
</g>
<defs>
<linearGradient id="paint0_linear" x1="0" y1="0" x2="1" y2="0" gradientUnits="userSpaceOnUse" gradientTransform="matrix(130 -129.565 87.4448 112.836 -49.3708 -6.05637)">
<stop offset="0" stop-color="#03D9C9"/>
<stop offset="1" stop-color="#FFF500"/>
<stop offset="1" stop-color="#FFF500"/>
</linearGradient>
<path id="path0_fill" d="M 0 27.6328C 0.0468751 22.9922 1.19531 18.1875 3.44531 13.2188C 5.69531 8.25 8.53125 3.84375 11.9531 0L 17.4375 1.89844C 15.1406 6.63282 13.7109 12.0938 13.1484 18.2812C 15.8672 18.6563 18.0938 19.8281 19.8281 21.7969C 21.6094 23.7188 22.5 26.0625 22.5 28.8281C 22.5 31.9219 21.4219 34.5469 19.2656 36.7031C 17.1094 38.8594 14.4844 39.9375 11.3906 39.9375C 8.15625 39.9375 5.4375 38.8125 3.23438 36.5625C 1.07813 34.2656 0 31.2891 0 27.6328ZM 30.4453 27.6328C 30.4922 22.9922 31.6406 18.1875 33.8906 13.2188C 36.1406 8.25 38.9766 3.84375 42.3984 0L 47.8125 1.89844C 45.5156 6.63282 44.0859 12.0938 43.5234 18.2812C 46.2422 18.6563 48.4687 19.8281 50.2031 21.7969C 51.9844 23.7188 52.875 26.0625 52.875 28.8281C 52.875 31.9219 51.7969 34.5469 49.6406 36.7031C 47.4844 38.8594 44.8594 39.9375 41.7656 39.9375C 38.5312 39.9375 35.8359 38.8125 33.6797 36.5625C 31.5234 34.2656 30.4453 31.2891 30.4453 27.6328Z"/>
</defs>
</svg>
