<svg width="428" height="113" viewBox="0 0 428 113" version="1.1" xmlns="http://www.w3.org/2000/svg" xmlns:xlink="http://www.w3.org/1999/xlink">
<title>stick-logo-normal</title>
<desc>Created using Figma</desc>
<g id="Canvas" transform="translate(-42866 -8790)">
<g id="stick-logo-normal">
<g id="Group">
<g id="Group">
<g id="Vector">
<use xlink:href="#path0_fill" transform="translate(43001.3 8807.66)" fill="#03D9C9"/>
</g>
<g id="Vector">
<use xlink:href="#path1_fill" transform="translate(43065.2 8808.69)" fill="#03D9C9"/>
</g>
<g id="Vector">
<use xlink:href="#path2_fill" transform="translate(43127.8 8808.62)" fill="#03D9C9"/>
</g>
<g id="Vector">
<use xlink:href="#path3_fill" transform="translate(43155 8807.58)" fill="#03D9C9"/>
</g>
<g id="Vector">
<use xlink:href="#path4_fill" transform="translate(43241.8 8808.62)" fill="#03D9C9"/>
</g>
</g>
</g>
<g id="Group">
<g id="Vector">
<use xlink:href="#path5_fill" transform="translate(42879.5 8808.91)" fill="url(#paint5_linear)"/>
</g>
<g id="Vector">
<use xlink:href="#path6_fill" transform="translate(42866 8790)" fill="url(#paint6_linear)"/>
</g>
</g>
</g>
</g>
<defs>
<linearGradient id="paint5_linear" x1="0" y1="0" x2="1" y2="0" gradientUnits="userSpaceOnUse" gradientTransform="matrix(94.6954 0 0 94.0833 -0.0432533 -0.0135862)">
<stop offset="0" stop-color="#0CFFE9"/>
<stop offset="0.1342" stop-color="#0AF7E5"/>
<stop offset="0.6816" stop-color="#03DBD9"/>
<stop offset="1" stop-color="#00D1D4"/>
</linearGradient>
<linearGradient id="paint6_linear" x1="0" y1="0" x2="1" y2="0" gradientUnits="userSpaceOnUse" gradientTransform="matrix(0 94.0833 -94.6954 0 94.6955 0.00924164)">
<stop offset="0" stop-color="#0CFFE9"/>
<stop offset="0.1342" stop-color="#0AF7E5"/>
<stop offset="0.6816" stop-color="#03DBD9"/>
<stop offset="1" stop-color="#00D1D4"/>
</linearGradient>
<path id="path0_fill" d="M 15.161 74.0596C 11.1478 72.509 7.80344 70.2939 5.20229 67.4142C 2.60115 64.5345 0.891822 61.138 0 57.2245L 7.43185 55.3786C 8.10071 58.3321 9.43844 60.8426 11.445 62.9839C 13.4516 65.1252 15.9041 66.7496 18.9512 67.9311C 21.9983 69.0386 25.3426 69.6293 28.9842 69.6293C 32.1799 69.6293 35.1526 69.1863 37.9024 68.3002C 40.6522 67.4142 42.8074 65.9374 44.5911 63.87C 46.3004 61.8025 47.1922 59.2182 47.1922 55.9693C 47.1922 52.7204 46.2261 50.1361 44.2938 48.2163C 42.3615 46.2965 40.0577 44.7459 37.2336 43.7122C 34.4094 42.6784 30.5449 41.497 25.6399 40.2418C 20.5119 38.9865 16.3501 37.6574 13.1544 36.3283C 9.95867 34.9993 7.28321 33.0056 5.20229 30.4213C 3.12138 27.837 2.0066 24.3666 2.0066 20.1578C 2.0066 15.7275 3.12137 12.0356 5.35093 9.00825C 7.58048 5.98089 10.5532 3.6919 14.1948 2.21514C 17.9108 0.738381 21.9239 -2.8167e-07 26.3087 -2.8167e-07C 30.8422 -2.8167e-07 34.9297 0.664543 38.7199 1.91979C 42.4358 3.24888 45.6315 5.16867 48.1584 7.82684C 50.6852 10.485 52.3945 13.66 53.2863 17.4996L 46.0031 19.3456C 44.9627 15.1368 42.6588 11.9618 39.0915 9.82047C 35.5242 7.67916 31.2881 6.57159 26.4574 6.57159C 23.4846 6.57159 20.7348 7.01462 18.208 7.97452C 15.6069 8.93441 13.526 10.4112 11.891 12.4048C 10.2559 14.4723 9.43844 17.0566 9.43844 20.1578C 9.43844 22.9637 10.256 25.2526 11.9653 26.9509C 13.6003 28.723 15.7555 30.0521 18.2823 31.012C 20.8092 31.9719 24.2278 33.0056 28.464 34.1132C 34.1122 35.5161 38.6456 36.8452 42.1386 38.1743C 45.5572 39.5034 48.53 41.5709 50.9825 44.3029C 53.435 47.1087 54.6241 50.8006 54.6241 55.4524C 54.6241 60.1781 53.435 64.0176 51.1311 67.1927C 48.7529 70.2939 45.6315 72.5829 41.767 74.1335C 37.8281 75.6102 33.5176 76.3486 28.7612 76.3486C 23.7076 76.4224 19.1742 75.6102 15.161 74.0596Z"/>
<path id="path1_fill" d="M 46.8206 6.79311L 27.1262 6.79311L 27.1262 74.355L 19.6944 74.355L 19.6944 6.79311L 0 6.79311L 0 -5.6334e-07L 46.8206 -5.6334e-07L 46.8206 6.79311Z"/>
<path id="path2_fill" d="M 9.07208e-06 5.6334e-07L 7.43185 5.6334e-07L 7.43185 74.4288L 9.07208e-06 74.4288L 9.07208e-06 5.6334e-07Z"/>
<path id="path3_fill" d="M 18.0594 71.8445C 12.4855 68.7433 8.02638 64.313 4.83069 58.5536C 1.56068 52.7942 -9.07208e-06 46.0011 -9.07208e-06 38.1743C -9.07208e-06 30.4213 1.635 23.6282 4.83069 17.8688C 8.1007 12.1094 12.4855 7.67916 18.0594 4.57796C 23.6333 1.47676 29.9503 -5.6334e-07 36.862 -5.6334e-07C 43.9965 -5.6334e-07 50.4622 1.62444 56.1104 4.94715C 61.8329 8.26987 66.1434 12.8478 69.1905 18.7549L 62.4275 21.7084C 59.975 17.0566 56.482 13.4385 51.9486 10.928C 47.4895 8.41754 42.4358 7.1623 36.862 7.1623C 31.3624 7.1623 26.3831 8.41754 21.8496 10.7804C 17.3905 13.217 13.8232 16.7612 11.2221 21.4131C 8.62094 26.0649 7.35754 31.6027 7.35754 38.0266C 7.35754 44.4505 8.62094 49.9884 11.2221 54.714C 13.8232 59.3658 17.3905 62.9839 21.8496 65.4206C 26.3087 67.8572 31.3624 69.0386 36.862 69.0386C 42.4358 69.0386 47.4895 67.7834 51.9486 65.2729C 56.4077 62.7624 59.9007 59.2182 62.4275 54.4925L 69.1905 57.446C 66.2177 63.3531 61.8329 68.0049 56.1104 71.2538C 50.3879 74.5765 43.9965 76.2009 36.862 76.2009C 29.9503 76.4963 23.6333 74.9457 18.0594 71.8445Z"/>
<path id="path4_fill" d="M 14.3435 38.9865L 7.43185 38.9865L 7.43185 74.4288L 9.07208e-06 74.4288L 9.07208e-06 5.6334e-07L 7.43185 5.6334e-07L 7.43185 32.1934L 14.3435 32.1934L 41.1724 5.6334e-07L 50.3879 5.6334e-07L 20.8092 35.4423L 52.1716 74.4288L 42.5845 74.4288L 14.3435 38.9865Z"/>
<path id="path5_fill" d="M 78.406 2.8167e-07L 46.7463 31.455C 47.4152 36.8452 50.7595 36.3283 50.7595 29.6091C 62.3532 46.6657 56.1848 62.6885 39.1658 62.6885C 35.004 62.6885 27.7208 60.6949 25.2683 52.8681L 5.67005e-07 77.973C 21.6267 99.4599 56.7793 99.4599 78.4803 77.973C 100.033 56.4123 100.033 21.4869 78.406 2.8167e-07Z"/>
<path id="path6_fill" d="M 37.9024 65.7252C 37.9024 52.8035 52.6918 40.251 52.6918 31.3904C 58.5629 34.7131 60.1979 41.2109 60.1979 48.447C 60.1979 49.1116 60.1979 49.7761 60.2723 50.293L 94.6817 16.1059C 73.055 -5.38094 37.9024 -5.38094 16.2757 16.1798C -5.42525 37.6667 -5.42525 72.5921 16.2757 94.079L 38.7942 71.706C 38.1997 70.0078 37.9024 68.0141 37.9024 65.7252Z"/>
</defs>
</svg>
