<svg width="40" height="40" viewBox="0 0 40 40" fill="none" xmlns="http://www.w3.org/2000/svg">
<circle cx="13.1579" cy="20.2631" r="3.15789" fill="#FFB400"/>
<path d="M21.8426 23.3472C21.8426 24.2557 22.0423 24.8916 22.4416 25.255C22.841 25.6183 23.2795 25.8 23.7571 25.8C24.2347 25.8 24.6302 25.6223 24.9434 25.2668C25.2566 24.9113 25.4171 24.5163 25.4249 24.0819C25.4249 23.6474 25.2331 23.3037 24.8494 23.051C24.4657 22.7982 23.898 22.5098 23.1463 22.1859C22.3946 21.8621 21.9092 21.6567 21.6899 21.5698C21.4707 21.475 21.2319 21.3723 20.9735 21.2617C20.7151 21.1511 20.351 20.9378 19.8812 20.6218C19.4113 20.3058 19.0316 19.9819 18.7419 19.6501C18.4521 19.3184 18.1859 18.872 17.9432 18.3111C17.7005 17.7503 17.583 17.1578 17.5908 16.5337C17.5908 14.8353 18.2251 13.4884 19.4936 12.493C20.7621 11.4977 22.2654 11 24.0037 11C25.7421 11 27.1985 11.5806 28.373 12.7419C28.7802 13.1448 29.1169 13.678 29.3831 14.3416C29.6493 15.0051 29.7903 15.7517 29.8059 16.5811H25.3075C25.1979 15.7517 24.9277 15.2263 24.4971 15.0051C24.27 14.8945 23.9724 14.8392 23.6044 14.8392C23.2364 14.8392 22.8958 14.9696 22.5826 15.2303C22.2694 15.4989 22.1128 15.8346 22.1128 16.2375C22.1128 16.6404 22.3046 16.9682 22.6883 17.221C23.072 17.4738 24.0781 17.9675 25.7068 18.7022C27.3355 19.429 28.4513 20.1952 29.0542 21.001C29.6571 21.8068 29.9547 22.7666 29.9469 23.8804C29.9469 25.4446 29.5084 26.7599 28.6314 27.8263C27.637 29.035 26.0161 29.6393 23.7688 29.6393C21.5216 29.6314 19.8694 29.0508 18.8123 27.8974C17.7553 26.7441 17.258 25.2273 17.3207 23.3472H21.8426Z" fill="#FAFAFA"/>
</svg>
