<?xml version="1.0" encoding="utf-8"?>
<!-- Generator: Adobe Illustrator 21.0.2, SVG Export Plug-In . SVG Version: 6.00 Build 0)  -->
<svg version="1.1" id="Layer_1" xmlns="http://www.w3.org/2000/svg" xmlns:xlink="http://www.w3.org/1999/xlink" x="0px" y="0px"
	 viewBox="0 0 128 128" style="enable-background:new 0 0 128 128;" xml:space="preserve">
<style type="text/css">
	.st0{fill:#0196F5;}
</style>
<title>icons</title>
<path class="st0" d="M122.4,30.1c-0.7-1.5-2.1-2.5-3.8-2.6c-7.5-0.3-14.9,1.1-21.7,4.1l-22.2,10h-0.2l-26-5.1l-15.7,7l20.3,7.7
	l-15.8,7.1h-0.1l-22-6.9l-9.3,4.1L19.7,68l-2.5,1.7l2.3,5.2l1.2,0.2c10.5,2.1,21.4,0.9,31.1-3.5l5.1-2.3l-0.5,1.2l-6.8,17.9l1.6,0.3
	c0.8,0.1,1.5,0.3,2.2,0.6l0.5,0.2l9.9-4.4l15.2-25.8h0.1l24.5-11c5.9-2.7,11.3-6.5,15.7-11.3l2.1-2.2
	C122.8,33.5,123.1,31.7,122.4,30.1z M40,43.3l8.9-4H49l21.3,4.2l-13.7,6.2l-0.2-0.1L40,43.3z M10.9,56.3l4.6-2.1L33.6,60l-3.8,1.7
	c-1.2,0.5-2.4,1.2-3.5,1.9l-4.2,2.8l-0.3-0.3L10.9,56.3z M119.6,33l-2.1,2.2c-4.2,4.5-9.2,8.1-14.8,10.6l-21.1,9.4l2.6-4.4l-2.3-1.4
	L62.1,83H62l-8.8,4l0.5-1.2l9.8-25.6l-2.5-1l-2.5,6.6l-7.7,3.4c-9.1,4.1-19.2,5.3-29,3.4l-0.3-0.1l-0.8-1.8l7.2-4.8
	c1-0.7,2.1-1.2,3.2-1.7l67-30c6.4-2.9,13.4-4.2,20.4-3.9c0.9,0,1.6,0.8,1.6,1.7C120,32.3,119.9,32.7,119.6,33z"/>
<path class="st0" d="M106,103.2H22.5c-0.9,0-1.6,0.7-1.6,1.6s0.7,1.6,1.6,1.6H106c0.9,0,1.6-0.7,1.6-1.6S106.9,103.2,106,103.2z"/>
</svg>
