<?xml version="1.0" encoding="utf-8"?>
<!-- Generator: Adobe Illustrator 21.0.2, SVG Export Plug-In . SVG Version: 6.00 Build 0)  -->
<svg version="1.1" id="Layer_1" xmlns="http://www.w3.org/2000/svg" xmlns:xlink="http://www.w3.org/1999/xlink" x="0px" y="0px"
	 viewBox="0 0 128 128" style="enable-background:new 0 0 128 128;" xml:space="preserve">
<style type="text/css">
	.st0{fill:#0196F5;}
</style>
<path class="st0" d="M86.5,86L63.6,63.1l22.9-22.9c0.6-0.6,0.6-1.7,0-2.4l-24-24c-0.5-0.5-1.2-0.6-1.8-0.4c-0.6,0.3-1,0.9-1,1.5
	v43.8L48.1,46.4c-0.3-0.3-0.7-0.5-1.2-0.5c-0.4,0-0.9,0.1-1.2,0.4c-0.3,0.3-0.5,0.7-0.5,1.2c0,0.4,0.1,0.9,0.4,1.2L59,63.1l-0.2,0.2
	L45.6,77.7c-0.3,0.3-0.5,0.7-0.4,1.2c0,0.4,0.2,0.9,0.5,1.2c0.3,0.3,0.7,0.4,1.2,0.4s0.9-0.2,1.2-0.5l11.6-12.5v43.8
	c0,0.7,0.4,1.3,1,1.5s1.3,0.1,1.8-0.4l24-24C87.1,87.7,87.1,86.7,86.5,86z M62.9,19.1l20,20l-20,20V19.1z M62.9,107.2v-40l20,20
	L62.9,107.2z"/>
<g>
	<path class="st0" d="M102.9,63.1c0,5.1-2,9.9-5.6,13.5c-0.6,0.6-1.6,0.6-2.2,0s-0.6-1.6,0-2.2c3-3,4.7-7.1,4.7-11.4
		s-1.7-8.3-4.7-11.4c-0.3-0.3-0.4-0.7-0.4-1.1s0.2-0.8,0.4-1.1c0.6-0.6,1.6-0.6,2.2,0C100.9,53.2,102.9,58,102.9,63.1z"/>
	<path class="st0" d="M94.3,63.1L94.3,63.1c0,2.8-1.1,5.5-3.1,7.5c-0.6,0.6-1.6,0.6-2.2,0s-0.6-1.6,0-2.2c1.4-1.4,2.2-3.3,2.2-5.4
		c0-2-0.8-3.9-2.2-5.4c-0.3-0.3-0.4-0.7-0.4-1.1c0-0.4,0.2-0.8,0.4-1.1c0.3-0.3,0.7-0.4,1.1-0.4s0.8,0.2,1.1,0.4
		C93.2,57.6,94.3,60.3,94.3,63.1z"/>
	<path class="st0" d="M111.5,63.1c0,7.4-2.9,14.4-8.1,19.6c-0.6,0.6-1.6,0.6-2.2,0s-0.6-1.6,0-2.2c4.7-4.7,7.2-10.9,7.2-17.5
		s-2.6-12.8-7.2-17.5c-0.6-0.6-0.6-1.6,0-2.1c0.6-0.6,1.6-0.6,2.2,0C108.6,48.7,111.5,55.7,111.5,63.1z"/>
</g>
<g>
	<path class="st0" d="M23.3,63.1c0,5.1,2,9.9,5.6,13.5c0.6,0.6,1.6,0.6,2.2,0s0.6-1.6,0-2.2c-3-3-4.7-7.1-4.7-11.4s1.7-8.3,4.7-11.4
		c0.3-0.3,0.4-0.7,0.4-1.1s-0.2-0.8-0.4-1.1c-0.6-0.6-1.6-0.6-2.2,0C25.3,53.2,23.3,58,23.3,63.1z"/>
	<path class="st0" d="M31.8,63.1L31.8,63.1c0,2.8,1.1,5.5,3.1,7.5c0.6,0.6,1.6,0.6,2.2,0c0.6-0.6,0.6-1.6,0-2.2
		c-1.4-1.4-2.2-3.3-2.2-5.4c0-2,0.8-3.9,2.2-5.4c0.3-0.3,0.4-0.7,0.4-1.1c0-0.4-0.2-0.8-0.4-1.1C36.8,55.1,36.4,55,36,55
		c-0.4,0-0.8,0.2-1.1,0.4C32.9,57.6,31.8,60.3,31.8,63.1z"/>
	<path class="st0" d="M14.6,63.1c0,7.4,2.9,14.4,8.1,19.6c0.6,0.6,1.6,0.6,2.2,0s0.6-1.6,0-2.2c-4.7-4.7-7.2-10.9-7.2-17.5
		s2.6-12.8,7.2-17.5c0.6-0.6,0.6-1.6,0-2.1c-0.6-0.6-1.6-0.6-2.2,0C17.5,48.7,14.6,55.7,14.6,63.1z"/>
</g>
</svg>
