<?xml version="1.0" encoding="utf-8"?>
<!-- Generator: Adobe Illustrator 21.0.2, SVG Export Plug-In . SVG Version: 6.00 Build 0)  -->
<svg version="1.1" id="Layer_1" xmlns="http://www.w3.org/2000/svg" xmlns:xlink="http://www.w3.org/1999/xlink" x="0px" y="0px"
	 viewBox="0 0 128 128" style="enable-background:new 0 0 128 128;" xml:space="preserve">
<style type="text/css">
	.st0{fill:#0196F5;}
</style>
<title>icons</title>
<path class="st0" d="M76.3,30.6h-0.1c-0.8-0.2-1.6-0.5-2.4-0.9c-0.3-0.1-0.5-0.2-0.8-0.3c-2.7-1-3.4-1.8-3.6-2.1V25
	c1.6-2.1,2.5-4.6,2.6-7.2c0.6-2.9,0.1-5.9-1.4-8.5V9.1h-0.1c-0.6-0.9-1.3-1.8-2.1-2.5c-1.8-1.3-3.9-2-6.2-2c-2.2,0-4.4,0.7-6.2,2
	c-4.1,2.8-3.7,9.6-3.7,9.8v0.2h0.2c0,0,0.2,0,0.6,0.1c0,0.3,0,0.6,0,1c0,2.6,0.9,5.1,2.5,7.2v2.3c-0.2,0.3-0.8,1-3.6,2.1
	c-0.2,0.1-0.5,0.2-0.8,0.3c-0.8,0.4-1.6,0.7-2.4,0.9h-0.1c-1.7,0.6-2.9,2.2-2.9,4v5h33.3v-5C79.1,32.8,78,31.2,76.3,30.6z
	 M57.3,28.1L57.3,28.1l0.1-0.3v-0.7c0.5,0.5,1.1,0.9,1.8,1.3l-0.5,0.4L57.3,28.1z M59,31.1l0.3-0.3l0.3,1.4l-0.7,5.4H47.7v-3
	c0-1,0.6-1.8,1.5-2.1h0.1c0.9-0.2,1.8-0.6,2.7-1h0.1c0.2-0.1,0.3-0.2,0.5-0.2c1.2-0.4,2.3-0.9,3.3-1.6L59,31.1z M69.9,13.3
	c-0.3-0.4-0.7-0.7-1.1-0.9l0,0c-0.2-0.2-0.5-0.3-0.8-0.4c-0.2-0.1-0.5-0.2-0.7-0.2l0,0c-1.6-0.2-3.1,0.2-4.4,1.1
	c-2.4,1.4-5,2.1-7.7,2.1c-0.3,0-0.6,0-0.9,0c0-0.7,0.1-1.4,0.3-2.1c0.2-0.9,0.5-1.9,0.9-2.7c0.4-0.8,1-1.5,1.7-2
	c1.5-1.1,3.3-1.6,5.1-1.6c1.7,0,3.5,0.5,4.9,1.5c0.5,0.5,1,1,1.4,1.5c0.4,0.6,0.8,1.2,1,1.9c0.3,0.6,0.5,1.3,0.6,2L69.9,13.3z
	 M55,17h0.2c3.1,0,6.1-0.8,8.8-2.4c0.8-0.5,1.7-0.8,2.7-0.9c1.7,0,2.4,1.5,2.9,2.8c0.1,0.4,0.3,0.7,0.6,1c0,0.1,0,0.2,0,0.3
	c-0.1,2.6-1.1,5-2.9,6.9c-0.8,0.9-1.6,1.6-2.6,2.2c-0.6,0.4-1.3,0.7-2.1,0.7c-0.7-0.1-1.5-0.3-2.1-0.7c-1-0.6-1.9-1.3-2.6-2.2
	c-1.8-1.9-2.8-4.3-2.9-6.9C54.9,17.5,54.9,17.2,55,17z M65.7,30.8l0.4,0.4l3-1.6c1,0.6,2.1,1.2,3.2,1.6c0.2,0.1,0.3,0.1,0.5,0.2h0.1
	c0.9,0.4,1.8,0.8,2.7,1h0.1c0.9,0.3,1.5,1.2,1.5,2.1v3H66.1l-0.8-5.3L65.7,30.8z M66.3,28.9l-0.5-0.5c0.6-0.4,1.2-0.8,1.7-1.3v0.6
	l0.2,0.5L66.3,28.9z M63.6,31.2h-2.3L61,29.5l0.1-0.1c0.9,0.3,1.9,0.3,2.8,0l0.1,0.1L63.6,31.2z M61.4,33.1h2.1l0.6,4.5h-3.3
	L61.4,33.1z"/>
<path class="st0" d="M38.5,93.6h-0.1c-0.8-0.2-1.6-0.5-2.4-0.9c-0.3-0.1-0.5-0.2-0.8-0.3c-2.7-1-3.4-1.8-3.6-2.1V88
	c1.6-2,2.5-4.5,2.6-7.1c0.6-2.9,0.1-5.9-1.4-8.5V72L32.7,72c-0.6-0.9-1.2-1.7-2-2.4c-1.8-1.3-3.9-2-6.2-2c-2.2,0-4.4,0.7-6.2,2
	c-4.1,2.8-3.7,9.6-3.7,9.8v0.2h0.2c0,0,0.2,0.1,0.6,0.1c0,0.3,0,0.7,0,1c0.1,2.6,1,5.1,2.6,7.2v2.3c-0.2,0.3-0.8,1-3.6,2.1
	c-0.2,0.1-0.5,0.2-0.8,0.3c-0.8,0.4-1.6,0.7-2.4,0.9h-0.1c-1.7,0.6-2.9,2.2-2.9,4v5h33.2v-5C41.4,95.8,40.2,94.1,38.5,93.6z
	 M19.5,91L19.5,91l0.1-0.3V90c0.5,0.5,1.1,0.9,1.8,1.3L21,91.8L19.5,91z M21.2,94l0.3-0.3l0.3,1.4l-0.7,5.4H10v-3
	c0-1,0.6-1.8,1.5-2.1h0.1c0.9-0.2,1.9-0.6,2.7-1h0.1c0.2-0.1,0.3-0.2,0.5-0.2c1.2-0.4,2.3-0.9,3.3-1.6L21.2,94z M32.1,76.2
	c-0.3-0.4-0.7-0.7-1.1-0.9l0,0c-0.2-0.1-0.5-0.3-0.7-0.3c-0.2-0.1-0.5-0.2-0.7-0.2l0,0c-1.5-0.2-3.1,0.2-4.4,1.1
	c-2.4,1.4-5,2.1-7.8,2.2c-0.3,0-0.6,0-0.9,0c0-0.7,0.1-1.4,0.3-2.1c0.2-0.9,0.5-1.9,0.9-2.7c0.4-0.8,1-1.5,1.7-2
	c1.5-1.1,3.3-1.6,5.1-1.6c1.7-0.1,3.5,0.4,4.9,1.4c0.5,0.5,1,1,1.4,1.5c0.4,0.6,0.8,1.2,1,1.9c0.3,0.6,0.5,1.3,0.6,2L32.1,76.2z
	 M17.2,79.9c3.1,0,6.2-0.8,8.9-2.4c0.8-0.5,1.7-0.8,2.7-0.9c1.7,0,2.4,1.5,2.9,2.8c0.1,0.4,0.3,0.7,0.6,1c0,0.1,0,0.2,0,0.3
	c-0.1,2.6-1.1,5-2.9,6.9c-0.8,0.9-1.6,1.6-2.6,2.2c-0.6,0.4-1.3,0.7-2.1,0.7c-0.7-0.1-1.5-0.3-2.1-0.7c-1-0.6-1.9-1.3-2.6-2.2
	c-1.7-1.9-2.8-4.3-2.9-6.9C17.2,80.4,17.2,80.2,17.2,79.9z M27.9,93.7l0.4,0.4l3-1.6c1,0.6,2.1,1.2,3.2,1.6c0.2,0.1,0.3,0.2,0.6,0.3
	c0.9,0.4,1.8,0.8,2.7,1h0.1c0.9,0.3,1.5,1.2,1.5,2.1v3H28.4l-0.8-5.3L27.9,93.7z M28.6,91.8L28,91.3c0.6-0.4,1.2-0.8,1.7-1.3v0.6
	l0.2,0.5L28.6,91.8z M25.9,94.1h-2.3l-0.4-1.7l0.1-0.1c0.9,0.3,1.9,0.3,2.8,0l0.1,0.1L25.9,94.1z M23.7,96h2.1l0.6,4.5h-3.3L23.7,96
	z"/>
<path class="st0" d="M119.3,93.6h-0.1c-0.8-0.2-1.6-0.5-2.4-0.9c-0.3-0.1-0.5-0.2-0.8-0.3c-2.7-1-3.4-1.8-3.6-2.1V88
	c1.6-2.1,2.5-4.6,2.6-7.2c0.6-2.9,0.1-5.9-1.4-8.5v-0.3l-0.1,0.1c-0.6-0.9-1.2-1.7-2-2.4c-1.8-1.3-3.9-2-6.2-2c-2.2,0-4.4,0.7-6.2,2
	c-4.1,2.8-3.7,9.6-3.7,9.8v0.2h0.2c0,0,0.2,0.1,0.6,0.1c0,0.3,0,0.7,0,1c0.1,2.6,1,5.1,2.6,7.2v2.3c-0.2,0.3-0.8,1-3.6,2.1
	c-0.2,0.1-0.5,0.2-0.8,0.3c-0.8,0.4-1.6,0.7-2.4,0.9h-0.1c-1.7,0.6-2.9,2.2-2.9,4v5h33.3v-5C122.3,95.7,121.1,94.1,119.3,93.6z
	 M100.3,91L100.3,91l0.1-0.3V90c0.5,0.5,1.1,0.9,1.8,1.3l-0.5,0.4L100.3,91z M102,94l0.3-0.3l0.3,1.4l-0.7,5.4H90.8v-3
	c0-1,0.6-1.8,1.5-2.1h0.1c0.9-0.2,1.9-0.6,2.7-1h0.1c0.2-0.1,0.4-0.2,0.5-0.2c1.2-0.4,2.3-1,3.3-1.7L102,94z M112.9,76.2
	c-0.3-0.4-0.7-0.7-1.1-0.9l0,0c-0.2-0.1-0.5-0.3-0.7-0.3c-0.2-0.1-0.5-0.2-0.7-0.2l0,0c-1.6-0.2-3.1,0.2-4.4,1.1
	c-2.4,1.4-5,2.2-7.8,2.2c-0.3,0-0.6,0-0.9,0c0-0.7,0.1-1.4,0.3-2.1c0.2-0.9,0.5-1.9,0.9-2.7c0.4-0.8,1-1.5,1.7-2
	c1.5-1.1,3.3-1.6,5.1-1.6c1.7-0.1,3.5,0.4,4.9,1.4c0.5,0.5,1,1,1.4,1.5c0.4,0.6,0.8,1.2,1.1,1.9c0.3,0.6,0.5,1.3,0.6,2L112.9,76.2z
	 M98,79.9c3.1,0,6.2-0.8,8.9-2.4c0.8-0.5,1.7-0.8,2.7-0.9c1.7,0,2.4,1.5,2.9,2.8c0.1,0.4,0.3,0.7,0.6,1c0,0.1,0,0.2,0,0.3
	c-0.1,2.6-1.1,5-2.9,6.9c-0.8,0.9-1.6,1.6-2.6,2.2c-1.2,1-2.9,1-4.1,0c-1-0.6-1.9-1.4-2.6-2.2c-1.7-1.9-2.8-4.3-2.9-6.9
	C97.9,80.4,98,80.2,98,79.9z M108.7,93.7l0.4,0.4l3-1.6c1,0.6,2.1,1.2,3.2,1.6c0.2,0.1,0.3,0.2,0.5,0.2h0.1c0.9,0.4,1.8,0.8,2.7,1
	h0.1c0.9,0.3,1.5,1.2,1.5,2.1v3h-11.1l-0.8-5.3L108.7,93.7z M109.4,91.8l-0.5-0.5c0.6-0.4,1.2-0.8,1.7-1.3v0.6l0.1,0.3l0.1,0.1
	L109.4,91.8z M106.7,94.1h-2.3l-0.4-1.7l0.1-0.1c0.9,0.3,1.9,0.3,2.8,0l0.1,0.1L106.7,94.1z M104.5,96h2.1l0.7,4.5h-3.3L104.5,96z"
	/>
<circle class="st0" cx="35" cy="17.2" r="3"/>
<circle class="st0" cx="16.1" cy="36.1" r="3"/>
<circle class="st0" cx="8.8" cy="61.5" r="3"/>
<circle class="st0" cx="90" cy="17.2" r="3"/>
<circle class="st0" cx="108.9" cy="36.1" r="3"/>
<circle class="st0" cx="116.1" cy="61.5" r="3"/>
<path class="st0" d="M37.5,111.1c-0.8-0.2-1.6-0.1-2.2,0.3c-1.3,1-1.5,2.9-0.5,4.2c0.8,1,2.2,1.4,3.4,0.9c1.4-0.9,1.9-2.7,1-4.1
	C38.8,111.8,38.2,111.3,37.5,111.1z"/>
<path class="st0" d="M63.2,118.2c-1.5-0.7-3.3,0-4,1.5s0,3.3,1.5,4c0.3,0.1,0.6,0.2,0.9,0.3c0.3,0.1,0.5,0.1,0.8,0.1
	c1.7-0.1,2.9-1.6,2.8-3.2C65.1,119.6,64.3,118.6,63.2,118.2z"/>
<path class="st0" d="M86.6,112.2c-1.4,0.9-1.9,2.7-1,4.1c0.4,0.6,1,1.1,1.7,1.3c0.3,0.1,0.5,0.1,0.8,0.1c1.7,0.1,3.1-1.2,3.1-2.9
	c0.1-1.7-1.2-3.1-2.9-3.1C87.7,111.7,87.1,111.9,86.6,112.2z"/>
</svg>
