<?xml version="1.0" encoding="utf-8"?>
<!-- Generator: Adobe Illustrator 21.0.2, SVG Export Plug-In . SVG Version: 6.00 Build 0)  -->
<svg version="1.1" id="Layer_1" xmlns="http://www.w3.org/2000/svg" xmlns:xlink="http://www.w3.org/1999/xlink" x="0px" y="0px"
	 viewBox="0 0 128 128" style="enable-background:new 0 0 128 128;" xml:space="preserve">
<style type="text/css">
	.st0{fill:none;}
	.st1{fill:#0196F5;}
</style>
<title>icons</title>
<path class="st0" d="M62.3,59.6c0.4,0,0.8-0.1,1.1-0.4c0.3-0.3,0.4-0.7,0.4-1V53c0-0.4-0.1-0.8-0.4-1.1c-0.6-0.5-1.5-0.5-2.1,0
	c-0.3,0.3-0.5,0.7-0.4,1.1v5.2c0,0.4,0.1,0.8,0.4,1.1C61.5,59.5,61.9,59.6,62.3,59.6z"/>
<path class="st1" d="M124.7,98.7l-22.6-21.9c-0.2-0.2-0.6-0.4-0.9-0.3c-0.3,0-0.6,0.1-0.9,0.4l-2.5,2.5l-4-3.8l0.2-0.2
	c9.5-10.7,8.8-27.1-1.5-37C81.7,27.8,64.4,28.1,54,38.9c-4.9,5.1-7.6,11.9-7.7,18.9c0.1,7.2,3,14,8.2,19c10.3,10,26.7,10.3,37.3,0.7
	l0.2-0.2l4,3.8l-2.5,2.5c-0.5,0.5-0.5,1.3,0,1.8c0,0,0,0,0,0l22.6,21.9c1.1,1.1,2.7,1.7,4.3,1.7h0.1c1.6,0,3.2-0.7,4.3-1.8
	C127.2,104.9,127.1,101.1,124.7,98.7C124.8,98.7,124.8,98.7,124.7,98.7L124.7,98.7z M73.8,82h-0.3C60,82.1,49,71.2,48.9,57.6
	S59.7,33.1,73.3,33l0,0h0.3c13.5-0.1,24.6,10.8,24.6,24.4C98.3,70.9,87.4,81.9,73.8,82z M123,105.4c-0.7,0.7-1.6,1.1-2.5,1.1l0,0
	c-0.9,0-1.8-0.4-2.5-1l-21.7-21l5-5.1l21.7,21C124.4,101.8,124.4,104,123,105.4C123,105.4,123,105.4,123,105.4L123,105.4z"/>
<path class="st1" d="M87.7,43.3c-3.8-3.8-9-6-14.4-6c-3.5,0-7,0.9-10.1,2.7c-0.7,0.4-1.4,0.8-2,1.3c-9.1,6.7-11,19.5-4.3,28.5
	c3.8,5.2,9.9,8.3,16.3,8.3h0.4c11.1-0.3,19.9-9.3,20-20.3C93.7,52.4,91.6,47.2,87.7,43.3z M73.6,75.9h-0.4c-10,0-18.1-8.2-18.1-18.2
	c0-5.8,2.8-11.2,7.4-14.6c0.6-0.4,1.2-0.8,1.8-1.2c2.7-1.6,5.8-2.4,9-2.4c10,0.1,18.1,8.2,18.1,18.2C91.4,67.6,83.5,75.6,73.6,75.9z
	"/>
<path class="st1" d="M62.3,49.8L62.3,49.8c-0.8,0-1.5,0.3-2.1,0.8c-0.7,0.6-1,1.4-1,2.3v5.2c0,0.8,0.3,1.7,0.9,2.2
	c0.6,0.5,1.3,0.8,2.1,0.8l0,0c0.8,0,1.5-0.3,2.1-0.8c0.6-0.6,1-1.4,0.9-2.2V53c0-0.9-0.3-1.7-1-2.3C63.8,50.1,63.1,49.8,62.3,49.8z
	 M61,52.9c0-0.4,0.1-0.7,0.4-1c0.5-0.5,1.4-0.5,1.9,0c0.3,0.3,0.4,0.6,0.4,1v5.2c0,0.4-0.1,0.7-0.4,1c-0.3,0.3-0.6,0.4-1,0.4l0,0
	c-0.4,0-0.7-0.1-1-0.4c-0.3-0.3-0.4-0.6-0.4-1L61,52.9z"/>
<path class="st1" d="M81.5,49c-3-3.7-7.2-6.1-11.9-6.8l0,0c-1.4,0.3-2.8,0.9-4.1,1.6c-0.5,0.3-0.9,0.6-1.4,0.9L63.6,45l0.5-0.1h0.1
	h0.1l0.9-0.1c0.4,0,0.9-0.1,1.4-0.1c9,0.1,16.3,7.4,16.3,16.4c0,4.3-1.8,8.5-4.8,11.5L77.8,73l0.5-0.2c2-0.7,3.8-1.7,5.3-3.1l0,0
	c1.4-2.7,2.1-5.6,2.1-8.6C85.8,56.7,84.3,52.4,81.5,49z"/>
<path d="M50.6,31.6c0-0.3-0.3-0.6-0.6-0.6h-0.5c-0.4,0-0.6,0.3-0.7,0.6V32c0.6,0.2,1.2,0.4,1.8,0.7L50.6,31.6z"/>
<path class="st1" d="M24.3,49.7c-0.8,0-1.5,0.3-2.1,0.8c-0.7,0.6-1,1.4-1,2.3V58c0,0.8,0.3,1.7,0.9,2.2c0.6,0.5,1.3,0.8,2.1,0.8l0,0
	c0.8,0,1.5-0.3,2.1-0.8c0.6-0.6,1-1.4,1-2.3v-5.2c0-0.9-0.3-1.7-1-2.3C25.8,50,25.1,49.7,24.3,49.7L24.3,49.7z M23.3,51.8
	c0.3-0.2,0.6-0.4,0.9-0.4c0.4,0,0.7,0.1,1,0.4c0.3,0.3,0.4,0.6,0.4,1V58c0,0.4-0.1,0.7-0.4,1c-0.3,0.3-0.6,0.4-1,0.4l0,0
	c-0.4,0-0.7-0.1-1-0.4c-0.2-0.3-0.3-0.6-0.3-1v-5.2C23,52.4,23.1,52,23.3,51.8L23.3,51.8z"/>
<path class="st1" d="M36.8,49.7L36.8,49.7c-0.8,0-1.5,0.3-2.1,0.8c-0.7,0.6-1,1.4-1,2.3v5.2c0,0.8,0.3,1.7,0.9,2.2
	c0.6,0.5,1.3,0.8,2.1,0.8l0,0c0.8,0,1.5-0.3,2.1-0.8c0.6-0.6,1-1.4,1-2.2v-5.2c0-0.9-0.3-1.7-1-2.3C38.3,50,37.6,49.8,36.8,49.7z
	 M35.5,52.9c0-0.4,0.1-0.7,0.4-1c0.3-0.2,0.6-0.4,0.9-0.4c0.4,0,0.7,0.1,1,0.4c0.3,0.3,0.4,0.6,0.4,1v5.2c0,0.4-0.1,0.7-0.4,1
	c-0.3,0.3-0.6,0.4-1,0.4l0,0c-0.4,0-0.7-0.1-1-0.4c-0.3-0.3-0.4-0.6-0.4-1L35.5,52.9z"/>
<path class="st1" d="M55.3,32.1c-4-2.5-8.6-3.8-13.3-3.8h-0.1c-6.1,0-12,2.2-16.6,6.1c-0.6,0.5-1.2,1.1-1.8,1.7
	c-2.8,2.8-4.9,6.2-6.1,10l-0.2,0.7h-0.7C7.2,47.5,0.3,55.4,1,64.6C1.6,73.2,8.7,80,17.4,80l34.4,0.1L51.7,80
	c-0.5-0.4-0.9-0.9-1.3-1.3l-0.1-0.1l0,0c-0.3-0.4-0.7-0.7-1-1.1l0,0h-0.6l0,0h-9v-4.7c0-0.9-0.3-1.7-1-2.3c-0.6-0.5-1.3-0.8-2.1-0.8
	l0,0c-0.8,0-1.5,0.3-2.1,0.8c-0.7,0.6-1,1.4-1,2.3v4.6h-8.4v-6.9c0-0.4-0.3-0.8-0.8-0.8H24c-0.4,0-0.8,0.3-0.8,0.8v6.9h-5.8
	c-7.6,0-13.8-6.2-13.8-13.8c0-7.6,6.2-13.8,13.8-13.8l0,0h0.7c0.6,0,1.1-0.4,1.3-1c0.7-2.9,2-5.7,3.8-8.1l0,0v0.7
	c0,0.3,0.2,0.5,0.5,0.5l0,0h1.1c0.3,0,0.5-0.2,0.5-0.5l0,0V38c2.4-2.4,5.3-4.3,8.5-5.5c-0.1,0.3-0.1,0.6-0.1,0.9v5.2
	c0,0.8,0.3,1.7,0.9,2.2c0.6,0.5,1.3,0.8,2.1,0.8l0,0c0.8,0,1.5-0.3,2.1-0.8c0.6-0.6,1-1.4,1-2.2v-5.2c0-0.8-0.3-1.6-0.8-2.2
	c0.9-0.1,1.9-0.2,2.8-0.2H42c2.3,0,4.5,0.3,6.6,1v6.7l0.2-0.3c0.6-0.7,1.2-1.5,1.8-2.1l0,0v-3.5c0.8,0.3,1.6,0.7,2.4,1.1h0.1
	l0.1-0.1c0.7-0.6,1.4-1.1,2.1-1.6l0.2-0.1L55.3,32.1z M38,39.3c-0.1,0.1-0.1,0.2-0.2,0.3c-0.3,0.3-0.6,0.4-1,0.4l0,0
	c-0.4,0-0.7-0.1-1-0.4c-0.3-0.3-0.4-0.6-0.4-1v-5.2c0-0.4,0.1-0.7,0.4-1c0.1-0.1,0.3-0.2,0.5-0.3c0.1,0,0.2,0,0.2,0
	c0.1,0,0.2,0,0.3,0c0.1,0,0.3,0,0.4,0.1h0.1c0.2,0.1,0.3,0.2,0.5,0.3c0.3,0.3,0.4,0.6,0.4,1v5.2C38.1,38.9,38.1,39.1,38,39.3z
	 M35.8,71.8c0.5-0.5,1.4-0.5,1.9,0c0.3,0.3,0.4,0.6,0.4,1v4.6h-2.7v-4.6C35.4,72.4,35.5,72,35.8,71.8z M48.9,31.9v-0.3
	c0-0.3,0.2-0.5,0.5-0.5l0,0H50c0.3,0,0.5,0.2,0.5,0.5l0,0v0.9C50,32.3,49.4,32.1,48.9,31.9z"/>
</svg>
