<?xml version="1.0" encoding="utf-8"?>
<!-- Generator: Adobe Illustrator 21.0.2, SVG Export Plug-In . SVG Version: 6.00 Build 0)  -->
<svg version="1.1" id="Layer_1" xmlns="http://www.w3.org/2000/svg" xmlns:xlink="http://www.w3.org/1999/xlink" x="0px" y="0px"
	 viewBox="0 0 128 128" style="enable-background:new 0 0 128 128;" xml:space="preserve">
<style type="text/css">
	.st0{fill:#0196F5;}
</style>
<title>icons</title>
<path class="st0" d="M112.5,89.8H99.4V67.6l0.7-0.1c7.8-0.9,11.6-7.3,11.6-19.6c-0.1-7.8-1.3-15.6-3.6-23.1
	c-1.6-4.9-4.9-13.1-10-13.1s-8.4,8.2-10,13.1c-2.3,7.5-3.5,15.2-3.6,23.1c0,12.3,3.8,18.8,11.6,19.6l0.7,0.1v22.1H83V60.2
	c0-0.6-0.4-1-0.9-1.2L16.4,38.5c-0.1,0-0.3-0.1-0.4-0.1c-0.7,0-1.3,0.6-1.3,1.3v69.8c0,0.7,0.6,1.3,1.2,1.3c0,0,0,0,0,0h96.5
	c0.7,0,1.3-0.6,1.3-1.3c0,0,0,0,0,0V91C113.7,90.3,113.2,89.8,112.5,89.8z M66.5,56.8l13.9,4.3v28.6H66.5V56.8z M50.1,51.7L64,56
	v33.8H50.1V51.7z M33.7,46.5l13.9,4.3v38.9H33.7V46.5z M17.3,41.4l13.9,4.3v44H17.3V41.4z M33.3,108.2h-7.8v-9.8h7.7L33.3,108.2z
	 M70.2,108.2H35.8V97.2c0-0.7-0.6-1.3-1.3-1.3l0,0H24.2c-0.7,0-1.2,0.6-1.2,1.3v11.1h-5.7v-16h52.9L70.2,108.2z M96.9,108.2H72.7
	v-16h24.2L96.9,108.2z M87.1,47.9c0-7.8,1.2-15.6,3.7-23.1c2.2-6.6,5-10.5,7.4-10.5s5.1,3.9,7.4,10.5c2.4,7.5,3.7,15.3,3.7,23.1
	c0,15.3-5.9,17.2-11.1,17.2S87.1,63.2,87.1,47.9z M111.2,108.2H99.4v-16h11.8L111.2,108.2z"/>
</svg>
