<?xml version="1.0" encoding="utf-8"?>
<!-- Generator: Adobe Illustrator 21.0.2, SVG Export Plug-In . SVG Version: 6.00 Build 0)  -->
<svg version="1.1" id="Layer_1" xmlns="http://www.w3.org/2000/svg" xmlns:xlink="http://www.w3.org/1999/xlink" x="0px" y="0px"
	 viewBox="0 0 128 128" style="enable-background:new 0 0 128 128;" xml:space="preserve">
<style type="text/css">
	.st0{fill:#0196F5;}
</style>
<title>icons</title>
<polygon class="st0" points="70.2,29 68.2,30.4 71.1,34.3 61,34.4 60.9,36.9 70.9,36.8 67.7,40.6 69.6,42.2 75.1,35.6 "/>
<polygon class="st0" points="23.3,66 24.8,68 28.7,65.1 28.8,75.2 31.2,75.2 31.2,65.3 35,68.4 36.5,66.5 30,61.1 "/>
<polygon class="st0" points="96.3,70.3 97.8,68.4 101.7,71.3 101.8,61.1 104.2,61.1 104.1,71.1 107.9,67.9 109.5,69.8 102.9,75.2 
	"/>
<polygon class="st0" points="65.8,90.4 67.8,91.8 64.9,95.8 75,95.8 75.1,98.3 65.1,98.2 68.2,102 66.4,103.6 60.9,97 "/>
<path class="st0" d="M110.5,16.7H95.3c-2.6,0-4.7,2.1-4.7,4.7c0,0,0,0,0,0v28.2c0,2.6,2.1,4.7,4.7,4.7l0,0h15.2
	c2.6,0,4.7-2.1,4.7-4.7v0V21.4C115.3,18.8,113.1,16.7,110.5,16.7C110.5,16.7,110.5,16.7,110.5,16.7z M104.7,50.6
	c0,1-0.8,1.8-1.8,1.8c-1,0-1.8-0.8-1.8-1.8s0.8-1.8,1.8-1.8l0,0C103.9,48.7,104.7,49.5,104.7,50.6C104.7,50.6,104.7,50.6,104.7,50.6
	z M92.7,21.4c0-1.4,1.2-2.6,2.6-2.6h15.2c1.4,0,2.6,1.2,2.6,2.6v0v22.8c0,1.4-1.2,2.6-2.6,2.6H95.3c-1.4,0-2.6-1.2-2.6-2.6
	L92.7,21.4z"/>
<path class="st0" d="M50.4,93.8c-2-2.5-5-3.9-8.2-3.9h-0.7c-3.9-6.8-12.5-9.2-19.3-5.3c-3.1,1.8-5.4,4.6-6.5,8
	c-5.1,0.3-9,4.8-8.7,9.9c0.3,4.9,4.4,8.7,9.3,8.7h25.9c0.7,0,1.4-0.1,2.1-0.2c5.8-1.2,9.5-6.8,8.3-12.5
	C52.3,96.7,51.5,95.1,50.4,93.8z M29.1,85.3c3.9,0,7.5,1.9,9.6,5.1c-1.8,0.6-3.4,1.7-4.6,3.1c-0.5,0.5-0.4,1.3,0.1,1.8
	c0.5,0.5,1.3,0.4,1.8-0.1c1.3-1.5,3.1-2.4,5-2.7l0.5-0.1c0.2,0,0.5,0,0.7,0c4.5,0,8.1,3.6,8.1,8.1s-3.6,8.1-8.1,8.1H16.3
	c-3.7,0-6.8-3-6.8-6.8c0-3.7,3-6.8,6.8-6.8h0.3c0.6,0,1.1-0.4,1.2-1C19.1,89,23.8,85.3,29.1,85.3z"/>
<g id="Laptop">
	<path class="st0" d="M119,82.1H86.8c-2.1,0-3.7,1.6-3.7,3.7c0,0,0,0,0,0V102c0,2.1,1.7,3.7,3.7,3.7h0H119c2.1,0,3.7-1.7,3.7-3.7v0
		V85.8C122.7,83.7,121.1,82.1,119,82.1L119,82.1z M120.2,101.9c0,0.7-0.6,1.2-1.2,1.2H86.8c-0.7,0-1.2-0.6-1.2-1.2V85.8
		c0-0.7,0.6-1.2,1.2-1.2H119c0.7,0,1.2,0.6,1.2,1.2V101.9z M120.9,108.2h-13c0,0.7-0.6,1.2-1.2,1.2h-7.5c-0.7,0-1.2-0.6-1.2-1.2h-13
		c-1,0-1.9,0.8-1.9,1.9c0,1,0.8,1.9,1.9,1.9h36c1,0,1.9-0.8,1.9-1.9C122.8,109,122,108.2,120.9,108.2L120.9,108.2z"/>
</g>
<path class="st0" d="M45.5,45.2h-0.2c-0.9-0.2-1.8-0.6-2.7-1c-0.3-0.1-0.6-0.3-0.8-0.4c-3-1.2-3.8-2-4-2.3v-2.6
	c1.8-2.3,2.8-5.1,2.9-8c0.6-3.3,0-6.8-1.7-9.7v-0.4l-0.1,0.1c-0.6-1-1.4-1.9-2.3-2.7c-2-1.5-4.5-2.3-7-2.2c-2.5,0-4.9,0.8-7,2.2
	c-4.6,3.1-4.2,10.8-4.1,11.1v0.2h0.2c0,0,0.2,0.1,0.6,0.1c0,0.4,0,0.7,0,1.1c0.1,2.9,1.1,5.8,2.9,8.1v2.6c-0.2,0.3-0.9,1.2-4,2.3
	c-0.3,0.1-0.5,0.2-0.8,0.4c-0.9,0.4-1.8,0.8-2.7,1h-0.1c-1.9,0.6-3.2,2.4-3.2,4.5v5.6h37.5v-5.5C48.7,47.6,47.4,45.8,45.5,45.2z
	 M24.1,42.3L24.1,42.3l0.1-0.4v-0.8c0.6,0.6,1.3,1.1,2,1.5l-0.5,0.5L24.1,42.3z M26,45.7l0.4-0.3l0.3,1.6l-0.8,6H13.3v-3.4
	c0-1.1,0.7-2,1.7-2.4h0.1c1.1-0.3,2.1-0.7,3.1-1.2l0.1,0c0.2-0.1,0.4-0.2,0.6-0.2c1.3-0.5,2.5-1.1,3.7-1.8L26,45.7z M38.2,25.6
	c-0.4-0.4-0.8-0.7-1.2-1l0,0c-0.2-0.2-0.5-0.3-0.8-0.4c-0.3-0.1-0.5-0.2-0.8-0.2l0,0c-1.8-0.2-3.5,0.2-5,1.2
	c-2.7,1.6-5.7,2.4-8.8,2.4c-0.4,0-0.7,0-1,0c0-0.8,0.1-1.6,0.3-2.3c0.2-1.1,0.5-2.1,1-3c0.4-0.9,1.1-1.7,1.9-2.3
	c1.7-1.2,3.7-1.8,5.8-1.8c2-0.1,3.9,0.5,5.5,1.7c0.6,0.5,1.1,1.1,1.5,1.7c0.5,0.6,0.9,1.4,1.2,2.1c0.3,0.7,0.5,1.5,0.7,2.3
	L38.2,25.6z M21.4,29.7c3.5,0,7-0.9,10.1-2.7c0.9-0.6,1.9-0.9,3-1c1.9,0,2.7,1.7,3.2,3.1c0.1,0.4,0.4,0.8,0.7,1.2c0,0.1,0,0.2,0,0.3
	c-0.1,2.9-1.3,5.7-3.2,7.8c-0.8,1-1.8,1.9-2.9,2.6c-0.7,0.5-1.5,0.7-2.3,0.8c-0.8-0.1-1.6-0.3-2.3-0.8c-1.1-0.7-2.1-1.5-2.9-2.5
	c-2-2.1-3.1-4.9-3.2-7.8C21.4,30.4,21.4,30,21.4,29.7z M33.5,45.3l0.5,0.4l3.4-1.7c1.2,0.7,2.4,1.3,3.7,1.7c0.2,0.1,0.4,0.2,0.7,0.3
	c1,0.5,2,0.9,3,1.1h0.1c1,0.3,1.7,1.3,1.7,2.4V53H34l-0.9-6L33.5,45.3z M34.3,43.1l-0.6-0.5c0.7-0.4,1.3-0.9,1.9-1.5v0.7l0.2,0.5
	L34.3,43.1z M31.2,45.8h-2.6l-0.4-2l0.2-0.1c1,0.3,2.1,0.3,3.1,0l0.1,0.1L31.2,45.8z M28.8,47.9h2.4l0.7,5.1h-3.8L28.8,47.9z"/>
</svg>
