<?xml version="1.0" encoding="utf-8"?>
<!-- Generator: Adobe Illustrator 21.0.2, SVG Export Plug-In . SVG Version: 6.00 Build 0)  -->
<svg version="1.1" id="Layer_1" xmlns="http://www.w3.org/2000/svg" xmlns:xlink="http://www.w3.org/1999/xlink" x="0px" y="0px"
	 viewBox="0 0 128 128" style="enable-background:new 0 0 128 128;" xml:space="preserve">
<style type="text/css">
	.st0{fill:#0196F5;}
</style>
<title>icons</title>
<path class="st0" d="M111.3,102.2H16.6c-2.7,0-4.9-2.6-4.9-5.7s2.2-5.7,4.9-5.7h34.2l0.2,1c0.2,1.6,1.5,2.8,3.1,3h19.6
	c1.6-0.2,2.9-1.4,3.1-3l0.2-1h34.2c2.7,0,4.9,2.6,4.9,5.7S114,102.2,111.3,102.2z M16.6,93.4c-1.3,0-2.4,1.5-2.4,3.2
	s1.1,3.2,2.4,3.2h94.7c1.3,0,2.4-1.5,2.4-3.2s-1.1-3.2-2.4-3.2H79c-0.7,2.3-2.8,3.9-5.2,4H54.2c-2.4-0.1-4.5-1.7-5.2-4H16.6z"/>
<path class="st0" d="M59.4,72.9c0.9,0,1.6-0.7,1.6-1.6v-8.4c0-0.9-0.7-1.6-1.6-1.6c-0.9,0-1.6,0.7-1.6,1.6l0,0v8.4
	C57.8,72.2,58.5,72.9,59.4,72.9L59.4,72.9z"/>
<path class="st0" d="M49.7,53.9v17.4c0,0.9,0.7,1.6,1.6,1.6c0.9,0,1.6-0.7,1.6-1.6V53.9c0-0.9-0.7-1.6-1.6-1.6
	C50.4,52.3,49.7,53,49.7,53.9z"/>
<path class="st0" d="M41.5,62.9v8.4c0,0.9,0.7,1.6,1.6,1.6c0.9,0,1.6-0.7,1.6-1.6v-8.4c0-0.9-0.7-1.6-1.6-1.6
	C42.3,61.3,41.5,62,41.5,62.9L41.5,62.9z"/>
<path class="st0" d="M33.4,71.3c0,0.9,0.7,1.6,1.6,1.6c0.9,0,1.6-0.7,1.6-1.6V53.9c0-0.9-0.7-1.6-1.6-1.6c-0.9,0-1.6,0.7-1.6,1.6
	V71.3z"/>
<path class="st0" d="M26,46.8c-0.5,0.3-0.8,0.8-0.8,1.4v23.1c0,0.9,0.7,1.6,1.6,1.6s1.6-0.7,1.6-1.6V48.2c0-0.5-0.2-1-0.6-1.3
	c-0.4-0.3-0.9-0.4-1.4-0.3C26.2,46.7,26.1,46.8,26,46.8z"/>
<path class="st0" d="M107.3,26.6h-0.7c0.3,1,0.5,2.1,0.7,3.1l0,0c2.9,0,5.2,2.3,5.2,5.2v43.9c0,2.9-2.3,5.2-5.2,5.2H19.5
	c-2.9,0-5.2-2.3-5.2-5.2V34.9c0-2.9,2.3-5.2,5.2-5.2h36c0.2-1.1,0.4-2.1,0.7-3.1H19.5c-4.6,0-8.3,3.7-8.3,8.3v43.9
	c0,4.6,3.7,8.3,8.3,8.3h87.8c4.6,0,8.3-3.7,8.3-8.3V34.9C115.6,30.3,111.9,26.6,107.3,26.6z"/>
<path class="st0" d="M60,37.9c0.3,1.4,0.8,2.8,1.4,4.2c2.2,5.2,7.1,13.3,17.7,21.8c1.1,0.8,2.6,0.8,3.7,0
	c10.6-8.5,15.5-16.5,17.7-21.7c0.6-1.4,1.1-2.8,1.5-4.3c0.1-0.4,0.1-0.7,0.1-0.7c0.2-1.3,0.4-2.7,0.4-4.1
	c-0.4-11.9-10.3-21.2-22.2-20.8C69,12.6,59.9,21.8,59.5,33.1c0,1.3,0.1,2.7,0.4,4C59.9,37.2,59.9,37.5,60,37.9z M81,14.6
	c10.2,0,18.5,8.3,18.5,18.5c0,1.2-0.1,2.4-0.3,3.5c0,0.1-0.1,0.2-0.1,0.5c-0.3,1.3-0.7,2.6-1.3,3.8c-2.1,4.8-6.6,12.3-16.6,20.4
	L81,61.6l-0.2-0.1c-10-8.1-14.6-15.6-16.7-20.5c-0.5-1.2-0.9-2.4-1.2-3.7c-0.1-0.3-0.1-0.5-0.1-0.7c-0.2-1.1-0.3-2.3-0.3-3.4
	C62.6,22.9,70.8,14.7,81,14.6z"/>
<path class="st0" d="M81,45c7.2,0,13-5.8,13-13s-5.8-13-13-13s-13,5.8-13,13S73.8,45,81,45z M81,22c5.5,0,10,4.5,10,10
	s-4.5,10-10,10s-10-4.5-10-10S75.5,22,81,22z"/>
</svg>
