<?xml version="1.0" encoding="utf-8"?>
<!-- Generator: Adobe Illustrator 21.0.2, SVG Export Plug-In . SVG Version: 6.00 Build 0)  -->
<svg version="1.1" id="Layer_1" xmlns="http://www.w3.org/2000/svg" xmlns:xlink="http://www.w3.org/1999/xlink" x="0px" y="0px"
	 viewBox="0 0 128 128" style="enable-background:new 0 0 128 128;" xml:space="preserve">
<style type="text/css">
	.st0{fill:#0196F5;}
</style>
<title>icons</title>
<path class="st0" d="M65.9,40.1h6c0.5,0,0.9,0.4,0.9,0.9v0v6c0,1.1,0.9,1.9,1.9,1.9l0,0h6.9c1.1,0,1.9-0.9,1.9-1.9v-6
	c0-0.5,0.4-0.9,0.9-0.9l0,0h6c1.1,0,1.9-0.9,1.9-1.9v0v-6.9c0-1.1-0.9-1.9-1.9-1.9l0,0h-6c-0.5,0-0.9-0.4-0.9-0.9c0,0,0,0,0,0v-6
	c0-1.1-0.9-1.9-1.9-1.9l0,0h-6.9c-1.1,0-1.9,0.9-1.9,1.9c0,0,0,0,0,0v6c0,0.5-0.4,0.9-0.9,0.9l0,0h-6c-1.1,0-1.9,0.9-1.9,1.9v6.9
	C64,39.3,64.9,40.1,65.9,40.1C65.9,40.1,65.9,40.1,65.9,40.1z M66.2,31.6h5.7c1.7,0,3.1-1.4,3.1-3.1c0,0,0,0,0,0v-5.7h6.3v5.7
	c0,1.7,1.4,3.1,3.1,3.1h5.7v6.3h-5.7c-1.7,0-3.1,1.4-3.1,3.1v5.7H75V41c0-1.7-1.4-3.1-3.1-3.1h-5.7V31.6z"/>
<path class="st0" d="M118.1,60.9H54.4l1-2c2-4.1,0.3-9-3.8-11c-1.1-0.5-2.3-0.8-3.6-0.8h-5.3c-6.5,0-7.3,0-9.1,0.8l-2,1V43
	c0-0.7-0.6-1.3-1.3-1.3l0,0H14.7c-0.7,0-1.3,0.6-1.3,1.3l0,0v60c0,0.7,0.6,1.3,1.3,1.3h15.5c0.7,0,1.3-0.6,1.3-1.3v-8h69.7v8
	c0,0.7,0.6,1.3,1.3,1.3h15.5c0.7,0,1.3-0.6,1.3-1.3V62.2C119.4,61.5,118.8,61,118.1,60.9z M28.9,101.7H16V44.4h12.9v1.4
	c0,0.4,0,41.8,0,54.5V101.7z M64.4,63.6h36.9v19.1H64.4L64.4,63.6z M37.2,49.7H48c3.1,0,5.6,2.5,5.6,5.6c0,3.1-2.5,5.6-5.6,5.6l0,0
	H37.2c-3.1,0-5.6-2.5-5.6-5.6C31.5,52.2,34,49.7,37.2,49.7z M31.5,63.6h30.2v19.1H31.5V63.6z M101.3,92.3H31.5v-7h69.7V92.3z
	 M116.8,101.7h-12.9V63.6h12.9L116.8,101.7z"/>
</svg>
