<?xml version="1.0" encoding="utf-8"?>
<!-- Generator: Adobe Illustrator 21.0.2, SVG Export Plug-In . SVG Version: 6.00 Build 0)  -->
<svg version="1.1" id="Layer_1" xmlns="http://www.w3.org/2000/svg" xmlns:xlink="http://www.w3.org/1999/xlink" x="0px" y="0px"
	 viewBox="0 0 128 128" style="enable-background:new 0 0 128 128;" xml:space="preserve">
<style type="text/css">
	.st0{fill:#0196F5;}
	.st1{fill:none;}
</style>
<title>icons</title>
<path class="st0" d="M113.5,100.7L84.2,72.3C84,72.1,83.7,72,83.4,72c-0.3,0-0.7,0.1-0.9,0.4L79,75.9l-5.7-5.5l0.5-0.6
	C86,56.1,85.1,35.2,71.9,22.5c-6.5-6.3-15.3-9.9-24.4-9.9h-0.4c-9.2,0.1-18.1,3.8-24.6,10.4C9.3,36.4,9.3,58.1,22.7,71.4
	c0.1,0.1,0.3,0.3,0.4,0.4c6.5,6.3,15.2,9.9,24.3,9.9h0.4c8.5-0.1,16.7-3.3,23.1-9l0.6-0.5l5.7,5.5l-3.5,3.6c-0.5,0.5-0.5,1.2,0,1.7
	c0,0,0,0,0,0l29.3,28.4c1.4,1.4,3.3,2.1,5.2,2.1h0.1c2,0,3.9-0.8,5.3-2.2C116.5,108.3,116.5,103.6,113.5,100.7
	C113.5,100.7,113.5,100.7,113.5,100.7L113.5,100.7z M70.7,69.6c-6,6.1-14.2,9.6-22.8,9.7h-0.4c-17.6,0-32-14.1-32.4-31.7
	C15,39,18.3,30.7,24.4,24.7c6-6.1,14.2-9.6,22.8-9.6h0.4c17.6,0,32.1,14.1,32.4,31.7C80,55.3,76.7,63.5,70.7,69.6z M111.8,109.4
	c-2,2-5.1,2-7.1,0.1L76.3,82l7-7.1l0.3,0.3l28.1,27.2C113.7,104.3,113.7,107.5,111.8,109.4L111.8,109.4z"/>
<path class="st1" d="M47.7,39.5c1.4-0.9,3.1-1.3,4.7-1.2l0,0c0.3,0,0.5,0.1,0.8,0.2c0.3,0.1,0.5,0.2,0.8,0.4l0,0
	c0.4,0.3,0.8,0.6,1.2,1l0.2,0.3c-0.1-0.8-0.3-1.5-0.6-2.2c-0.3-0.7-0.7-1.4-1.1-2c-0.4-0.6-0.9-1.2-1.5-1.7
	c-1.5-1.1-3.4-1.6-5.2-1.6c-2,0-3.9,0.6-5.5,1.7c-0.8,0.6-1.4,1.3-1.8,2.2c-0.5,0.9-0.8,1.9-1,2.9c-0.1,0.7-0.2,1.5-0.3,2.2
	c0.3,0,0.7,0,1,0C42.3,41.8,45.2,41,47.7,39.5z"/>
<polygon class="st1" points="48.4,61.2 46.1,61.2 45.6,65.2 48.9,65.2 "/>
<polygon class="st1" points="45.6,65.2 45.5,66.1 49.1,66.1 48.9,65.2 "/>
<path class="st1" d="M52.6,54.8c-0.6,0.5-1.2,1-1.8,1.4l0.6,0.5l1.5-0.8l-0.2-0.5L52.6,54.8z"/>
<path class="st1" d="M41.8,55.5l-0.1,0.3v0.1l1.5,0.8l0.5-0.5c-0.7-0.4-1.3-0.9-1.9-1.4L41.8,55.5z"/>
<path class="st1" d="M40.8,65.2h2.8l0.6-4.8l-0.3-1.5l-0.4,0.3l-3.3-1.7c-1.1,0.7-2.3,1.3-3.5,1.7c-0.2,0.1-0.3,0.2-0.5,0.2l-0.1,0
	c-0.9,0.5-1.9,0.8-2.9,1.1H33c-1,0.3-1.6,1.3-1.6,2.3V65c0.4,0.4,0.9,0.8,1.3,1.1h10.7l0.1-0.9L40.8,65.2z"/>
<path class="st1" d="M32.4,58.6h0.1c0.9-0.2,1.8-0.6,2.6-1c0.3-0.1,0.5-0.2,0.8-0.4c3-1.1,3.7-1.9,3.8-2.2v-2.5
	c-1.7-2.2-2.7-4.9-2.8-7.7c0-0.3,0-0.7,0-1c-0.4-0.1-0.6-0.1-0.6-0.1h-0.2v-0.2c0-0.3-0.4-7.6,4-10.6c2-1.4,4.3-2.1,6.7-2.1
	c2.4-0.1,4.7,0.7,6.6,2.1c0.8,0.8,1.6,1.6,2.2,2.6l0.1-0.1v0.3c1.6,2.8,2.1,6,1.5,9.2c-0.1,2.8-1.1,5.5-2.8,7.7V55
	c0.2,0.3,0.9,1.1,3.8,2.2c0.3,0.1,0.5,0.2,0.8,0.4c0.8,0.4,1.7,0.8,2.6,1H62c1.7,0.6,3,2.2,3.1,4c8.4-9.9,7.2-24.8-2.7-33.3
	c-4.3-3.6-9.6-5.6-15.2-5.6c-4.1,0-8.1,1.1-11.7,3.1c-0.8,0.5-1.6,1-2.4,1.5C22.6,36,20.2,50.7,27.9,61.2c0.4,0.6,0.9,1.1,1.4,1.7
	v-0.1C29.3,60.9,30.6,59.1,32.4,58.6z"/>
<path class="st1" d="M61.5,60.5L61.5,60.5c-1.1-0.3-2.1-0.6-3-1.1c-0.3-0.1-0.5-0.2-0.7-0.3c-1.2-0.4-2.4-1-3.5-1.7l-3.2,1.7
	l-0.5-0.4l-0.3,1.6l0.7,4.8l0,0l0.1,0.9h10.3c0.6-0.4,1.1-0.9,1.6-1.4v-1.9C63.1,61.8,62.4,60.9,61.5,60.5z"/>
<path class="st1" d="M48.9,57.2L48.9,57.2c-1.1,0.3-2.1,0.3-3.1-0.1l-0.2,0.1l0.4,1.9h2.4L48.9,57.2z"/>
<path class="st1" d="M39.4,69.7c2.5,0.9,5.1,1.3,7.7,1.3h0.5c3.8-0.1,7.5-1,10.8-2.8H35.9C37,68.8,38.2,69.3,39.4,69.7z"/>
<path class="st1" d="M45,54.6c0.7,0.4,1.4,0.7,2.2,0.8c0.8-0.1,1.6-0.3,2.2-0.8c1.1-0.6,2-1.5,2.8-2.4c1.9-2,3-4.7,3.1-7.4
	c0-0.1,0-0.2,0-0.3c-0.3-0.3-0.5-0.7-0.6-1.1c-0.5-1.4-1.3-3-3.1-3c-1,0.1-2,0.4-2.9,1c-2.9,1.7-6.2,2.6-9.6,2.6c0,0.3,0,0.6,0,0.9
	c0.1,2.8,1.2,5.4,3.1,7.4C43,53.1,44,53.9,45,54.6z"/>
<path class="st0" d="M62.1,58.6h-0.1c-0.9-0.2-1.8-0.6-2.6-1c-0.3-0.1-0.5-0.2-0.8-0.4c-2.9-1.1-3.7-1.9-3.8-2.2v-2.5
	c1.7-2.2,2.7-4.9,2.8-7.7c0.6-3.1,0.1-6.4-1.5-9.2v-0.3l-0.1,0.1c-0.6-1-1.3-1.8-2.2-2.6c-1.9-1.4-4.2-2.2-6.6-2.1
	c-2.4,0-4.7,0.7-6.7,2.1c-4.4,3-4,10.3-4,10.6v0.2h0.2c0,0,0.2,0.1,0.6,0.1c0,0.3,0,0.7,0,1c0.1,2.8,1.1,5.5,2.8,7.7V55
	c-0.2,0.3-0.9,1.1-3.8,2.2c-0.3,0.1-0.5,0.2-0.8,0.4c-0.8,0.4-1.7,0.8-2.6,1h-0.1c-1.8,0.6-3.1,2.3-3.1,4.2v0.1
	c0.6,0.8,1.3,1.5,2,2.1v-2.2c0-1,0.6-1.9,1.6-2.3h0.1c1-0.3,2-0.6,2.9-1.1l0.1,0c0.2-0.1,0.4-0.2,0.5-0.2c1.2-0.4,2.4-1,3.5-1.7
	l3.3,1.7l0.4-0.3l0.3,1.5l-2.8,11.5h2.1l2.7-10.6h2.2l1.7,10.6h2.1l-1.8-11.4l0.3-1.6l0.5,0.4l3.2-1.7c1.1,0.7,2.3,1.3,3.5,1.7
	c0.2,0.1,0.4,0.2,0.7,0.3c0.9,0.5,1.9,0.8,2.9,1.1h0.1c1,0.3,1.6,1.3,1.7,2.3v1.9c0.7-0.7,1.4-1.4,2-2.1
	C65,60.8,63.8,59.2,62.1,58.6z M38.7,39.6c0.2-1,0.5-2,1-2.9c0.4-0.9,1-1.6,1.8-2.2c1.6-1.1,3.5-1.7,5.5-1.7
	c1.9-0.1,3.7,0.5,5.2,1.6c0.5,0.5,1,1,1.4,1.6c0.5,0.6,0.9,1.3,1.1,2c0.3,0.7,0.5,1.4,0.6,2.2l-0.2-0.3c-0.3-0.4-0.7-0.7-1.2-1l0,0
	c-0.2-0.2-0.5-0.3-0.8-0.4c-0.2-0.1-0.5-0.2-0.8-0.2l0,0c-1.7-0.2-3.3,0.2-4.7,1.2c-2.5,1.5-5.4,2.3-8.4,2.3c-0.3,0-0.7,0-1,0
	C38.4,41,38.5,40.3,38.7,39.6L38.7,39.6z M43.2,56.7l-1.5-0.8v-0.1l0.1-0.3v-0.7c0.6,0.5,1.2,1,1.9,1.4L43.2,56.7z M48.5,59.2H46
	l-0.4-1.9l0.2-0.1c1,0.3,2,0.3,3,0l0.1,0.1L48.5,59.2z M51.4,56.7l-0.6-0.5c0.6-0.4,1.2-0.9,1.8-1.4v0.6l0.2,0.5L51.4,56.7z
	 M52.3,52.2c-0.8,0.9-1.7,1.7-2.8,2.4c-0.7,0.4-1.4,0.7-2.2,0.8c-0.8-0.1-1.6-0.3-2.2-0.8c-1.1-0.6-2-1.5-2.8-2.4
	c-1.9-2-3-4.7-3.1-7.4c0-0.3,0-0.6,0-0.9c3.4,0,6.7-0.9,9.6-2.6c0.9-0.6,1.9-0.9,2.9-1c1.8,0,2.6,1.6,3.1,3c0.1,0.4,0.3,0.8,0.6,1.1
	c0,0.1,0,0.2,0,0.3C55.2,47.5,54.1,50.2,52.3,52.2L52.3,52.2z"/>
<path class="st0" d="M65.8,28.9c-4.9-5-11.6-7.8-18.5-7.8c-4.6,0-9,1.2-13,3.4c-0.9,0.5-1.8,1.1-2.6,1.7
	c-11.7,8.5-14.2,24.9-5.7,36.5c1,1.4,2.2,2.7,3.4,3.9c0.6,0.5,1.2,1,1.8,1.5c4.6,3.5,10.2,5.4,15.9,5.5h0.3h0.3
	c5.6-0.1,11.1-2,15.5-5.5c0.7-0.6,1.4-1.1,2.1-1.8c10.5-9.9,11.1-26.4,1.2-36.9C66.2,29.3,66,29.1,65.8,28.9z M65.1,62.6
	c-0.6,0.7-1.3,1.4-2,2.1c-0.5,0.5-1.1,0.9-1.6,1.4c-1,0.8-2,1.5-3.2,2.1c-3.3,1.8-7,2.8-10.8,2.8h-0.5c-5.2,0-10.2-1.7-14.3-4.9
	c-0.5-0.3-0.9-0.7-1.3-1.1c-5-4.5-7.9-10.9-7.9-17.7c0-7.5,3.6-14.6,9.7-19c0.8-0.6,1.5-1.1,2.4-1.5c3.6-2,7.6-3.1,11.7-3.1
	c13,0,23.6,10.5,23.6,23.6C70.8,52.9,68.8,58.3,65.1,62.6L65.1,62.6z"/>
</svg>
