<?xml version="1.0" encoding="utf-8"?>
<!-- Generator: Adobe Illustrator 21.0.2, SVG Export Plug-In . SVG Version: 6.00 Build 0)  -->
<svg version="1.1" id="Layer_1" xmlns="http://www.w3.org/2000/svg" xmlns:xlink="http://www.w3.org/1999/xlink" x="0px" y="0px"
	 viewBox="0 0 128 128" style="enable-background:new 0 0 128 128;" xml:space="preserve">
<style type="text/css">
	.st0{fill:#0196F5;}
</style>
<title>icons</title>
<path class="st0" d="M123.2,23.8c-0.8-0.7-2-0.6-2.6,0.2l0,0L82.8,68L65,62.9c-0.8-0.2-1.6,0.1-2.1,0.8l-18.2,27l-0.2-0.2L28.2,74.7
	c-0.7-0.6-1.7-0.7-2.5-0.1L4.5,92.1c-0.8,0.7-0.9,1.8-0.2,2.6C4.9,95.5,6,95.6,6.8,95l20-16.4l17,16.3c0.4,0.4,0.9,0.6,1.5,0.5
	c0.5-0.1,1-0.4,1.3-0.8l18.6-27.8L82.9,72c0.7,0.2,1.5,0,1.9-0.6l38.6-45C124.1,25.6,124,24.5,123.2,23.8z"/>
<path class="st0" d="M88.9,73.2l-0.8,0.9c-0.5,0.6-1.2,1.1-1.9,1.5l0,0v28.8c0,0.7,0.6,1.3,1.3,1.3h17.3c0.7,0,1.3-0.6,1.3-1.3V52.9
	l-2.7,3.2v47H88.9V73.2z"/>
<path class="st0" d="M103.5,37.2l2.7-3.2v-8.5c0-0.7-0.6-1.4-1.3-1.4H87.5c-0.7,0-1.3,0.6-1.3,1.4v32l2.7-3.2V26.9h14.6
	C103.5,26.9,103.5,37.2,103.5,37.2z"/>
<path class="st0" d="M73.6,60.9l2.7,0.8V25.6c0-0.7-0.6-1.4-1.3-1.4H57.6c-0.7,0-1.3,0.6-1.3,1.4V66l2.7-4V26.9h14.6V60.9z"/>
<path class="st0" d="M58.9,84l-2.7,4v16.4c0,0.7,0.6,1.3,1.3,1.3h17.3c0.7,0,1.3-0.6,1.3-1.3V74.5l-2.7-0.8V103H58.9V84z"/>
<path class="st0" d="M29,70.3V26.9h14.6v56.7l0.5,0.4l2.2-3.3V25.6c0-0.7-0.6-1.3-1.3-1.4H27.6c-0.7,0-1.4,0.6-1.4,1.4l0,0V70l0,0
	C27.2,69.9,28.1,70,29,70.3L29,70.3z"/>
<path class="st0" d="M43.6,99.5L43.6,99.5v3.5H29V86.6l-2.4-2.3l-0.3,0.3v19.9c0,0.7,0.6,1.3,1.4,1.3H45c0.7,0,1.3-0.6,1.3-1.3v-4.8
	l0,0c-0.2,0-0.4,0.1-0.6,0.1l0,0C45,99.7,44.3,99.7,43.6,99.5z"/>
<polygon class="st0" points="125.2,21.2 117.2,21 117.2,23.5 121.7,23.6 120.9,24.6 122.9,26.1 123.6,25.4 124.5,29.8 127,29.3 "/>
</svg>
