<?xml version="1.0" encoding="utf-8"?>
<!-- Generator: Adobe Illustrator 21.0.2, SVG Export Plug-In . SVG Version: 6.00 Build 0)  -->
<svg version="1.1" id="Layer_1" xmlns="http://www.w3.org/2000/svg" xmlns:xlink="http://www.w3.org/1999/xlink" x="0px" y="0px"
	 viewBox="0 0 128 128" style="enable-background:new 0 0 128 128;" xml:space="preserve">
<style type="text/css">
	.st0{fill:#0196F5;}
</style>
<path class="st0" d="M107.1,39.2H88.8c-0.8,0-1.4,0.6-1.4,1.4v67.5c0,0.8,0.6,1.4,1.4,1.4h18.3c0.8,0,1.4-0.6,1.4-1.4V40.6
	C108.5,39.8,107.9,39.2,107.1,39.2z M105.7,106.7H90.2V42h15.4L105.7,106.7L105.7,106.7z"/>
<path class="st0" d="M73.5,58.9H55.2c-0.8,0-1.4,0.6-1.4,1.4v47.8c0,0.8,0.6,1.4,1.4,1.4h18.3c0.8,0,1.4-0.6,1.4-1.4V60.3
	C74.9,59.6,74.3,58.9,73.5,58.9z M72.1,106.7H56.7v-45h15.4V106.7z"/>
<path class="st0" d="M23.1,49.2h15.4V70h2.8V47.7c0-0.8-0.6-1.4-1.4-1.4H21.7c-0.8,0-1.4,0.6-1.4,1.4V70h2.8V49.2z"/>
<path class="st0" d="M38.5,51v55.7H23.1V51h-2.8v57.2c0,0.8,0.6,1.4,1.4,1.4H40c0.8,0,1.4-0.6,1.4-1.4V51H38.5z"/>
<polygon class="st0" points="115,12.3 113.7,10.2 101.5,18.8 102.9,20.8 "/>
<path class="st0" d="M97.5,16.7c-3.9,0-7,3.1-7,7c0,0.5,0.1,1,0.2,1.5v0.2l-4.1,2.9l-12.2,8.6l-5.7,4l-0.1-0.1
	c-1.3-1.2-3-1.9-4.8-1.9c-2.4,0-4.5,1.2-5.8,3.2l-0.1,0.2L57.7,42L37,31.3v-0.2c0.1-0.5,0.2-1.1,0.2-1.7c0-3.9-3.1-7-7-7s-7,3.1-7,7
	c0,0.9,0.2,1.8,0.6,2.7l0.1,0.2l-0.2,0.1l-13.6,9.7c-0.1,0.1-0.1,0.2-0.2,0.3c0,0.1,0,0.2,0.1,0.3l0.9,1.3c0.1,0.2,0.4,0.2,0.5,0.1
	l13.7-9.8l0.1,0.1c1.3,1.3,3,2,4.9,2c2.2,0,4.3-1,5.6-2.8l0.1-0.2l21.1,10.8v0.2c-0.1,0.4-0.1,0.8-0.1,1.2c0,3.9,3.1,7,7,7
	s7-3.1,7-7c0-1-0.2-1.9-0.6-2.8l-0.1-0.2l5.6-4L88,30.3l3.8-2.6l0.1,0.2c1.3,1.8,3.4,2.9,5.7,2.9c2.7,0,5.1-1.5,6.3-3.9l0.1-0.2
	l0.3-1.2l0.3-1.2V24c0-0.1,0-0.2,0-0.2C104.5,19.8,101.4,16.7,97.5,16.7z M34.8,30.5c-0.2,0.7-0.5,1.4-1,2c-0.9,1-2.1,1.6-3.5,1.6
	c-1.1,0-2.2-0.4-3-1.1c-0.6-0.5-1-1.2-1.3-1.9c-0.2-0.5-0.3-1-0.3-1.6c0-2.5,2.1-4.6,4.6-4.6s4.6,2.1,4.6,4.6
	C34.9,29.8,34.8,30.1,34.8,30.5z M63.9,50.3c-2.5,0-4.6-2.1-4.6-4.6c0-0.1,0-0.3,0-0.4v-0.1c0.1-0.8,0.4-1.5,0.8-2.1
	c0.9-1.2,2.2-1.9,3.7-1.9c1.1,0,2.1,0.4,3,1.1c0.6,0.5,1.1,1.2,1.3,1.9c0.2,0.5,0.3,1.1,0.3,1.6C68.5,48.3,66.4,50.3,63.9,50.3z
	 M97.5,28.3c-1.6,0-3-0.8-3.9-2.1c-0.4-0.7-0.7-1.5-0.7-2.3c0,0,0,0,0-0.1v-0.1c0-2.6,2.1-4.6,4.6-4.6s4.6,2.1,4.6,4.6
	S100.1,28.3,97.5,28.3z"/>
</svg>
