<?xml version="1.0" encoding="utf-8"?>
<!-- Generator: Adobe Illustrator 21.0.2, SVG Export Plug-In . SVG Version: 6.00 Build 0)  -->
<svg version="1.1" id="Layer_1" xmlns="http://www.w3.org/2000/svg" xmlns:xlink="http://www.w3.org/1999/xlink" x="0px" y="0px"
	 viewBox="0 0 128 128" style="enable-background:new 0 0 128 128;" xml:space="preserve">
<style type="text/css">
	.st0{fill:#0196F5;}
</style>
<title>icons</title>
<path class="st0" d="M74.3,18.1h-5.8V5.4c0-0.6-0.5-1.1-1.1-1.1c0,0,0,0,0,0h-6.8c-0.6,0-1.1,0.5-1.1,1.1c0,0,0,0,0,0v12.7h-5.8
	c-0.5,0-0.9,0.3-1,0.7c-0.2,0.4-0.1,0.9,0.2,1.2l10.3,10.2c0.4,0.4,1.2,0.4,1.6,0L75.2,20c0.3-0.3,0.4-0.8,0.2-1.2
	C75.2,18.4,74.8,18.1,74.3,18.1z M66.6,20c0.2,0.2,0.5,0.3,0.8,0.3h4.2L64,27.8l-7.6-7.4h4.2c0.6,0,1.1-0.5,1.1-1.1c0,0,0,0,0,0V6.6
	h4.5v12.7C66.3,19.5,66.4,19.8,66.6,20z"/>
<path class="st0" d="M64.8,98.2c-0.4-0.4-1.2-0.4-1.6,0l-10.3,10.1c-0.3,0.3-0.4,0.8-0.2,1.2c0.2,0.4,0.6,0.7,1,0.7h5.8v12.7
	c0,0.6,0.5,1.1,1.1,1.1c0,0,0,0,0,0h6.8c0.6,0,1.1-0.5,1.1-1.1c0,0,0,0,0,0v-12.7h5.8c0.5,0,0.9-0.3,1.1-0.7
	c0.2-0.4,0.1-0.9-0.2-1.2L64.8,98.2z M61.4,108.3c-0.2-0.2-0.5-0.3-0.8-0.3h-4.2l7.6-7.4l7.6,7.5h-4.2c-0.6,0-1.1,0.5-1.1,1.1
	c0,0,0,0,0,0v12.7h-4.5v-12.7C61.7,108.8,61.6,108.5,61.4,108.3z"/>
<path class="st0" d="M20,53.2c-0.3-0.3-0.8-0.4-1.2-0.2c-0.4,0.2-0.7,0.6-0.7,1v5.7H5.2c-0.6,0-1.1,0.5-1.2,1.1c0,0,0,0,0,0.1v6.7
	c0,0.6,0.5,1.1,1.1,1.1c0,0,0,0,0,0h12.9v5.7c0,0.4,0.3,0.8,0.7,1c0.4,0.2,0.9,0.1,1.2-0.2L30.4,65c0.4-0.4,0.4-1.1,0-1.6
	c0,0,0,0,0,0L20,53.2z M19.2,66.4H6.3v-4.5h12.9c0.6,0,1.1-0.5,1.1-1.1c0,0,0,0,0,0v-4.1l7.6,7.4l-7.6,7.4v-4.1
	C20.4,66.9,19.8,66.4,19.2,66.4C19.2,66.4,19.2,66.4,19.2,66.4L19.2,66.4z"/>
<path class="st0" d="M122.8,59.7h-12.9V54c0-0.4-0.3-0.8-0.7-1c-0.4-0.2-0.9-0.1-1.2,0.2L97.7,63.4c-0.4,0.4-0.4,1.1,0,1.6
	c0,0,0,0,0,0L108,75.1c0.2,0.2,0.5,0.3,0.8,0.3c0.2,0,0.3,0,0.4-0.1c0.4-0.2,0.7-0.6,0.7-1v-5.7h12.9c0.6,0,1.1-0.5,1.1-1.1
	c0,0,0,0,0,0v-6.7C124,60.2,123.5,59.7,122.8,59.7C122.9,59.7,122.9,59.7,122.8,59.7z M108.8,62h12.9v4.5h-13
	c-0.6,0-1.1,0.5-1.1,1.1c0,0,0,0,0,0v4.1l-7.6-7.4l7.6-7.5v4.1C107.7,61.5,108.2,61.9,108.8,62L108.8,62z"/>
<path class="st0" d="M85.6,78.1L85.4,78c-1.8-0.5-3.5-1.2-5.1-2c-4.5-1.7-5.7-2.9-6-3.5v-0.1v-3.9c2.6-3.2,4-7.2,4.1-11.3
	c0.8-4.6,0-9.3-2.3-13.3l0,0l0,0c-0.9-1.5-2.1-2.8-3.4-4c-1.5-1.3-5.2-3-9.6-3c-3.5,0-6.9,1-9.8,3c-6.4,4.3-5.8,15.3-5.8,15.3
	c0.4,0.1,0.8,0.2,1.2,0.2c-0.1,0.6-0.1,1.2-0.1,1.9c0.1,4.1,1.6,8.1,4.1,11.3v3.9v0.1c-0.3,0.6-1.5,1.8-6,3.5
	c-1.6,0.8-3.3,1.5-5.1,2l-0.2,0.1C39,79,37.3,81.3,37.2,84v7.5h52.7V84C89.9,81.3,88.1,78.9,85.6,78.1z M50.3,49.5
	c0.3-1.5,0.8-3,1.5-4.4c0.6-1.3,1.6-2.5,2.8-3.3c2.5-1.7,5.4-2.6,8.5-2.6c2.9-0.1,5.7,0.8,8.1,2.4c0.8,0.7,1.6,1.6,2.2,2.5
	c0.7,0.9,1.3,2,1.7,3.1c0.6,1.4,0.9,2.8,1.1,4.2c0,0.2,0.1,0.5,0.1,0.8c-0.3-0.6-0.8-1.2-1.2-1.8c-0.5-0.5-1.1-1-1.7-1.4
	c-0.3-0.2-0.7-0.4-1.1-0.5c-0.4-0.1-0.7-0.2-1.1-0.3c-0.4-0.1-0.8-0.1-1.2-0.1c-2,0.1-3.9,0.7-5.7,1.8c-3.9,2.2-8.2,3.4-12.7,3.4
	c-0.7,0-1.4,0-1.9-0.1C49.9,52,50.1,50.7,50.3,49.5z M58.2,89.2H39.5V84c0-1.7,1.1-3.2,2.7-3.8h0.1c1.5-0.4,2.9-0.9,4.3-1.6
	c0.4-0.2,0.7-0.3,1-0.4c1.9-0.7,3.7-1.6,5.4-2.7l4.9,2.5l0.8-0.7l0.6,2.9L58.2,89.2z M54.7,73.8l0.1-0.2l0.1-0.2l0.2-0.4v-1.8
	c1.2,1.2,2.5,2.2,3.9,3l-1.4,1.2L54.7,73.8z M63.6,89.2h-3l1-8h4l1.2,8H63.6z M60.8,75.7l0.6-0.5c0.7,0.2,1.5,0.4,2.2,0.4
	c0.8,0,1.6-0.2,2.4-0.4l0.5,0.4L65.7,79h-4.3L60.8,75.7z M63.6,73.3c-1.3-0.1-2.5-0.5-3.6-1.2c-1.6-1-3-2.2-4.3-3.6
	c-2.9-3.1-4.5-7-4.7-11.2c0-0.6,0-1.1,0.1-1.7h0.6c4.9,0,9.6-1.3,13.8-3.7c1.4-0.9,2.9-1.4,4.5-1.5c2.9,0,4.2,2.4,5,4.6
	c0.2,0.6,0.5,1.2,1,1.6c0,0.2,0,0.4,0,0.6c-0.2,4.2-1.9,8.2-4.7,11.2c-1.2,1.4-2.7,2.6-4.3,3.6C66,72.8,64.8,73.2,63.6,73.3
	L63.6,73.3z M72.4,73.9l-2.8,1.4l-1.5-1.2c1.4-0.8,2.7-1.8,3.8-2.9V73l0.2,0.4l0.1,0.2C72.3,73.7,72.4,73.8,72.4,73.9L72.4,73.9z
	 M87.6,89.2H69l-1.3-8.9l0.6-3.1l1,0.8l4.8-2.5c1.7,1.1,3.4,1.9,5.3,2.6c0.3,0.1,0.6,0.3,1,0.4c1.4,0.7,2.8,1.2,4.3,1.6h0.1
	c1.6,0.5,2.8,2.1,2.8,3.8V89.2z"/>
</svg>
