<?xml version="1.0" encoding="utf-8"?>
<!-- Generator: Adobe Illustrator 21.0.2, SVG Export Plug-In . SVG Version: 6.00 Build 0)  -->
<svg version="1.1" id="Layer_1" xmlns="http://www.w3.org/2000/svg" xmlns:xlink="http://www.w3.org/1999/xlink" x="0px" y="0px"
	 viewBox="0 0 128 128" style="enable-background:new 0 0 128 128;" xml:space="preserve">
<style type="text/css">
	.st0{fill:#0196F5;}
</style>
<title>icons</title>
<path class="st0" d="M103.8,39.8l-9.4-7.5l-10,10V41c-0.3-2.5-2.5-4.4-5-4.5h-1.6l7.6-13.3H44.7l6.9,11.3l-7,5.8h-37v2.6h38
	l11.3-9.4H57L69.1,37l4.1,5.2c1.3,1.6,1.2,3.9-0.4,5.3c-1.5,1.3-3.8,1.2-5.1-0.3l-3.4-3.5l-9.9,8l0.9,1.1V53
	c-0.5,5.1-2.7,9.9-6.3,13.6l0.8,0.7l-1-0.5l-0.2,0.1l-0.4,0.2L47.1,67l-3.7-1.8H7.5v2.6h35.3l3.5,1.8L46,70.1c-2.2,3.3-3.6,7.1-4,11
	l-0.1,1.3l-8.3-8.3L6.4,101.3l1.8,1.8l25.3-25.3l8.4,8.4v0.2c1.5,11.8,11.2,20.8,23,21.3c13.3,0.6,24.6-9.7,25.2-23
	c0.3-6.3-1.9-12.5-6.2-17.2l-0.3-0.3l0.2-0.4c0.4-0.7,0.6-1.5,0.6-2.3c0-1.3-0.5-2.5-1.3-3.4l-0.4-0.4l0.4-0.4
	c1.8-1.9,1.8-4.9,0-6.8l-0.4-0.4l0.4-0.4c0.8-0.9,1.3-2.1,1.3-3.4c0-0.8-0.2-1.5-0.5-2.2l-0.2-0.4l11-11l9.7,7.8l13.8-19l-2.1-1.6
	L103.8,39.8z M71.9,36.7v-0.1l-1.4-1.7l-14.4-4.1L53.5,33l-4.3-7.1h31.7l-6.2,10.8H71.9z M73.9,39.1h5.3c1.4,0,2.5,1.1,2.5,2.5
	c0,1.4-1.1,2.5-2.5,2.5h-2.7l-0.1-0.5c-0.2-1.1-0.6-2.1-1.3-3L73.9,39.1z M72.1,50.6c0.7-0.2,1.4-0.5,2-1c0.8-0.6,1.5-1.5,1.9-2.5
	l0.2-0.4h3.2c1.4,0,2.5,1.1,2.5,2.5c0,1.4-1.1,2.5-2.5,2.5H67.9L72.1,50.6z M71.8,62h7.6c1.3,0,2.5,1.1,2.5,2.5S80.8,67,79.4,67
	h-7.6c-1.4,0-2.5-1.1-2.5-2.5S70.4,62,71.8,62z M69.2,56.9c0-1.4,1.1-2.5,2.5-2.5h7.6c1.4,0,2.5,1.1,2.5,2.5c0,1.4-1.1,2.5-2.5,2.5
	h-7.6C70.3,59.4,69.2,58.3,69.2,56.9z M80.4,99.7c-3.9,3.5-9,5.4-14.3,5.4h-0.8c-11.4-0.6-20.4-9.8-20.8-21.2
	c-0.2-5.7,2-11.2,6-15.4c4.3-4.3,6.8-10,7.2-16v-0.3l6.3-5l1.8,1.8c0.2,0.2,0.4,0.3,0.6,0.5l0.2,0.2l0.1,0.3c0.1,1,0.6,2,1.3,2.8
	l0.4,0.4L68,53.6c-1.8,1.9-1.8,4.9,0,6.8l0.4,0.4L68,61.2c-1.8,1.9-1.8,4.9,0,6.8l0.4,0.4c0.9,0.8,2.1,1.3,3.4,1.3h7.6
	c0.7,0,1.4-0.2,2.1-0.5l0.4-0.2l0.3,0.3C90.1,78.2,89.3,91.8,80.4,99.7z"/>
<polygon class="st0" points="3.6,106 11.6,107 11.9,104.5 7.4,103.9 8.3,103 6.4,101.3 5.6,102 5.2,97.5 2.6,97.8 "/>
<path class="st0" d="M63.1,94.4h1.6v3.8h2.6v-3.8h1.6c3.3,0,6-2.7,6-6s-2.7-6-6-6h-5.7c-1.9,0-3.5-1.6-3.5-3.5s1.6-3.5,3.5-3.5h5.7
	c1.9,0,3.5,1.6,3.5,3.5v0.3H75v-0.3c0-3.3-2.7-6-6-6h-1.6V69h-2.6v3.8h-1.6c-3.3,0-6,2.7-6,6s2.7,6,6,6h5.7c1.9,0,3.5,1.6,3.5,3.5
	s-1.6,3.5-3.5,3.5h-5.7c-1.9,0-3.5-1.6-3.5-3.5V88h-2.5v0.3C57.1,91.7,59.8,94.4,63.1,94.4L63.1,94.4z"/>
</svg>
