<?xml version="1.0" encoding="utf-8"?>
<!-- Generator: Adobe Illustrator 21.0.2, SVG Export Plug-In . SVG Version: 6.00 Build 0)  -->
<svg version="1.1" id="Layer_1" xmlns="http://www.w3.org/2000/svg" xmlns:xlink="http://www.w3.org/1999/xlink" x="0px" y="0px"
	 viewBox="0 0 128 128" style="enable-background:new 0 0 128 128;" xml:space="preserve">
<style type="text/css">
	.st0{fill:#0196F5;}
</style>
<title>icons</title>
<path class="st0" d="M87.9,78.9L61.5,64.4L92,48.5c0.6-0.3,0.9-0.9,0.9-1.5c0-0.6-0.4-1.2-0.9-1.5L66.6,32.3
	c-0.4-0.2-0.9-0.2-1.3-0.1c-0.9,0.3-1.4,1.2-1.1,2.1c0.1,0.4,0.4,0.8,0.8,1L87.6,47L57.2,62.8c-0.5,0.3-0.9,0.9-0.9,1.5
	c0,0.6,0.3,1.2,0.9,1.5l29.2,16.1c0.2,0.1,0.5,0.2,0.8,0.2c0.2,0,0.3,0,0.5-0.1c0.4-0.1,0.8-0.4,1-0.8
	C89.1,80.4,88.8,79.4,87.9,78.9C88,78.9,88,78.9,87.9,78.9L87.9,78.9z"/>
<path class="st0" d="M89.7,54.8c-5,0-9.1,4.1-9.1,9.1c0,0.6,0.1,1.1,0.2,1.7c0,0,0,0.1,0.1,0.3c0.1,0.6,0.3,1.2,0.6,1.8
	c1,2.3,3.1,5.8,7.7,9.5c0.3,0.3,0.8,0.3,1.2,0c4.6-3.7,6.7-7.2,7.7-9.5c0.3-0.6,0.5-1.2,0.6-1.8c0-0.2,0.1-0.3,0.1-0.3
	c0.1-0.6,0.2-1.1,0.2-1.7C98.8,58.8,94.7,54.8,89.7,54.8z M96.1,63.6c0,3.5-2.8,6.3-6.3,6.3s-6.3-2.8-6.3-6.3s2.8-6.4,6.3-6.4l0,0
	C93.2,57.3,96.1,60.1,96.1,63.6z"/>
<path class="st0" d="M58.3,59c0.2,0,0.4-0.1,0.5-0.2c2.9-2.2,5.3-5,6.8-8.3c0.2-0.5,0.4-1,0.5-1.6c0-0.2,0.1-0.2,0.1-0.3
	c0.1-0.5,0.1-1,0.1-1.5c0-4.5-3.6-8.1-8.1-8.1s-8.1,3.6-8.1,8.1c0,0.5,0,1,0.1,1.5c0,0,0,0.1,0.1,0.3c0.1,0.6,0.3,1.1,0.6,1.6
	c1.5,3.3,3.9,6.2,6.8,8.4C57.9,58.9,58.1,59,58.3,59z M63.9,46.9c0,3.1-2.5,5.6-5.6,5.6s-5.6-2.5-5.6-5.6s2.5-5.6,5.6-5.6
	C61.4,41.3,63.9,43.8,63.9,46.9C63.9,46.9,63.9,46.9,63.9,46.9L63.9,46.9z"/>
<path class="st0" d="M92.3,22c-4.4,0-8.1,3.6-8.1,8.1c0,0.5,0,1,0.1,1.5c0,0,0,0.1,0.1,0.3c0.1,0.6,0.3,1.1,0.5,1.6
	c1.5,3.3,3.9,6.2,6.8,8.4c0.3,0.2,0.7,0.2,1,0c2.9-2.2,5.3-5,6.8-8.3c0.2-0.5,0.4-1,0.5-1.6c0-0.2,0.1-0.2,0.1-0.3
	c0.1-0.5,0.1-1,0.1-1.5C100.4,25.7,96.8,22,92.3,22z M97.9,29.8c0,3.1-2.5,5.6-5.6,5.6s-5.6-2.5-5.6-5.6s2.5-5.6,5.6-5.6
	C95.4,24.3,97.9,26.8,97.9,29.8C97.9,29.9,97.9,29.9,97.9,29.8L97.9,29.8z"/>
<path class="st0" d="M59.3,21.4c0.1,0.5,0.3,0.9,0.5,1.4c1.3,2.9,3.4,5.4,5.9,7.2c0.3,0.2,0.7,0.2,0.9,0c2.5-1.9,4.6-4.4,5.9-7.2
	c0.2-0.4,0.4-0.9,0.5-1.4c0-0.1,0-0.2,0-0.2c0.1-0.4,0.1-0.9,0.1-1.3c0-3.9-3.1-7-7-7s-7,3.1-7,7c0,0.4,0,0.9,0.1,1.3
	C59.2,21.2,59.3,21.3,59.3,21.4z M61.3,19.7c0-2.7,2.2-4.8,4.8-4.8c2.7,0,4.8,2.2,4.8,4.8s-2.2,4.8-4.8,4.8
	C63.5,24.5,61.3,22.3,61.3,19.7L61.3,19.7z"/>
<path class="st0" d="M110.3,108.2H15.6c-2.7,0-4.9-2.6-4.9-5.7s2.2-5.7,4.9-5.7h34.2l0.2,1c0.2,1.6,1.5,2.8,3.1,3h19.6
	c1.6-0.2,2.9-1.4,3.1-3l0.2-1h34.2c2.7,0,4.9,2.6,4.9,5.7S113,108.2,110.3,108.2z M15.6,99.4c-1.3,0-2.4,1.5-2.4,3.2
	s1.1,3.2,2.4,3.2h94.7c1.3,0,2.4-1.5,2.4-3.2s-1.1-3.2-2.4-3.2H78c-0.7,2.3-2.8,3.9-5.2,4H53.2c-2.4-0.1-4.5-1.7-5.2-4H15.6z"/>
<path class="st0" d="M40.8,73.3c0.9,0,1.6-0.7,1.6-1.6s-0.7-1.6-1.6-1.6c0,0,0,0,0,0H23.4c-0.9,0-1.6,0.7-1.6,1.6
	c0,0.9,0.7,1.6,1.6,1.6c0,0,0,0,0,0H40.8z"/>
<path class="st0" d="M22,80.7c0.3,0.5,0.8,0.8,1.4,0.8h27.1c0.9,0,1.6-0.7,1.6-1.6s-0.7-1.6-1.6-1.6c0,0,0,0,0,0H23.4
	c-0.5,0-1,0.2-1.3,0.7c-0.3,0.4-0.4,0.9-0.3,1.4C21.9,80.4,21.9,80.5,22,80.7z"/>
<path class="st0" d="M106.3,32.6h-0.7c0.3,1,0.5,2.1,0.7,3.1l0,0c2.9,0,5.2,2.3,5.2,5.2v43.9c0,2.9-2.3,5.2-5.2,5.2H18.5
	c-2.9,0-5.2-2.3-5.2-5.2V40.9c0-2.9,2.3-5.2,5.2-5.2h31c0.2-1.1,0.4-2.1,0.7-3.1H18.5c-4.6,0-8.3,3.7-8.3,8.3v43.9
	c0,4.6,3.7,8.3,8.3,8.3h87.8c4.6,0,8.3-3.7,8.3-8.3V40.9C114.6,36.3,110.9,32.6,106.3,32.6z"/>
</svg>
