<?xml version="1.0" encoding="utf-8"?>
<!-- Generator: Adobe Illustrator 21.0.2, SVG Export Plug-In . SVG Version: 6.00 Build 0)  -->
<svg version="1.1" id="Layer_1" xmlns="http://www.w3.org/2000/svg" xmlns:xlink="http://www.w3.org/1999/xlink" x="0px" y="0px"
	 viewBox="0 0 128 128" style="enable-background:new 0 0 128 128;" xml:space="preserve">
<style type="text/css">
	.st0{fill:#0196F5;}
</style>
<title>icons</title>
<path class="st0" d="M98.2,40.6H53.3c-0.1,0-0.2,0.1-0.2,0.2c0,0,0,0,0,0v29.6c0,0.1,0.1,0.2,0.2,0.2c0,0,0,0,0,0h4.5
	c0.4,0,0.7,0.3,0.7,0.7c0,0.1,0,0.2-0.1,0.3L55,79.9c-0.1,0.3,0,0.6,0.3,0.7c0.2,0.1,0.4,0,0.5-0.1l12-9.8c0.1-0.1,0.3-0.2,0.5-0.2
	h29.9c0.1,0,0.2-0.1,0.2-0.2l0,0V40.8C98.4,40.7,98.3,40.6,98.2,40.6C98.2,40.6,98.2,40.6,98.2,40.6z M95.8,67.3
	c0,0.4-0.3,0.7-0.7,0.7l0,0H67.2c0,0-0.1,0-0.1,0l-4.3,3.5c-0.3,0.2-0.6,0.2-0.9,0c-0.3-0.2-0.4-0.6-0.2-0.9l1-2.4
	c0-0.1,0-0.2-0.1-0.3c0,0-0.1,0-0.1,0h-6.1c-0.4,0-0.7-0.3-0.7-0.7l0,0V43.9c0-0.4,0.3-0.7,0.7-0.7c0,0,0,0,0,0h38.7
	c0.4,0,0.7,0.3,0.7,0.7c0,0,0,0,0,0V67.3z"/>
<path class="st0" d="M36,26.6h51.9v9.9h2.3V21.1c0-3.8-3.1-6.9-6.9-6.9H40.6c-3.8,0-6.9,3.1-6.9,6.9v86.7c0,3.8,3.1,6.9,6.9,6.9
	h42.7c3.8,0,6.9-3.1,6.9-6.9V74.2h-2.3v17.9H36V26.6z M36,21.1c0-2.5,2.1-4.6,4.6-4.6l0,0h42.7c2.5,0,4.6,2.1,4.6,4.6l0,0v3.2H36
	V21.1z M87.9,94.4v13.4c0,2.5-2.1,4.6-4.6,4.6l0,0H40.6c-2.5,0-4.6-2.1-4.6-4.6V94.4L87.9,94.4z"/>
<path class="st0" d="M61.9,109.7c3.5,0,6.2-2.8,6.2-6.2s-2.8-6.2-6.2-6.2c-3.5,0-6.2,2.8-6.2,6.2l0,0
	C55.7,106.9,58.5,109.7,61.9,109.7z M61.9,99.5c2.2,0,3.9,1.8,3.9,3.9c0,2.2-1.8,3.9-3.9,3.9c-2.2,0-3.9-1.8-3.9-3.9
	C58,101.3,59.8,99.5,61.9,99.5z"/>
<path class="st0" d="M65.3,19.2h-6.8c-0.6,0-1.2,0.5-1.2,1.2c0,0.6,0.5,1.2,1.2,1.2c0,0,0,0,0,0h6.8c0.6,0,1.2-0.5,1.2-1.2
	S66,19.2,65.3,19.2C65.3,19.2,65.3,19.2,65.3,19.2z"/>
</svg>
