<?xml version="1.0" encoding="utf-8"?>
<!-- Generator: Adobe Illustrator 21.0.2, SVG Export Plug-In . SVG Version: 6.00 Build 0)  -->
<svg version="1.1" id="Layer_1" xmlns="http://www.w3.org/2000/svg" xmlns:xlink="http://www.w3.org/1999/xlink" x="0px" y="0px"
	 viewBox="0 0 128 128" style="enable-background:new 0 0 128 128;" xml:space="preserve">
<style type="text/css">
	.st0{fill:#0196F5;}
</style>
<title>icons</title>
<path class="st0" d="M111,96.4h-4.2V59.6l0.3-0.2c2.8-2.5,4.4-6,4.4-9.8v-0.4l-4.6-20.7v-8.1c0-0.8-0.7-1.5-1.5-1.5H21.5
	c-0.8,0-1.5,0.7-1.5,1.5v10.5l-4.7,18.4v0.3c0,3.8,1.6,7.3,4.4,9.9l0.3,0.2v36.7h-3c-0.8,0-1.5,0.7-1.5,1.5v9.3
	c0,0.8,0.7,1.5,1.5,1.5h94c0.8,0,1.5-0.7,1.5-1.5v-9.3C112.5,97.1,111.8,96.4,111,96.4C111,96.4,111,96.4,111,96.4z M108.1,52.2
	c-1.2,4.4-5.3,7.5-9.9,7.6c-4.9,0-9.1-3.5-10-8.3l-0.1-0.3h20.2L108.1,52.2z M54.1,66.7H30.8c-0.8-0.1-1.4,0.5-1.5,1.2
	c0,0.1,0,0.2,0,0.3v28.2H23V61.3l1.2,0.6c1.3,0.6,2.8,0.9,4.3,0.8c4.4,0,8.6-2.2,11-5.9l0.7-1l0.7,1c4,6.1,12.1,7.8,18.1,3.8
	c1.5-1,2.8-2.3,3.8-3.8l0.7-1l0.7,1c4,6.1,12.1,7.8,18.1,3.8c1.5-1,2.8-2.3,3.8-3.8l0.7-1l0.7,1c2.4,3.7,6.6,5.9,11,5.9
	c1.5,0,3-0.3,4.4-0.8l1.1-0.4v34.8H55.6V68.2c0.1-0.8-0.5-1.4-1.2-1.5C54.2,66.7,54.1,66.7,54.1,66.7z M52.6,69.7v26.7H32.3V69.7
	H52.6z M41.6,48.1V32.5h20.3v15.6H41.6z M61.8,51.1l-0.2,1c-1.4,5.4-6.9,8.7-12.4,7.3c-3.9-1-6.8-4.1-7.5-8l0-0.3L61.8,51.1z
	 M64.8,48.1V32.5h20.3v15.6H64.8z M85.1,51.1l-0.2,1c-1.4,5.4-7,8.7-12.4,7.3c-3.8-1-6.7-4.1-7.4-8v-0.3L85.1,51.1z M107.9,48.1
	H88.2V32.5h16.4L107.9,48.1z M23,21.9h80.8v7.6H23V21.9z M22.7,32.5h15.9v15.6H18.7L22.7,32.5z M18.5,51.4l0-0.3h20.1l-0.2,1
	c-1.2,4.5-5.2,7.6-9.9,7.6C23.5,59.8,19.3,56.2,18.5,51.4z M109.5,105.7h-91v-6.3h91V105.7z"/>
<circle class="st0" cx="48.1" cy="84.8" r="1.6"/>
</svg>
