<svg id="Layer_1" data-name="Layer 1" xmlns="http://www.w3.org/2000/svg" viewBox="0 0 128 128"><title>icons</title><path d="M111,96.43h-4.25V59.62l.27-.25a13.15,13.15,0,0,0,4.38-9.75v-.42L106.8,28.52V20.38a1.51,1.51,0,0,0-1.5-1.5H21.47a1.51,1.51,0,0,0-1.5,1.5V30.86L15.3,49.27v.34a13.45,13.45,0,0,0,4.39,9.87l.27.25V96.43H17a1.5,1.5,0,0,0-1.5,1.5v9.31a1.5,1.5,0,0,0,1.5,1.5h94a1.5,1.5,0,0,0,1.5-1.5V97.92A1.49,1.49,0,0,0,111,96.43Zm-2.86-44.26a10.32,10.32,0,0,1-9.87,7.58,10.12,10.12,0,0,1-10-8.34l-.05-.29h20.21ZM54.06,66.74H30.78a1.38,1.38,0,0,0-1.5,1.5V96.43H23V61.32l1.2.6a9.46,9.46,0,0,0,4.29.85,13.21,13.21,0,0,0,11-5.93l.68-1,.68,1a13.09,13.09,0,0,0,21.92,0l.68-1,.68,1a13.09,13.09,0,0,0,21.92,0l.68-1,.68,1a13.21,13.21,0,0,0,11,5.93,13,13,0,0,0,4.38-.77l1.1-.4V96.43H55.56V68.24A1.38,1.38,0,0,0,54.06,66.74Zm-1.5,3V96.43H32.28V69.74Zm-11-21.63V32.49H61.87V48.11Zm20.26,3-.24,1a10.17,10.17,0,0,1-19.86-.72l-.05-.29Zm3-3V32.49H85.16V48.11Zm20.26,3-.24,1A10.17,10.17,0,0,1,65,51.41L65,51.12Zm22.8-3H88.16V32.49h16.39ZM23,21.88h80.81v7.61H23Zm-.28,10.61h15.9V48.11H18.73ZM18.5,51.41l-.05-.3H38.57l-.24,1a10.14,10.14,0,0,1-9.88,7.62A10,10,0,0,1,18.5,51.41Zm91,54.33h-91V99.44h91Z"/><circle cx="48.06" cy="84.76" r="1.63"/></svg>