<?xml version="1.0" encoding="utf-8"?>
<!-- Generator: Adobe Illustrator 21.0.2, SVG Export Plug-In . SVG Version: 6.00 Build 0)  -->
<svg version="1.1" id="Layer_1" xmlns="http://www.w3.org/2000/svg" xmlns:xlink="http://www.w3.org/1999/xlink" x="0px" y="0px"
	 viewBox="0 0 128 128" style="enable-background:new 0 0 128 128;" xml:space="preserve">
<style type="text/css">
	.st0{fill:#0196F5;}
</style>
<title>icons</title>
<path class="st0" d="M111.7,27.4c-0.6-0.6-1.6-0.6-2.2,0s-0.6,1.6,0,2.2c6.9,6.9,6.9,18,0,24.9c-0.6,0.6-0.6,1.6,0,2.2c0,0,0,0,0,0
	c0.6,0.6,1.6,0.6,2.2,0C119.8,48.6,119.8,35.5,111.7,27.4z"/>
<path class="st0" d="M104.1,31.5c-0.6-0.6-1.6-0.6-2.2,0s-0.6,1.6,0,2.2c4.7,4.7,4.7,12.4,0,17.2c-0.6,0.6-0.6,1.6,0,2.2
	c0,0,0,0,0,0c0.6,0.6,1.6,0.6,2.2,0C110,47.1,110,37.4,104.1,31.5z"/>
<path class="st0" d="M12.6,42c0-4.7,1.8-9.1,5.1-12.4c0.6-0.6,0.6-1.6,0-2.2c-0.6-0.6-1.6-0.6-2.2,0l0,0c-8.1,8.1-8.1,21.2,0,29.3
	c0.6,0.6,1.6,0.6,2.2,0c0.6-0.6,0.6-1.6,0-2.2c0,0,0,0,0,0C14.5,51.2,12.6,46.7,12.6,42z"/>
<path class="st0" d="M25.4,31c-0.6-0.6-1.6-0.6-2.2,0c-5.9,6-5.9,15.6,0,21.6c0.6,0.6,1.6,0.6,2.2,0c0.6-0.6,0.6-1.6,0-2.2
	c0,0,0,0,0,0c-4.7-4.7-4.7-12.4,0-17.2C26,32.6,26,31.6,25.4,31C25.4,31,25.4,31,25.4,31z"/>
<path class="st0" d="M85.4,13.2H41.9c-3.9,0-7.1,3.2-7.1,7.1v88.3c0,3.9,3.2,7.1,7.1,7.1h43.5c3.9,0,7.1-3.2,7.1-7.1V20.3
	C92.4,16.4,89.3,13.2,85.4,13.2L85.4,13.2z M90.1,108.6c0,2.6-2.1,4.7-4.7,4.7c0,0,0,0,0,0H41.9c-2.6,0-4.7-2.1-4.7-4.7l0,0V95h52.8
	L90.1,108.6z M90.1,92.6H37.2V25.9h52.8L90.1,92.6z M90.1,23.6H37.2v-3.3c0-2.6,2.1-4.7,4.7-4.7h43.5c2.6,0,4.7,2.1,4.7,4.7v0V23.6z
	"/>
<path class="st0" d="M63.6,110.5c3.5,0,6.4-2.8,6.4-6.4c0-3.5-2.8-6.4-6.4-6.4c-3.5,0-6.4,2.8-6.4,6.3
	C57.3,107.6,60.1,110.5,63.6,110.5z M63.6,100.2c2.2,0,4,1.8,4,4s-1.8,4-4,4c-2.2,0-4-1.8-4-4S61.4,100.2,63.6,100.2z"/>
<path class="st0" d="M67.1,18.4h-6.9c-0.7,0-1.2,0.5-1.2,1.2s0.5,1.2,1.2,1.2h6.9c0.7,0,1.2-0.5,1.2-1.2S67.7,18.4,67.1,18.4z"/>
</svg>
