<?xml version="1.0" encoding="utf-8"?>
<!-- Generator: Adobe Illustrator 21.0.2, SVG Export Plug-In . SVG Version: 6.00 Build 0)  -->
<svg version="1.1" id="Layer_1" xmlns="http://www.w3.org/2000/svg" xmlns:xlink="http://www.w3.org/1999/xlink" x="0px" y="0px"
	 viewBox="0 0 128 128" style="enable-background:new 0 0 128 128;" xml:space="preserve">
<style type="text/css">
	.st0{fill:#0196F5;}
</style>
<title>icons</title>
<path class="st0" d="M100.5,21.5H25.1c-4.6,0-8.2,3.7-8.2,8.2v44.1c0,4.6,3.7,8.2,8.2,8.2h12.2v11h-3.6v-0.2
	c-0.8-3.4-4.2-5.5-7.6-4.7s-5.5,4.2-4.7,7.6s4.2,5.5,7.6,4.7c2.3-0.6,4.1-2.4,4.7-4.7v-0.2h4.9c0.7,0,1.3-0.6,1.3-1.3V82.1h13.6
	v16.1h-0.2c-3.4,0.8-5.5,4.2-4.7,7.6s4.2,5.5,7.6,4.7s5.5-4.2,4.7-7.6c-0.6-2.3-2.4-4.1-4.7-4.7H56V82.1h13.6v16.1h-0.2
	c-3.4,0.8-5.5,4.2-4.7,7.6s4.2,5.5,7.6,4.7s5.5-4.2,4.7-7.6c-0.6-2.3-2.4-4.1-4.7-4.7h-0.2V82.1h13.6v12.2c0,0.7,0.6,1.3,1.3,1.3
	h4.9v0.2c0.8,3.4,4.2,5.5,7.6,4.7s5.5-4.2,4.7-7.6s-4.2-5.5-7.6-4.7c-2.3,0.6-4.1,2.4-4.7,4.7v0.2h-3.6v-11h12.2
	c4.6,0,8.2-3.7,8.2-8.2V29.7C108.7,25.2,105.1,21.5,100.5,21.5z M27.5,98.1c-2.1,0-3.8-1.7-3.8-3.8c0-2.1,1.7-3.8,3.8-3.8
	s3.8,1.7,3.8,3.8l0,0C31.3,96.4,29.6,98.1,27.5,98.1z M58.5,104.4c0,2.1-1.7,3.8-3.8,3.8s-3.8-1.7-3.8-3.8c0-2.1,1.7-3.8,3.8-3.8h0
	C56.8,100.7,58.5,102.3,58.5,104.4C58.5,104.4,58.5,104.4,58.5,104.4L58.5,104.4z M74.6,104.4c0,2.1-1.7,3.8-3.8,3.8
	s-3.8-1.7-3.8-3.8s1.7-3.8,3.8-3.8h0C73,100.7,74.6,102.3,74.6,104.4C74.7,104.4,74.7,104.4,74.6,104.4L74.6,104.4z M98.1,90.6
	c2.1,0,3.8,1.7,3.8,3.8s-1.7,3.8-3.8,3.8s-3.8-1.7-3.8-3.8v0C94.4,92.3,96,90.6,98.1,90.6z M105.8,73.9c0,2.9-2.4,5.3-5.3,5.3l0,0
	H25.1c-2.9,0-5.3-2.4-5.3-5.3l0,0V29.7c0-2.9,2.4-5.3,5.3-5.3h75.4c2.9,0,5.3,2.4,5.3,5.3V73.9z"/>
<path class="st0" d="M49.5,44.3c-5.1,0-9.9,2-13.5,5.6c-0.7,0.5-0.9,1.4-0.4,2.1c0.5,0.7,1.4,0.9,2.1,0.4c0.2-0.1,0.3-0.2,0.4-0.4
	c6.3-6.3,16.5-6.3,22.8,0c0.5,0.7,1.5,0.8,2.1,0.3c0.7-0.5,0.8-1.5,0.3-2.1c-0.1-0.1-0.2-0.2-0.3-0.3C59.4,46.3,54.6,44.3,49.5,44.3
	z"/>
<path class="st0" d="M49.5,52.8L49.5,52.8c-2.8,0-5.5,1.1-7.5,3.1c-0.7,0.5-0.9,1.4-0.4,2.1c0.5,0.7,1.4,0.9,2.1,0.4
	c0.1-0.1,0.3-0.2,0.4-0.4c3-3,7.8-3,10.7,0c0.6,0.5,1.6,0.5,2.1-0.2c0.5-0.6,0.5-1.4,0-1.9C55,53.9,52.3,52.8,49.5,52.8z"/>
<circle class="st0" cx="49.5" cy="63.4" r="2.3"/>
<path class="st0" d="M49.5,35.6c-7.4,0-14.4,2.9-19.6,8.1c-0.6,0.6-0.6,1.6,0,2.2c0.6,0.6,1.6,0.6,2.2,0l0,0c9.7-9.7,25.3-9.7,35,0
	c0.6,0.6,1.5,0.7,2.1,0.1c0.6-0.6,0.7-1.5,0.1-2.1c0,0-0.1-0.1-0.1-0.1C63.9,38.5,56.9,35.6,49.5,35.6z"/>
</svg>
