<?xml version="1.0" encoding="utf-8"?>
<!-- Generator: Adobe Illustrator 21.0.2, SVG Export Plug-In . SVG Version: 6.00 Build 0)  -->
<svg version="1.1" id="Layer_1" xmlns="http://www.w3.org/2000/svg" xmlns:xlink="http://www.w3.org/1999/xlink" x="0px" y="0px"
	 viewBox="0 0 128 128" style="enable-background:new 0 0 128 128;" xml:space="preserve">
<style type="text/css">
	.st0{fill:#0196F5;}
</style>
<title>icons</title>
<path class="st0" d="M67.8,55.6c0-0.1,0-0.2,0-0.2c0.1-1,0.3-2,0.5-2.9L69,49c0.4-2.1,0.8-4.2,1.1-6.3c0.2-0.9,0.3-1.9,0.3-2.8
	c0-1-0.5-1.9-1.4-2.4l-0.8-0.4l0.8-0.5c0.2-0.2,0.5-0.4,0.7-0.6c2.2-2.2,2.2-5.8,0-8c-1-1.1-2.5-1.7-4-1.7c-3.1,0-5.7,2.6-5.7,5.7
	c0,1.6,0.7,3.2,2,4.3l1.2,1h-4c-0.4,0-0.8,0-1.2,0.1c-1.2,0.1-2.1,1.2-2,2.4c0.1,0.9,0.7,1.6,1.6,1.9c0.5,0.2,1,0.3,1.5,0.3l0.6,0.1
	v0.5c0,0.1,0,0.2,0,0.3c-0.2,1.4-0.5,2.8-0.7,4.2s-0.5,2.8-0.7,4.1s-0.5,2.9-0.8,4.8c-0.2,2.9,1.8,5.6,4.7,6.1
	c1.1,0.2,2.3,0.2,3.4,0.2c2.5,0,5-1.1,6.7-3c0.4-0.5,0.8-1,0.9-1.6c0.2-0.7,0-1.5-0.6-1.9c-0.6-0.5-1.3-0.6-2-0.3
	c-0.3,0.1-0.5,0.2-0.7,0.4c-0.2,0.1-0.3,0.2-0.5,0.2c-0.3,0.1-0.5,0.2-0.8,0.3L68,56L67.8,55.6z M62.5,32c0-1.8,1.4-3.3,3.2-3.3
	c0,0,0,0,0,0l0,0c1.8,0,3.2,1.5,3.2,3.2c0,0,0,0,0,0.1c0,0.9-0.4,1.7-1,2.3c-0.6,0.6-1.4,0.9-2.2,0.9c-0.9,0-1.7-0.4-2.3-1
	C62.8,33.6,62.5,32.8,62.5,32z M68.7,59.4l-1.8,0.4C66.5,59.9,66,60,65.6,60h-0.5c-0.8,0-1.7-0.1-2.5-0.2c-1.1-0.2-2.9-1.7-2.7-3.5
	s0.5-3.4,0.7-4.8s0.5-2.8,0.7-4.1l0.1-0.6c0.2-1.2,0.4-2.4,0.6-3.5c0.1-0.3,0.1-0.5,0.1-0.8c0.1-0.7-0.2-1.4-0.6-2l-0.8-1H68v0.6
	c0,0.7-0.1,1.4-0.3,2.1c-0.4,2.1-0.8,4.1-1.1,6.2L66,52c-0.2,1-0.4,2-0.5,3.1c-0.1,0.7,0,1.3,0.2,2c0.2,0.7,0.7,1.3,1.3,1.6
	L68.7,59.4z"/>
<path class="st0" d="M84.8,24.1C73.7,13,55.6,13,44.4,24.1c-10.4,10.5-11.1,27.1-1.8,38.5l0.2,0.2l-0.2,0.3c-1,2-2.5,3.6-4.4,4.6
	c-1.2,0.6-1.6,2-1.1,3.2c0.3,0.7,1,1.2,1.8,1.3c4.1,0.6,8.2-0.4,11.6-2.8l0.2-0.2l0.2,0.1c13.9,7.4,31.2,2.2,38.6-11.7
	C95.7,46.7,93.7,33,84.8,24.1z M64.6,70.2c-4.6,0-9.1-1.2-13.1-3.6l-0.8-0.5L50,66.7c-2.4,1.8-5.3,2.9-8.3,3h-1.4l1.1-0.9
	c1.9-1.6,3.4-3.5,4.3-5.8l0.4-1l-1-0.8c-8.9-10.3-8.4-25.7,1.2-35.3c10.1-10.1,26.5-10.1,36.7,0s10.1,26.5,0,36.7
	C78.1,67.5,71.5,70.3,64.6,70.2z"/>
<path class="st0" d="M107.7,95.8C98.6,91,91.5,88.2,85.4,87c-0.5-0.1-0.9-0.7-0.7-1.2c0-0.1,0.1-0.2,0.1-0.3
	c0.3-0.3,0.4-0.7,0.3-1.1l-0.5-2.1l0,0l-1-4.1l0,0L83,75.8c0-0.3-0.3-0.4-0.5-0.4c-0.1,0-0.2,0.1-0.3,0.2c-0.5,0.7-1,1.3-1.2,1.6
	s-0.3,0.4-0.5,0.6c-0.7,1-1.5,1.9-2.4,2.7c-3.4,3.3-7.8,5.4-12.5,5.9H65c-0.4,0-0.8,0-1.2,0c-2.8-0.2-5.6-1-8.1-2.4
	c-2.9-1.7-5.5-4-7.5-6.7c-0.2-0.2-1-1.2-1.4-1.8c-0.2-0.2-0.4-0.3-0.7-0.1c-0.1,0.1-0.2,0.2-0.2,0.3l-0.6,2.5l0,0l-1.5,6.2
	c0,0.4,0.1,0.7,0.3,1c0.2,0.3,0.3,0.7,0.1,1c-0.1,0.3-0.4,0.5-0.7,0.6c-6.2,1.2-13.2,4-22.3,8.8c-2.9,1.4-4.8,4.4-4.7,7.7v6.2
	c0,1.1,0.9,2.1,2.1,2.1h0h91.8c1.1,0,2.1-0.9,2.1-2.1l0,0v-6.2C112.3,100.2,110.5,97.3,107.7,95.8z M64.4,92.7
	c0.4,0,0.7,0.2,0.9,0.6l2.8,6.3c0.2,0.5,0,1.1-0.6,1.3c-0.1,0-0.2,0.1-0.3,0.1h-5.6c-0.6,0-1-0.5-1-1c0-0.1,0-0.2,0.1-0.3l2.8-6.3
	C63.7,93,64,92.7,64.4,92.7z M55.4,108.2c-0.1,0.5-0.5,0.8-1,0.8H20.1c-0.6,0-1-0.4-1-1v-4.6c0-2.2,1.2-4.2,3.2-5.2
	c10-5.3,17.4-8.1,23.8-9c0.4,0,0.7,0.1,0.9,0.4l9.2,12.6c0.2,0.2,0.2,0.5,0.2,0.8L55.4,108.2z M57.6,98.6h-0.1
	c-0.3,0-0.6-0.2-0.8-0.4l-1.4-1.9l-6.7-9.2L48.5,87l-1.6-2.2c-0.2-0.2-0.2-0.5-0.2-0.8l0.7-3l0.3,0.3l0.7,0.7
	c3.4,3.6,7.8,6.1,12.7,7c0.3,0.1,0.5,0.2,0.7,0.5c0.1,0.3,0.1,0.6,0,0.9l-3.4,7.7C58.2,98.4,57.9,98.6,57.6,98.6L57.6,98.6z
	 M70.3,108.7c-0.2,0.2-0.5,0.3-0.8,0.3H59.2c-0.6,0-1-0.4-1-1c0-0.1,0-0.1,0-0.2l0.8-3.4c0.1-0.5,0.5-0.8,1-0.8h9
	c0.5,0,0.9,0.3,1,0.8l0.6,3.4C70.6,108.2,70.5,108.5,70.3,108.7L70.3,108.7z M71.4,98.6h-0.1c-0.3,0-0.6-0.3-0.8-0.6L67,90.3
	c-0.1-0.3-0.1-0.6,0-0.9c0.1-0.3,0.4-0.4,0.7-0.5c4.8-0.9,9.2-3.3,12.5-6.8l0.1-0.1l0.8-0.8l0.3-0.3l0.7,3c0.1,0.3,0,0.6-0.2,0.8
	l-1.5,2c-0.1,0.1-0.2,0.2-0.2,0.3l-8.1,11.3C71.9,98.5,71.6,98.6,71.4,98.6L71.4,98.6z M109.7,108.1c0,0.6-0.4,1-1,1H74.4
	c-0.5,0-0.9-0.3-1-0.8l-1-5.2c0-0.3,0-0.5,0.2-0.8l9.3-12.7c0.2-0.3,0.6-0.4,0.9-0.4c6.6,1.1,14.1,3.9,23.7,8.9
	c2,1.1,3.2,3.1,3.2,5.4L109.7,108.1z"/>
</svg>
