<?xml version="1.0" encoding="utf-8"?>
<!-- Generator: Adobe Illustrator 18.0.0, SVG Export Plug-In . SVG Version: 6.00 Build 0)  -->
<!DOCTYPE svg PUBLIC "-//W3C//DTD SVG 1.1//EN" "http://www.w3.org/Graphics/SVG/1.1/DTD/svg11.dtd">
<svg version="1.1" id="Layer_1" xmlns="http://www.w3.org/2000/svg" xmlns:xlink="http://www.w3.org/1999/xlink" x="0px" y="0px"
	 viewBox="0 0 400 400" enable-background="new 0 0 400 400" xml:space="preserve">
<g>
	<path d="M268.1,78.5L149.4,228.8c-1.1,1.4-1.7,3.1-1.7,4.9v125.6c0,4.3-3.5,7.8-7.8,7.9l-67.6,0.4c-4.4,0-7.9-3.5-7.9-7.9V41.7
		c0-4.3,3.5-7.9,7.9-7.9h1.4c4.3,0,7.9,3.5,7.9,7.9v300.9c0,4.3,3.5,7.9,7.9,7.9h32.8c4.3,0,7.9-3.5,7.9-7.9V227.5
		c0-1.8,0.6-3.5,1.7-4.9L253.9,68.8c1.5-1.9,3.8-3,6.2-3h1.9C268.5,65.8,272.2,73.4,268.1,78.5z M177.6,217.7L298.2,64.2
		c4-5.2,0.4-12.7-6.2-12.7h-41.9c-2.4,0-4.7,1.1-6.2,3L115.6,218.8c-1.1,1.4-1.7,3.1-1.7,4.8v106.5c0,4.3-3.5,7.9-7.9,7.9h-1.4
		c-4.3,0-7.9-3.5-7.9-7.9V218c0-1.7,0.6-3.4,1.7-4.8L235.8,36.9c1.5-1.9,3.8-3,6.2-3h85.2c6.5,0,10.2,7.5,6.2,12.7l-134,171.1
		c-2.2,2.8-2.2,6.7-0.1,9.5l72.5,98.4c3.8,5.2,0.1,12.5-6.3,12.5h-1.9c-2.5,0-4.8-1.2-6.3-3.2l-79.8-107.7
		C175.4,224.4,175.4,220.5,177.6,217.7z M96.8,163.9V41.7c0-4.3,3.5-7.9,7.9-7.9h34.7c4.3,0,7.9,3.5,7.9,7.9v77.9
		c0,1.8-0.6,3.5-1.7,4.9l-1.9,2.4c-4.6,5.8-14,2.5-14-4.9V59.4c0-4.3-3.5-7.9-7.9-7.9h0c-4.3,0-7.9,3.5-7.9,7.9v102.7
		c0,1.8-0.6,3.5-1.7,4.8l-1.4,1.8C106.2,174.6,96.8,171.4,96.8,163.9z M238.2,363.9l-72.7-98c-1-1.4-1.5-3-1.5-4.7v-2.1
		c0-7.6,9.7-10.8,14.2-4.7l68.7,92.9c1.5,2,3.8,3.2,6.3,3.2H294c6.4,0,10.2-7.3,6.3-12.5l-80.5-108.8c-2.1-2.9-2-6.8,0.2-9.6
		l0.9-1.1c3.2-4,9.4-4,12.5,0.2l101.2,135.9c3.9,5.2,0.2,12.5-6.3,12.5h-83.7C242,367.1,239.7,365.9,238.2,363.9z"/>
</g>
</svg>
